<svg width="400" height="100" viewBox="0 -8 88 8" xmlns="http://www.w3.org/2000/svg">
  <path d="M 0 0 C 4 0 4 2 6 -2 C 6 -4 6 -4 2 -6 C -2 -8 6 -8 12 -8 C 20 -8 16 -6 14 -6 C 12 -6 10 -4 12 -2 C 18 0 22 0 22 0" fill="none" stroke="black"/>
  <path d="M 22 0 C 26 0 26 2 28 -2 C 28 -4 28 -4 24 -6 C 20 -8 28 -8 34 -8 C 42 -8 38 -6 36 -6 C 34 -6 32 -4 34 -2 C 40 0 44 0 44 0" fill="none" stroke="black"/>
  <path d="M 44 0 C 48 0 48 2 50 -2 C 50 -4 50 -4 46 -6 C 42 -8 50 -8 56 -8 C 64 -8 60 -6 58 -6 C 56 -6 54 -4 56 -2 C 62 0 66 0 66 0" fill="none" stroke="black"/>
  <path d="M 66 0 C 70 0 70 2 72 -2 C 72 -4 72 -4 68 -6 C 64 -8 72 -8 78 -8 C 86 -8 82 -6 80 -6 C 78 -6 76 -4 78 -2 C 84 0 88 0 88 0" fill="none" stroke="black"/>
</svg>
