<svg width="150" height="20" class="stroke-base-content"><line x1="0" y1="15" x2="150" y2="15" stroke="black" stroke-width="1" stroke-dasharray="22,8"></line><text x="75" y="15" overflow="visible" text-anchor="middle" dominant-baseline="middle" font-size="30" fill="black">?</text><path d="M 0,15 Q 5,5 10,15 Q 15,25 20,15 Q 25,5 30,15 Q 35,25 40,15 Q 45,5 50,15 Q 55,25 60,15 Q 65,5 70,15 Q 75,25 80,15 Q 85,5 90,15 Q 95,25 100,15 Q 105,5 110,15 Q 115,25 120,15 Q 125,5 130,15 Q 135,25 140,15 Q 145,5 150,15" fill="none" stroke="black" stroke-width="1"></path></svg>