<svg width="100" height="100"  viewBox="0 -20 70 40" xmlns="http://www.w3.org/2000/svg">
   <path d="M 0 0 C 3 -1 4 -1 6 0 L 6 6 C 6 7 6 7 5 7 C 3 7 3 9 5 9 L 6 9 C 8 9 8 9 8 7 L 8 0 C 12 -2 13 -2 17 0 L 17 11 C 17 13 19 13 19 11 C 19 8 19 6 20 6 C 21 6 21 7 21 8 C 21 10 22 9 22 9 C 23 6 22 4 20 4 C 19 4 19 5 19 0 C 21 -3 21 0 23 1 C 24 2 25 3 26 2 C 28 1 31 -7 34 -2 L 34 5 C 29 9 30 11 32 9 L 34 7 C 35 6 36 6 37 7 L 39 9 C 42 11 43 10 36 4 L 36 -1 C 39 1 39 -4 41 -1 C 44 2 45 2 45 2 L 45 9 C 45 11 45 11 47 11 C 50 11 50 9 47 9 C 47 8 47 9 47 2 C 47 2 48 2 50 0" fill="none" stroke="black" />
</svg>