<svg width="400" height="100" viewBox="0 -20 120 60" xmlns="http://www.w3.org/2000/svg" overflow="visible">
<path d="M 0 0 L 7 0 L 7 9 C 7 13 7 13 6 13 C 3 13 3 15 6 15 S 9 15 9 11 L 9 0 C 12 2 12 2 22 0 L 22 18 C 22 22 24 22 24 18 C 24 13 26 6 28 13 C 28 19 30 16 30 15 C 31 7 25 5 24 10 L 24 0 C 31 2 34 3 39 1 C 40 -3 45 4 45 9 C 44 17 45 17 48 19 L 48 31 C 39 42 42 43 48 35 C 50 33 50 34 56 38 C 65 44 61 37 50 31 L 50 20 C 53 29 56 29 62 31 C 69 33 76 32 79 24 C 85 18 80 13 91 3 L 91 14 C 91 17 91 17 93 17 C 97 17 97 15 93 15 L 93 3 C 97 1 97 2 100 0" fill="none" stroke="black" />
</svg>