<svg width="100" height="100"  viewBox="0 -20 70 40" xmlns="http://www.w3.org/2000/svg">
   <path d="M 0 0 C 1 -1 4 -3 6 -3 L 6 5 C 6 7 6 7 5 7 C 3 7 3 9 5 9 L 6 9 C 8 9 8 9 8 7 L 8 -3 C 10 -3 13 -1 14 0 S 15 1 16 2 L 16 13 C 16 15 18 15 18 13 S 18 8 19 8 S 20 10 20 11 S 21 11 21 11 C 22 10 21 6 19 6 C 18 6 18 7 18 3 C 22 5 26 4 30 0 C 31 -1 34 -3 36 -3 L 36 4 C 31 9 33 10 35 8 L 36 7 C 37 6 38 7 38 7 L 40 9 C 43 12 43 9 38 4 L 38 -3 C 40 -3 43 -1 44 0 C 46 2 46 2 46 2 L 46 10 C 46 12 46 12 49 12 C 51 12 51 10 49 10 C 48 10 48 10 48 3 C 52 5 56 4 60 0" fill="none" stroke="black" />
</svg>