<svg width="100" height="100"  viewBox="0 -20 70 40" xmlns="http://www.w3.org/2000/svg">
  <path d="M 0 0 C 3 -1 3 -1 6 -3 L 6 6 C 6 7 6 7 5 7 C 3 7 3 9 5 9 L 6 9 C 8 9 8 9 8 7 L 8 -4 C 11 -4 8 0 14 0 C 16 0 17 -1 17 -1 L 17 8 C 17 10 19 10 19 8 C 19 5 19 3 20 3 S 21 4 21 5 C 21 7 22 6 22 6 C 23 3 22 1 20 1 C 19 1 19 2 19 -2 C 26 -7 22 0 28 0 C 31 -1 31 -1 34 -3 L 34 3 C 29 7 30 9 32 7 L 34 5 C 35 4 36 5 37 6 L 39 8 C 41 10 43 8 36 3 L 36 -4 C 39 -4 36 0 42 0 C 44 0 45 -1 45 -1 L 45 6 C 45 8 45 8 47 8 C 50 8 50 6 47 6 C 47 6 47 6 47 -2 C 54 -7 50 0 56 0"
fill="none" stroke="black" />
</svg>