<svg width="100" height="100"  viewBox="0 -20 70 40" xmlns="http://www.w3.org/2000/svg">
  <path d="M 0 0 C 2 0 3 -1 5 -2 L 5 5 C 5 7 5 7 4 7 C 2 7 2 9 4 9 L 5 9 C 7 9 7 9 7 7 L 7 -3 C 12 -5 16 -5 20 -5 C 18 -3 17 0 18 0 C 20 0 21 -1 23 -2 L 23 8 C 23 10 25 10 25 8 C 25 5 25 3 26 3 C 27 3 27 4 27 5 C 27 7 28 6 28 6 C 29 3 28 1 26 1 C 25 1 25 2 25 0 L 25 -3 C 30 -5 34 -5 38 -5 C 36 -3 35 0 36 0 C 38 0 40 -1 42 -2 L 42 3 C 37 7 38 9 40 7 L 42 5 C 43 4 44 5 45 6 L 47 8 C 49 10 51 8 44 3 L 44 -3 C 49 -5 53 -5 57 -5 C 55 -3 54 0 55 0 C 57 0 58 -1 60 -2 L 60 6 C 60 8 60 8 63 8 C 65 8 65 6 62 6 C 62 6 62 6 62 -3 C 67 -5 71 -5 75 -5 C 73 -3 72 0 73 0" fill="none" stroke="black" />
</svg>