<svg width="100" height="100"  viewBox="0 -20 70 40" xmlns="http://www.w3.org/2000/svg">
  <path d="M 0 0 C 5 0 10 -5 13 -5 C 16 -5 15 -4 15 -4 C 13 -1 15 0 17 0 L 17 7 C 17 9 17 9 16 9 C 14 9 14 11 16 11 L 17 11 C 19 11 19 11 19 9 L 19 0 C 24 0 29 -5 32 -5 C 35 -5 34 -4 34 -4 C 32 -1 34 0 36 0 L 36 10 C 36 12 38 12 38 10 C 38 7 38 5 39 5 C 40 5 40 6 40 7 C 40 9 41 8 41 8 C 42 5 41 3 39 3 C 38 3 38 4 38 2 L 38 0 C 43 0 47 -5 50 -5 C 53 -5 52 -4 52 -4 C 50 -1 52 0 54 0 L 54 5 C 49 9 50 11 52 9 L 54 7 C 55 6 56 7 57 8 L 59 10 C 61 12 63 10 56 5 L 56 0 C 61 0 65 -5 68 -5 C 71 -5 70 -4 70 -4 C 68 -1 70 0 72 0 L 72 8 C 72 10 72 10 75 10 C 77 10 77 8 74 8 C 74 8 74 8 74 0
" fill="none" stroke="black" />
</svg>
