<svg width="100" height="100" transform="scale(4,2.5)" viewBox="0 -20 70 40" xmlns="http://www.w3.org/2000/svg">
  <path d="M 0 0 C 2 -2 6 0 6 0 L 6 8 C 2 8 2 10 6 10 C 8 10 8 10 8 6 L 8 0 C 12 -2 14 0 16 0 C 16 20 18 18 18 8 C 20 8 20 8 20 10 C 20 14 20 8 20 6 C 18 6 18 6 18 4 L 18 0 C 22 -4 28 4 32 -2 L 32 6 C 28 12 28 14 30 12 C 34 6 34 8 36 10 C 40 16 40 14 40 14 C 40 8 32 6 34 4 L 34 0 C 40 2 40 -4 50 2 L 50 12 C 50 16 50 16 52 16 L 56 16 C 60 16 60 14 56 14 C 52 16 52 12 52 8 L 52 2 C 54 2 54 2 58 0" fill="none" stroke="black" />
</svg>
