<svg width="200" height="100" viewBox="0 -20 140 40" xmlns="http://www.w3.org/2000/svg" overflow="visible">
  <path d="M 0 0 C 10 0 18 -8 22 -8 C 28 -8 26 -6 26 -6 C 22 -2 26 0 30 0 L 30 22 C 30 24 33 24 33 22 L 33 0 C 43 0 50 -8 54 -8 C 60 -8 60 -6 58 -6 C 54 -2 60 0 60 0 L 60 14 C 60 16 63 16 63 14 L 63 0" fill="none" stroke="black" />
  <path transform="translate(63, 0)" d="M 0 0 C 10 0 18 -8 22 -8 C 28 -8 26 -6 26 -6 C 22 -2 26 0 30 0 L 30 22 C 30 24 33 24 33 22 L 33 0 C 43 0 50 -8 54 -8 C 60 -8 60 -6 58 -6 C 54 -2 60 0 60 0 L 60 14 C 60 16 63 16 63 14 L 63 0" fill="none" stroke="black" />
</svg>
