<svg width="400" height="100" transform="scale(1.5,1.8)" viewBox="0 -20 140 40" xmlns="http://www.w3.org/2000/svg" overflow="visible">
  <path d="M 80 0 C 70 4 76 -4 76 -6 C 58 -8 52 -4 52 -4 L 52 16 C 52 19 49 19 49 16 L 49 -3 C 46 -2 45 -1 39 0 C 29 4 35 -4 35 -6 C 19 -8 13 -4 13 -4 L 13 8 C 13 11 10 11 10 8 L 10 -3 C 7 -2 6 -1 0 0 L 0 0" fill="none" stroke="black" />
  <path transform="translate(80, 0)" d="M 80 0 C 70 4 76 -4 76 -6 C 58 -8 52 -4 52 -4 L 52 16 C 52 19 49 19 49 16 L 49 -3 C 46 -2 45 -1 39 0 C 29 4 35 -4 35 -6 C 19 -8 13 -4 13 -4 L 13 8 C 13 11 10 11 10 8 L 10 -3 C 7 -2 6 -1 0 0 L 0 0" fill="none" stroke="black" />
</svg>
