<svg width="400" height="100" viewBox="0 -20 120 60" xmlns="http://www.w3.org/2000/svg" overflow="visible">
   <path d="M 0 0 C 0 0 6 -2 6 -2 
           L 6 13 
           C 6 16 9 16 9 13 
           L 9 -2 
           C 12 2 12 2 21 0 
           L 21 23 
           C 21 26 24 26 24 23 
           L 24 0 
           C 31 2 34 3 38 0 
           C 40 -3 45 4 45 9 
           C 45 17 46 17 47 18 
           L 47 36 
           C 47 39 50 39 50 36 
           L 50 20 
           C 53 29 56 29 62 31 
           C 69 33 76 32 79 24 
           C 85 18 80 13 91 3 
           L 91 14 
           C 91 17 94 17 94 14 
           L 94 3 
           C 97 1 97 2 100 0" 
        fill="none" stroke="black" />
</svg>
