<svg width="400" height="100" overflow="visible" transform="scale(1.5,1)" xmlns="http://www.w3.org/2000/svg">
    <path transform="translate(40, 0)" d="M 34 -3 M 0 0 C 2 -2 4 0 4 2 L 4 13 C 4 15 7 15 7 13 L 7 2 L 9 1 C 12 -1 13 -1 16 0 C 17 1 19 1 20 2 L 20 19 C 20 22 23 22 23 19 L 23 2 C 23 1 26 0 27 0 C 28 -1 28 3 31 3 C 34 2 35 1 36 -1 C 38 -5 38 -5 42 -2 L 42 11 C 42 14 45 14 45 11 L 45 -2 C 46 -2 48 1 50 -2 C 54 -6 53 1 58 1 L 58 25 C 58 28 61 28 61 25 L 61 1 C 62 1 63 0 64 0" fill="none" stroke="black" />
</svg>
