<svg width="400" height="100" overflow="visible" transform="scale(1.8,1.2)" viewBox="0 0 64 25" xmlns="http://www.w3.org/2000/svg">
  <path d="M 64 0 C 63 0 62 1 61 1 L 61 25 C 61 28 58 28 58 25 L 58 1 C 53 1 54 -2 50 -1 C 48 0 46 -2 45 -2 L 45 11 C 45 14 42 14 42 11 L 42 -2 C 40 0 40 0 37 1 C 35 2 33 2 31 1 C 30 1 28 0 27 0 C 26 0 23 1 23 2 L 23 19 C 23 22 20 22 20 19 L 20 2 C 19 1 18 0 16 0 C 13 0 12 -1 9 1 L 7 2 L 7 13 C 7 15 4 15 4 13 L 4 2 C 4 0 2 -1 0 0" fill="none" stroke="black"/>
</svg>
