<?xml version="1.0" encoding="UTF-8" standalone="no"?>
<!-- Created with Inkscape (http://www.inkscape.org/) -->

<svg
   version="1.1"
   id="svg1"
   width="11.67859"
   height="21.213789"
   viewBox="0 0 11.67859 21.213789"
   xmlns="http://www.w3.org/2000/svg"
   xmlns:svg="http://www.w3.org/2000/svg">
  <defs
     id="defs1">
    <clipPath
       clipPathUnits="userSpaceOnUse"
       id="clipPath76">
      <path
         d="M 14,14 H 598 V 778 H 14 Z"
         transform="translate(-200.97501,-632.08402)"
         id="path76" />
    </clipPath>
  </defs>
  <g
     id="g1"
     style="display:inline"
     transform="translate(-261.41734,-201.79554)">
    <g
       id="g617">
      <path
         id="path75"
         d="m 0,0 c 0.178,0.051 0.365,0.078 0.557,0.078 1.393,0 3.156,-2.042 3.109,-3.758 -0.046,-1.719 -1.345,-3.481 -3.897,-3.481 -2.552,0 -4.501,1.623 -4.501,4.641 0,3.018 4.176,6.638 4.548,7.239 0.369,0.604 0.601,2.32 -0.883,3.712 0,0 1.641,-1.366 2.089,-3.062 C 1.625,3.089 1.071,0.976 0.483,0.491 Z"
         style="fill:#ffffff;fill-opacity:1;fill-rule:nonzero;stroke:#000000;stroke-width:0.36;stroke-linecap:butt;stroke-linejoin:miter;stroke-miterlimit:4;stroke-dasharray:none;stroke-opacity:1"
         transform="matrix(1.3333333,0,0,-1.3333333,267.96667,213.22133)"
         clip-path="url(#clipPath76)" />
    </g>
  </g>
</svg>
