<?xml version="1.0" encoding="UTF-8" standalone="no"?>
<!-- Created with Inkscape (http://www.inkscape.org/) -->

<svg
   version="1.1"
   id="svg1"
   width="19.944561"
   height="22.041153"
   viewBox="0 0 19.944561 22.041153"
   xmlns="http://www.w3.org/2000/svg"
   xmlns:svg="http://www.w3.org/2000/svg">
  <defs
     id="defs1">
    <clipPath
       clipPathUnits="userSpaceOnUse"
       id="clipPath186">
      <path
         d="M 14,14 H 598 V 778 H 14 Z"
         transform="translate(-195.577,-389.94201)"
         id="path186" />
    </clipPath>
  </defs>
  <g
     id="g1"
     style="display:inline"
     transform="translate(-258.55238,-535.75321)">
    <g
       id="g625">
      <path
         id="path185"
         d="m 0,0 -1.382,-1.435 2.377,-1.548 c 0,0 3.095,-1.883 3.979,-4.148 0.46,-1.174 0.553,-3.205 0.498,-3.978 -0.055,-0.771 -0.221,-4.753 -0.221,-4.753 l 1.769,-0.222 0.055,6.138 c 0,0 0.165,1.641 0.442,2.593 0.387,1.328 2.187,2.454 2.654,2.987 0.773,0.882 2.874,2.377 2.874,2.377 l -0.94,1.327 -3.262,-2.377 c 0,0 -1.437,-1.493 -2.597,-1.493 -1.161,0 -1.547,0.665 -2.101,1.161 C 3.593,-2.873 0,0 0,0 Z"
         style="fill:#ffffff;fill-opacity:1;fill-rule:nonzero;stroke:#000000;stroke-width:0.36;stroke-linecap:butt;stroke-linejoin:miter;stroke-miterlimit:4;stroke-dasharray:none;stroke-opacity:1"
         transform="matrix(1.3333333,0,0,-1.3333333,260.76933,536.07733)"
         clip-path="url(#clipPath186)" />
    </g>
  </g>
</svg>
