<?xml version="1.0" encoding="UTF-8" standalone="no"?>
<!-- Created with Inkscape (http://www.inkscape.org/) -->

<svg
   version="1.1"
   id="svg1"
   width="17.495729"
   height="21.802666"
   viewBox="0 0 17.495729 21.802666"
   xmlns="http://www.w3.org/2000/svg"
   xmlns:svg="http://www.w3.org/2000/svg">
  <defs
     id="defs1">
    <clipPath
       clipPathUnits="userSpaceOnUse"
       id="clipPath188">
      <path
         d="M 14,14 H 598 V 778 H 14 Z"
         transform="translate(-201.616,-345.45301)"
         id="path188" />
    </clipPath>
  </defs>
  <g
     id="g1"
     style="display:inline"
     transform="translate(-260.06809,-573.83333)">
    <g
       id="g626">
      <path
         id="path187"
         d="m 0,0 c 3.699,0.104 2.143,1.418 1.452,5.635 -0.691,4.217 1.313,4.941 1.313,4.941 1.054,0.41 2.187,0.565 2.522,1.119 0.336,0.555 1.386,2.559 1.009,2.674 C 5.919,14.484 5.247,12.436 4.69,12.107 4.133,11.779 2.002,10.6 1.772,10.992 c -0.229,0.393 2.296,4.1 1.295,4.311 -1,0.215 -2.049,-5.08 -2.541,-5.08 -0.492,0 0.41,5.769 -0.524,5.769 H -0.01 c -0.935,0 -0.033,-5.769 -0.524,-5.769 -0.493,0 -1.541,5.295 -2.542,5.08 -1,-0.211 1.525,-3.918 1.296,-4.311 -0.23,-0.392 -2.361,0.787 -2.918,1.115 -0.558,0.329 -1.23,2.377 -1.606,2.262 -0.377,-0.115 0.672,-2.119 1.008,-2.674 0.335,-0.554 1.469,-0.709 2.523,-1.119 0,0 2.004,-0.724 1.313,-4.941 C -2.152,1.418 -3.707,0.104 -0.008,0 Z"
         style="fill:#ffffff;fill-opacity:1;fill-rule:nonzero;stroke:#000000;stroke-width:0.36;stroke-linecap:butt;stroke-linejoin:miter;stroke-miterlimit:4;stroke-dasharray:none;stroke-opacity:1"
         transform="matrix(1.3333333,0,0,-1.3333333,268.82133,595.396)"
         clip-path="url(#clipPath188)" />
    </g>
  </g>
</svg>
