<?xml version="1.0" encoding="UTF-8" standalone="no"?>
<!-- Created with Inkscape (http://www.inkscape.org/) -->

<svg
   version="1.1"
   id="svg1"
   width="22.102667"
   height="22.112"
   viewBox="0 0 22.102667 22.112"
   xmlns="http://www.w3.org/2000/svg"
   xmlns:svg="http://www.w3.org/2000/svg">
  <defs
     id="defs1">
    <clipPath
       clipPathUnits="userSpaceOnUse"
       id="clipPath190">
      <path
         d="M 14,14 H 598 V 778 H 14 Z"
         transform="translate(-209.734,-325.89901)"
         id="path190" />
    </clipPath>
    <clipPath
       clipPathUnits="userSpaceOnUse"
       id="clipPath192">
      <path
         d="M 14,14 H 598 V 778 H 14 Z"
         transform="translate(-201.625,-333.96901)"
         id="path192" />
    </clipPath>
  </defs>
  <g
     id="g1"
     style="display:inline"
     transform="translate(-257.78266,-610.416)">
    <g
       id="g627">
      <path
         id="path189"
         d="m 0,0 c 0,-4.477 -3.629,-8.115 -8.109,-8.115 -4.478,0 -8.108,3.638 -8.108,8.115 0,4.479 3.63,8.109 8.108,8.109 C -3.629,8.109 0,4.479 0,0 Z"
         style="fill:#ffffff;fill-opacity:1;fill-rule:nonzero;stroke:#000000;stroke-width:0.36;stroke-linecap:butt;stroke-linejoin:miter;stroke-miterlimit:4;stroke-dasharray:none;stroke-opacity:1"
         transform="matrix(1.3333333,0,0,-1.3333333,279.64533,621.468)"
         clip-path="url(#clipPath190)" />
      <path
         id="path191"
         d="m 0,0 v -3.964 m 0,-8.251 v -3.962 m 2.317,5.79 3.393,-3.393 M -5.71,-2.361 -2.316,-5.757 M 8.071,-8.073 H 4.109 m -8.219,0 h -3.962 m 10.388,2.314 3.394,3.392 m -11.42,-11.418 3.394,3.395"
         style="fill:none;stroke:#000000;stroke-width:0.36;stroke-linecap:butt;stroke-linejoin:miter;stroke-miterlimit:4;stroke-dasharray:none;stroke-opacity:1"
         transform="matrix(1.3333333,0,0,-1.3333333,268.83333,610.708)"
         clip-path="url(#clipPath192)" />
    </g>
  </g>
</svg>
