<?xml version="1.0" encoding="UTF-8" standalone="no"?>
<!-- Created with Inkscape (http://www.inkscape.org/) -->

<svg
   version="1.1"
   id="svg1"
   width="21.64385"
   height="20.971762"
   viewBox="0 0 21.64385 20.971762"
   xmlns="http://www.w3.org/2000/svg"
   xmlns:svg="http://www.w3.org/2000/svg">
  <defs
     id="defs1" />
  <g
     id="g1"
     style="display:inline"
     transform="translate(-258.0454,-648.99068)">
    <g
       id="g689">
      <path
         d="m 258.18732,660.11188 c 2.00534,2.57067 5.71334,3.156 8.47334,1.54267 m 12.88666,-2.78933 c -2.00533,-2.57067 -5.71466,-3.15734 -8.47333,-1.54134 m -10.188,-4.868 c -0.4,3.23467 1.80933,6.27467 4.90133,7.08267 m 11.084,7.14133 c 0.4,-3.23866 -1.808,-6.276 -4.9,-7.084 m -10.192,7.85734 c 3.236,0.40266 6.27467,-1.80667 7.084,-4.9 m 7.13867,-11.084 c -3.23467,-0.40267 -6.27333,1.80666 -7.08133,4.9 m 0.628,-7.22134 c -2.84667,1.588 -3.992,5.16534 -2.82,8.13334 m 1.512,12.524 c 2.84666,-1.58667 3.992,-5.16534 2.82,-8.13734"
         style="fill:none;stroke:#000000;stroke-width:0.36;stroke-linecap:butt;stroke-linejoin:miter;stroke-miterlimit:4;stroke-dasharray:none;stroke-opacity:1"
         id="path1-1" />
    </g>
  </g>
</svg>
