<?xml version="1.0" encoding="UTF-8" standalone="no"?>
<!-- Created with Inkscape (http://www.inkscape.org/) -->

<svg
   version="1.1"
   id="svg1"
   width="22.424828"
   height="21.332319"
   viewBox="0 0 22.424828 21.332319"
   xmlns="http://www.w3.org/2000/svg"
   xmlns:svg="http://www.w3.org/2000/svg">
  <defs
     id="defs1">
    <clipPath
       clipPathUnits="userSpaceOnUse"
       id="clipPath194">
      <path
         d="M 14,14 H 598 V 778 H 14 Z"
         transform="translate(-201.646,-278.242)"
         id="path194" />
    </clipPath>
    <clipPath
       clipPathUnits="userSpaceOnUse"
       id="clipPath196">
      <path
         d="M 14,14 H 598 V 778 H 14 Z"
         transform="translate(-201.62601,-272.623)"
         id="path196" />
    </clipPath>
  </defs>
  <g
     id="g1"
     style="display:inline"
     transform="translate(-257.64766,-684.98597)">
    <g
       id="g628">
      <path
         id="path193"
         d="m 0,0 c 0,0 0.635,-6.137 1.491,-6.719 0.857,-0.584 6.85,0.657 6.85,0.657 0,0 -5.778,-2.332 -5.925,-3.495 -0.15,-1.162 2.74,-6.308 2.74,-6.308 0,0 -3.811,4.541 -5.156,4.553 -1.34,0.017 -5.156,-4.553 -5.156,-4.553 0,0 3.298,5.019 2.744,6.308 -0.554,1.292 -5.93,3.495 -5.93,3.495 0,0 5.987,-1.313 6.85,-0.657 C -0.625,-6.062 0,0 0,0 Z"
         style="fill:#ffffff;fill-opacity:1;fill-rule:nonzero;stroke:#000000;stroke-width:0.36;stroke-linecap:butt;stroke-linejoin:miter;stroke-miterlimit:4;stroke-dasharray:none;stroke-opacity:1"
         transform="matrix(1.3333333,0,0,-1.3333333,268.86133,685.01067)"
         clip-path="url(#clipPath194)" />
      <path
         id="path195"
         d="M 0,0 V -3.418 L -1.855,-5.863 M 1.977,-5.762 0,-3.418 -3.099,-2.234 M 3.246,-2.184 0,-3.418"
         style="fill:none;stroke:#000000;stroke-width:0.36;stroke-linecap:butt;stroke-linejoin:miter;stroke-miterlimit:4;stroke-dasharray:none;stroke-opacity:1"
         transform="matrix(1.3333333,0,0,-1.3333333,268.83467,692.50267)"
         clip-path="url(#clipPath196)" />
    </g>
  </g>
</svg>
