<?xml version="1.0" encoding="UTF-8" standalone="no"?>
<!-- Created with Inkscape (http://www.inkscape.org/) -->

<svg
   version="1.1"
   id="svg1"
   width="21.163872"
   height="6.6626434"
   viewBox="0 0 21.163872 6.6626434"
   xmlns="http://www.w3.org/2000/svg"
   xmlns:svg="http://www.w3.org/2000/svg">
  <defs
     id="defs1">
    <clipPath
       clipPathUnits="userSpaceOnUse"
       id="clipPath224">
      <path
         d="M 14,14 H 598 V 778 H 14 Z"
         transform="translate(-208.43301,-73.427004)"
         id="path224" />
    </clipPath>
    <clipPath
       clipPathUnits="userSpaceOnUse"
       id="clipPath226">
      <path
         d="M 14,14 H 598 V 778 H 14 Z"
         transform="translate(-204.56601,-74.955999)"
         id="path226" />
    </clipPath>
  </defs>
  <g
     id="g1"
     style="display:inline"
     transform="translate(-256.9868,-954.76534)">
    <g
       id="g672">
      <path
         id="path223"
         d="M 0,0 V -2.28 L -5.922,-1.139 -15.672,0 -5.922,1.14 0,2.281 Z"
         style="fill:#ffffff;fill-opacity:1;fill-rule:nonzero;stroke:#000000;stroke-width:0.36;stroke-linecap:butt;stroke-linejoin:miter;stroke-miterlimit:4;stroke-dasharray:none;stroke-opacity:1"
         transform="matrix(1.3333333,0,0,-1.3333333,277.91067,958.09733)"
         clip-path="url(#clipPath224)" />
      <path
         id="path225"
         d="M 0,0 -0.431,-1.531 0,-3.06 m -1.649,2.75 -0.428,-1.221 0.428,-1.213 m -1.647,2.207 -0.429,-0.994 0.429,-0.989 m -1.649,1.793 -0.429,-0.8 0.429,-0.801 m -1.648,1.408 -0.428,-0.611 0.428,-0.604 m -1.648,1.022 -0.429,-0.414 0.429,-0.414"
         style="fill:none;stroke:#000000;stroke-width:0.36;stroke-linecap:butt;stroke-linejoin:miter;stroke-miterlimit:4;stroke-dasharray:none;stroke-opacity:1"
         transform="matrix(1.3333333,0,0,-1.3333333,272.75467,956.05867)"
         clip-path="url(#clipPath226)" />
    </g>
  </g>
</svg>
