<?xml version="1.0" encoding="UTF-8" standalone="no"?>
<!-- Created with Inkscape (http://www.inkscape.org/) -->

<svg
   version="1.1"
   id="svg1"
   width="11.491671"
   height="21.580908"
   viewBox="0 0 11.491671 21.580908"
   xmlns="http://www.w3.org/2000/svg"
   xmlns:svg="http://www.w3.org/2000/svg">
  <defs
     id="defs1">
    <clipPath
       clipPathUnits="userSpaceOnUse"
       id="clipPath300">
      <path
         d="M 14,14 H 598 V 778 H 14 Z"
         transform="translate(-373.51801,-626.62802)"
         id="path300" />
    </clipPath>
    <clipPath
       clipPathUnits="userSpaceOnUse"
       id="clipPath302">
      <path
         d="M 14,14 H 598 V 778 H 14 Z"
         transform="translate(-370.63801,-626.00602)"
         id="path302" />
    </clipPath>
  </defs>
  <g
     id="g1"
     style="display:inline"
     transform="translate(-493.86033,-202.52306)">
    <g
       id="g631">
      <path
         id="path299"
         d="M 0,0 C 1.282,-0.043 1.816,-0.842 1.772,-1.507 1.726,-2.172 0.84,-2.57 -0.222,-2.522 c -1.063,0.043 -1.818,0.174 -2.482,1.281 -0.665,1.108 0.179,5.363 1.064,8.064 0.886,2.701 2.701,6.202 3.323,6.466 C 2.303,13.554 2.168,9.567 3.009,7.352 3.854,5.137 5.316,3.058 5.316,2.747 5.316,2.081 3.719,1.243 3.322,0.843 2.923,0.443 2.567,0.221 1.726,-1.019"
         style="fill:#ffffff;fill-opacity:1;fill-rule:nonzero;stroke:#000000;stroke-width:0.36;stroke-linecap:butt;stroke-linejoin:miter;stroke-miterlimit:4;stroke-dasharray:none;stroke-opacity:1"
         transform="matrix(1.3333333,0,0,-1.3333333,498.024,220.496)"
         clip-path="url(#clipPath300)" />
      <path
         id="path301"
         d="M 0,0 C 0.235,1.167 2.324,1.883 3.366,2.291 4.578,2.763 5.907,3.266 8.018,3.147 M 0.044,1.865 C 0.325,2.851 1.742,3.649 2.006,3.738 2.274,3.825 3.09,4.215 4.281,4.534 5.491,4.861 6.202,4.95 7.294,4.888 m -6.91,-0.62 c 0.473,1.005 1.595,1.506 1.947,1.655 0.355,0.15 1.145,0.483 1.744,0.593 0.973,0.175 1.416,0.265 2.393,0.058 M 1.18,7.252 C 1.595,7.871 2.865,8.492 3.366,8.61 3.869,8.731 4.755,8.936 5.641,8.698 M 2.509,10.56 c 0.503,0.56 1.063,0.619 1.36,0.619 0.293,0 0.915,0.031 1.33,-0.09"
         style="fill:none;stroke:#000000;stroke-width:0.36;stroke-linecap:butt;stroke-linejoin:miter;stroke-miterlimit:4;stroke-dasharray:none;stroke-opacity:1"
         transform="matrix(1.3333333,0,0,-1.3333333,494.184,221.32533)"
         clip-path="url(#clipPath302)" />
    </g>
  </g>
</svg>
