<?xml version="1.0" encoding="UTF-8" standalone="no"?>
<!-- Created with Inkscape (http://www.inkscape.org/) -->

<svg
   version="1.1"
   id="svg1"
   width="21.861469"
   height="15.090258"
   viewBox="0 0 21.861469 15.090258"
   xmlns="http://www.w3.org/2000/svg"
   xmlns:svg="http://www.w3.org/2000/svg">
  <defs
     id="defs1">
    <clipPath
       clipPathUnits="userSpaceOnUse"
       id="clipPath304">
      <path
         d="M 14,14 H 598 V 778 H 14 Z"
         transform="translate(-366.15701,-602.36402)"
         id="path304" />
    </clipPath>
    <clipPath
       clipPathUnits="userSpaceOnUse"
       id="clipPath306">
      <path
         d="M 14,14 H 598 V 778 H 14 Z"
         transform="translate(-368.48801,-605.48102)"
         id="path306" />
    </clipPath>
  </defs>
  <g
     id="g1"
     style="display:inline"
     transform="translate(-487.9325,-242.66404)">
    <g
       id="g632">
      <path
         id="path303"
         d="m 0,0 c -0.369,-0.953 3.14,-4.488 8.391,-3.234 5.25,1.254 8.057,3.965 7.562,6.971 C 15.457,6.74 11.23,7.602 10.735,7.436 10.239,7.269 3.14,4.133 2.311,3.108 1.489,2.084 0.399,1.026 0,0 Z"
         style="fill:#ffffff;fill-opacity:1;fill-rule:nonzero;stroke:#000000;stroke-width:0.36;stroke-linecap:butt;stroke-linejoin:miter;stroke-miterlimit:4;stroke-dasharray:none;stroke-opacity:1"
         transform="matrix(1.3333333,0,0,-1.3333333,488.20933,252.848)"
         clip-path="url(#clipPath304)" />
      <path
         id="path305"
         d="m 0,0 c -0.567,-1.166 -1.275,-4.236 1.798,-4.699 3.072,-0.461 6.673,-0.033 8.425,1.254 1.746,1.287 3.402,2.861 3.269,4.582 M 3.16,1.903 C 2.399,0.813 1.832,-1 3.052,-1.662 c 1.221,-0.658 4.065,-1.056 6.542,0.563 2.478,1.619 3.121,2.76 2.992,3.65 M 5.475,3.02 C 4.98,2.358 4.11,0.582 5.166,0.024 c 1.058,-0.563 3.005,-0.529 4.46,0.428 1.45,0.959 2.059,2.105 1.926,2.9 M 7.341,3.862 C 6.879,3.134 6.918,1.774 8.175,1.741 9.428,1.709 11.044,2.565 10.848,3.723"
         style="fill:none;stroke:#000000;stroke-width:0.36;stroke-linecap:butt;stroke-linejoin:miter;stroke-miterlimit:4;stroke-dasharray:none;stroke-opacity:1"
         transform="matrix(1.3333333,0,0,-1.3333333,491.31733,248.692)"
         clip-path="url(#clipPath306)" />
    </g>
  </g>
</svg>
