<?xml version="1.0" encoding="UTF-8" standalone="no"?>
<!-- Created with Inkscape (http://www.inkscape.org/) -->

<svg
   version="1.1"
   id="svg1"
   width="22.353971"
   height="20.659771"
   viewBox="0 0 22.353971 20.659771"
   xmlns="http://www.w3.org/2000/svg"
   xmlns:svg="http://www.w3.org/2000/svg">
  <defs
     id="defs1">
    <clipPath
       clipPathUnits="userSpaceOnUse"
       id="clipPath308">
      <path
         d="M 14,14 H 598 V 778 H 14 Z"
         transform="translate(-372.38901,-569.86901)"
         id="path308" />
    </clipPath>
    <clipPath
       clipPathUnits="userSpaceOnUse"
       id="clipPath310">
      <path
         d="M 14,14 H 598 V 778 H 14 Z"
         transform="translate(-381.49301,-583.62301)"
         id="path310" />
    </clipPath>
    <clipPath
       clipPathUnits="userSpaceOnUse"
       id="clipPath312">
      <path
         d="M 14,14 H 598 V 778 H 14 Z"
         transform="translate(-374.79901,-582.86902)"
         id="path312" />
    </clipPath>
    <clipPath
       clipPathUnits="userSpaceOnUse"
       id="clipPath314">
      <path
         d="M 14,14 H 598 V 778 H 14 Z"
         transform="translate(-369.66501,-579.97301)"
         id="path314" />
    </clipPath>
    <clipPath
       clipPathUnits="userSpaceOnUse"
       id="clipPath316">
      <path
         d="M 14,14 H 598 V 778 H 14 Z"
         transform="translate(-367.39901,-575.12701)"
         id="path316" />
    </clipPath>
    <clipPath
       clipPathUnits="userSpaceOnUse"
       id="clipPath450">
      <path
         d="M 14,14 H 598 V 778 H 14 Z"
         transform="translate(-373.61401,-570.64601)"
         id="path450" />
    </clipPath>
    <clipPath
       clipPathUnits="userSpaceOnUse"
       id="clipPath452">
      <path
         d="M 14,14 H 598 V 778 H 14 Z"
         transform="translate(-372.34101,-571.56901)"
         id="path452" />
    </clipPath>
    <clipPath
       clipPathUnits="userSpaceOnUse"
       id="clipPath454">
      <path
         d="M 14,14 H 598 V 778 H 14 Z"
         transform="translate(-372.17501,-572.54602)"
         id="path454" />
    </clipPath>
    <clipPath
       clipPathUnits="userSpaceOnUse"
       id="clipPath456">
      <path
         d="M 14,14 H 598 V 778 H 14 Z"
         transform="translate(-372.66901,-570.64601)"
         id="path456" />
    </clipPath>
    <clipPath
       clipPathUnits="userSpaceOnUse"
       id="clipPath458">
      <path
         d="M 14,14 H 598 V 778 H 14 Z"
         transform="translate(-370.61201,-572.86201)"
         id="path458" />
    </clipPath>
    <clipPath
       clipPathUnits="userSpaceOnUse"
       id="clipPath460">
      <path
         d="M 14,14 H 598 V 778 H 14 Z"
         transform="translate(-371.38901,-572.12101)"
         id="path460" />
    </clipPath>
    <clipPath
       clipPathUnits="userSpaceOnUse"
       id="clipPath462">
      <path
         d="M 14,14 H 598 V 778 H 14 Z"
         transform="translate(-373.29701,-571.68701)"
         id="path462" />
    </clipPath>
    <clipPath
       clipPathUnits="userSpaceOnUse"
       id="clipPath464">
      <path
         d="M 14,14 H 598 V 778 H 14 Z"
         transform="translate(-370.44301,-576.24601)"
         id="path464" />
    </clipPath>
    <clipPath
       clipPathUnits="userSpaceOnUse"
       id="clipPath466">
      <path
         d="M 14,14 H 598 V 778 H 14 Z"
         transform="translate(-375.08601,-570.86701)"
         id="path466" />
    </clipPath>
    <clipPath
       clipPathUnits="userSpaceOnUse"
       id="clipPath468">
      <path
         d="M 14,14 H 598 V 778 H 14 Z"
         transform="translate(-370.28401,-578.95801)"
         id="path468" />
    </clipPath>
    <clipPath
       clipPathUnits="userSpaceOnUse"
       id="clipPath470">
      <path
         d="M 14,14 H 598 V 778 H 14 Z"
         transform="translate(-370.28301,-574.75501)"
         id="path470" />
    </clipPath>
    <clipPath
       clipPathUnits="userSpaceOnUse"
       id="clipPath472">
      <path
         d="M 14,14 H 598 V 778 H 14 Z"
         transform="translate(-370.85001,-574.86202)"
         id="path472" />
    </clipPath>
    <clipPath
       clipPathUnits="userSpaceOnUse"
       id="clipPath474">
      <path
         d="M 14,14 H 598 V 778 H 14 Z"
         transform="translate(-371.64401,-573.33401)"
         id="path474" />
    </clipPath>
    <clipPath
       clipPathUnits="userSpaceOnUse"
       id="clipPath476">
      <path
         d="M 14,14 H 598 V 778 H 14 Z"
         transform="translate(-370.95601,-573.53302)"
         id="path476" />
    </clipPath>
    <clipPath
       clipPathUnits="userSpaceOnUse"
       id="clipPath478">
      <path
         d="M 14,14 H 598 V 778 H 14 Z"
         transform="translate(-369.84701,-575.83501)"
         id="path478" />
    </clipPath>
    <clipPath
       clipPathUnits="userSpaceOnUse"
       id="clipPath480">
      <path
         d="M 14,14 H 598 V 778 H 14 Z"
         transform="translate(-368.56601,-576.17602)"
         id="path480" />
    </clipPath>
    <clipPath
       clipPathUnits="userSpaceOnUse"
       id="clipPath482">
      <path
         d="M 14,14 H 598 V 778 H 14 Z"
         transform="translate(-369.20201,-575.18302)"
         id="path482" />
    </clipPath>
    <clipPath
       clipPathUnits="userSpaceOnUse"
       id="clipPath484">
      <path
         d="M 14,14 H 598 V 778 H 14 Z"
         transform="translate(-369.93901,-574.04602)"
         id="path484" />
    </clipPath>
    <clipPath
       clipPathUnits="userSpaceOnUse"
       id="clipPath486">
      <path
         d="M 14,14 H 598 V 778 H 14 Z"
         transform="translate(-368.26701,-575.21701)"
         id="path486" />
    </clipPath>
    <clipPath
       clipPathUnits="userSpaceOnUse"
       id="clipPath488">
      <path
         d="M 14,14 H 598 V 778 H 14 Z"
         transform="translate(-374.96201,-572.15602)"
         id="path488" />
    </clipPath>
    <clipPath
       clipPathUnits="userSpaceOnUse"
       id="clipPath490">
      <path
         d="M 14,14 H 598 V 778 H 14 Z"
         transform="translate(-370.46101,-577.41502)"
         id="path490" />
    </clipPath>
    <clipPath
       clipPathUnits="userSpaceOnUse"
       id="clipPath492">
      <path
         d="M 14,14 H 598 V 778 H 14 Z"
         transform="translate(-374.90701,-581.72902)"
         id="path492" />
    </clipPath>
    <clipPath
       clipPathUnits="userSpaceOnUse"
       id="clipPath494">
      <path
         d="M 14,14 H 598 V 778 H 14 Z"
         transform="translate(-382.70501,-581.82001)"
         id="path494" />
    </clipPath>
    <clipPath
       clipPathUnits="userSpaceOnUse"
       id="clipPath496">
      <path
         d="M 14,14 H 598 V 778 H 14 Z"
         transform="translate(-381.29301,-582.29302)"
         id="path496" />
    </clipPath>
    <clipPath
       clipPathUnits="userSpaceOnUse"
       id="clipPath498">
      <path
         d="M 14,14 H 598 V 778 H 14 Z"
         transform="translate(-380.70301,-581.28401)"
         id="path498" />
    </clipPath>
    <clipPath
       clipPathUnits="userSpaceOnUse"
       id="clipPath500">
      <path
         d="M 14,14 H 598 V 778 H 14 Z"
         transform="translate(-381.78601,-581.59301)"
         id="path500" />
    </clipPath>
    <clipPath
       clipPathUnits="userSpaceOnUse"
       id="clipPath502">
      <path
         d="M 14,14 H 598 V 778 H 14 Z"
         transform="translate(-382.65101,-580.77701)"
         id="path502" />
    </clipPath>
    <clipPath
       clipPathUnits="userSpaceOnUse"
       id="clipPath504">
      <path
         d="M 14,14 H 598 V 778 H 14 Z"
         transform="translate(-380.78501,-580.26802)"
         id="path504" />
    </clipPath>
    <clipPath
       clipPathUnits="userSpaceOnUse"
       id="clipPath506">
      <path
         d="M 14,14 H 598 V 778 H 14 Z"
         transform="translate(-381.98701,-580.02601)"
         id="path506" />
    </clipPath>
    <clipPath
       clipPathUnits="userSpaceOnUse"
       id="clipPath508">
      <path
         d="M 14,14 H 598 V 778 H 14 Z"
         transform="translate(-379.42701,-578.19901)"
         id="path508" />
    </clipPath>
    <clipPath
       clipPathUnits="userSpaceOnUse"
       id="clipPath510">
      <path
         d="M 14,14 H 598 V 778 H 14 Z"
         transform="translate(-379.76501,-579.41101)"
         id="path510" />
    </clipPath>
    <clipPath
       clipPathUnits="userSpaceOnUse"
       id="clipPath512">
      <path
         d="M 14,14 H 598 V 778 H 14 Z"
         transform="translate(-376.76401,-573.46801)"
         id="path512" />
    </clipPath>
    <clipPath
       clipPathUnits="userSpaceOnUse"
       id="clipPath514">
      <path
         d="M 14,14 H 598 V 778 H 14 Z"
         transform="translate(-381.22201,-577.67701)"
         id="path514" />
    </clipPath>
    <clipPath
       clipPathUnits="userSpaceOnUse"
       id="clipPath516">
      <path
         d="M 14,14 H 598 V 778 H 14 Z"
         transform="translate(-377.25601,-574.69901)"
         id="path516" />
    </clipPath>
    <clipPath
       clipPathUnits="userSpaceOnUse"
       id="clipPath518">
      <path
         d="M 14,14 H 598 V 778 H 14 Z"
         transform="translate(-379.11401,-576.08801)"
         id="path518" />
    </clipPath>
    <clipPath
       clipPathUnits="userSpaceOnUse"
       id="clipPath520">
      <path
         d="M 14,14 H 598 V 778 H 14 Z"
         transform="translate(-380.27001,-576.63502)"
         id="path520" />
    </clipPath>
    <clipPath
       clipPathUnits="userSpaceOnUse"
       id="clipPath522">
      <path
         d="M 14,14 H 598 V 778 H 14 Z"
         transform="translate(-377.71201,-573.77002)"
         id="path522" />
    </clipPath>
    <clipPath
       clipPathUnits="userSpaceOnUse"
       id="clipPath524">
      <path
         d="M 14,14 H 598 V 778 H 14 Z"
         transform="translate(-379.02801,-574.77202)"
         id="path524" />
    </clipPath>
    <clipPath
       clipPathUnits="userSpaceOnUse"
       id="clipPath526">
      <path
         d="M 14,14 H 598 V 778 H 14 Z"
         transform="translate(-378.50001,-577.68101)"
         id="path526" />
    </clipPath>
    <clipPath
       clipPathUnits="userSpaceOnUse"
       id="clipPath528">
      <path
         d="M 14,14 H 598 V 778 H 14 Z"
         transform="translate(-375.81501,-571.60001)"
         id="path528" />
    </clipPath>
    <clipPath
       clipPathUnits="userSpaceOnUse"
       id="clipPath530">
      <path
         d="M 14,14 H 598 V 778 H 14 Z"
         transform="translate(-376.54501,-572.35102)"
         id="path530" />
    </clipPath>
    <clipPath
       clipPathUnits="userSpaceOnUse"
       id="clipPath532">
      <path
         d="M 14,14 H 598 V 778 H 14 Z"
         transform="translate(-379.33901,-577.11502)"
         id="path532" />
    </clipPath>
    <clipPath
       clipPathUnits="userSpaceOnUse"
       id="clipPath534">
      <path
         d="M 14,14 H 598 V 778 H 14 Z"
         transform="translate(-382.07601,-578.84602)"
         id="path534" />
    </clipPath>
    <clipPath
       clipPathUnits="userSpaceOnUse"
       id="clipPath536">
      <path
         d="M 14,14 H 598 V 778 H 14 Z"
         transform="translate(-378.20201,-575.09002)"
         id="path536" />
    </clipPath>
    <clipPath
       clipPathUnits="userSpaceOnUse"
       id="clipPath538">
      <path
         d="M 14,14 H 598 V 778 H 14 Z"
         transform="translate(-374.84801,-579.57401)"
         id="path538" />
    </clipPath>
    <clipPath
       clipPathUnits="userSpaceOnUse"
       id="clipPath540">
      <path
         d="M 14,14 H 598 V 778 H 14 Z"
         transform="translate(-381.17301,-579.22102)"
         id="path540" />
    </clipPath>
    <clipPath
       clipPathUnits="userSpaceOnUse"
       id="clipPath542">
      <path
         d="M 14,14 H 598 V 778 H 14 Z"
         transform="translate(-380.32501,-578.10901)"
         id="path542" />
    </clipPath>
    <clipPath
       clipPathUnits="userSpaceOnUse"
       id="clipPath544">
      <path
         d="M 14,14 H 598 V 778 H 14 Z"
         transform="translate(-374.41001,-578.44601)"
         id="path544" />
    </clipPath>
    <clipPath
       clipPathUnits="userSpaceOnUse"
       id="clipPath546">
      <path
         d="M 14,14 H 598 V 778 H 14 Z"
         transform="translate(-373.55801,-577.93001)"
         id="path546" />
    </clipPath>
    <clipPath
       clipPathUnits="userSpaceOnUse"
       id="clipPath548">
      <path
         d="M 14,14 H 598 V 778 H 14 Z"
         transform="translate(-375.76501,-570.37601)"
         id="path548" />
    </clipPath>
    <clipPath
       clipPathUnits="userSpaceOnUse"
       id="clipPath550">
      <path
         d="M 14,14 H 598 V 778 H 14 Z"
         transform="translate(-373.61201,-579.19201)"
         id="path550" />
    </clipPath>
    <clipPath
       clipPathUnits="userSpaceOnUse"
       id="clipPath552">
      <path
         d="M 14,14 H 598 V 778 H 14 Z"
         transform="translate(-375.85901,-580.04501)"
         id="path552" />
    </clipPath>
    <clipPath
       clipPathUnits="userSpaceOnUse"
       id="clipPath554">
      <path
         d="M 14,14 H 598 V 778 H 14 Z"
         transform="translate(-375.52901,-578.86901)"
         id="path554" />
    </clipPath>
    <clipPath
       clipPathUnits="userSpaceOnUse"
       id="clipPath556">
      <path
         d="M 14,14 H 598 V 778 H 14 Z"
         transform="translate(-373.18301,-576.66202)"
         id="path556" />
    </clipPath>
    <clipPath
       clipPathUnits="userSpaceOnUse"
       id="clipPath558">
      <path
         d="M 14,14 H 598 V 778 H 14 Z"
         transform="translate(-374.26801,-575.73101)"
         id="path558" />
    </clipPath>
    <clipPath
       clipPathUnits="userSpaceOnUse"
       id="clipPath560">
      <path
         d="M 14,14 H 598 V 778 H 14 Z"
         transform="translate(-374.18501,-577.00702)"
         id="path560" />
    </clipPath>
    <clipPath
       clipPathUnits="userSpaceOnUse"
       id="clipPath562">
      <path
         d="M 14,14 H 598 V 778 H 14 Z"
         transform="translate(-375.04401,-577.66102)"
         id="path562" />
    </clipPath>
    <clipPath
       clipPathUnits="userSpaceOnUse"
       id="clipPath564">
      <path
         d="M 14,14 H 598 V 778 H 14 Z"
         transform="translate(-375.52401,-572.68402)"
         id="path564" />
    </clipPath>
    <clipPath
       clipPathUnits="userSpaceOnUse"
       id="clipPath566">
      <path
         d="M 14,14 H 598 V 778 H 14 Z"
         transform="translate(-374.97801,-576.35501)"
         id="path566" />
    </clipPath>
    <clipPath
       clipPathUnits="userSpaceOnUse"
       id="clipPath568">
      <path
         d="M 14,14 H 598 V 778 H 14 Z"
         transform="translate(-374.79701,-573.28801)"
         id="path568" />
    </clipPath>
    <clipPath
       clipPathUnits="userSpaceOnUse"
       id="clipPath570">
      <path
         d="M 14,14 H 598 V 778 H 14 Z"
         transform="translate(-374.87801,-574.87001)"
         id="path570" />
    </clipPath>
    <clipPath
       clipPathUnits="userSpaceOnUse"
       id="clipPath572">
      <path
         d="M 14,14 H 598 V 778 H 14 Z"
         transform="translate(-378.24701,-576.28801)"
         id="path572" />
    </clipPath>
    <clipPath
       clipPathUnits="userSpaceOnUse"
       id="clipPath574">
      <path
         d="M 14,14 H 598 V 778 H 14 Z"
         transform="translate(-373.95101,-574.50001)"
         id="path574" />
    </clipPath>
    <clipPath
       clipPathUnits="userSpaceOnUse"
       id="clipPath576">
      <path
         d="M 14,14 H 598 V 778 H 14 Z"
         transform="translate(-373.39401,-575.52802)"
         id="path576" />
    </clipPath>
    <clipPath
       clipPathUnits="userSpaceOnUse"
       id="clipPath578">
      <path
         d="M 14,14 H 598 V 778 H 14 Z"
         transform="translate(-373.99001,-573.15202)"
         id="path578" />
    </clipPath>
    <clipPath
       clipPathUnits="userSpaceOnUse"
       id="clipPath580">
      <path
         d="M 14,14 H 598 V 778 H 14 Z"
         transform="translate(-374.52201,-570.59002)"
         id="path580" />
    </clipPath>
    <clipPath
       clipPathUnits="userSpaceOnUse"
       id="clipPath582">
      <path
         d="M 14,14 H 598 V 778 H 14 Z"
         transform="translate(-374.27301,-571.84001)"
         id="path582" />
    </clipPath>
    <clipPath
       clipPathUnits="userSpaceOnUse"
       id="clipPath584">
      <path
         d="M 14,14 H 598 V 778 H 14 Z"
         transform="translate(-375.36601,-580.88602)"
         id="path584" />
    </clipPath>
    <clipPath
       clipPathUnits="userSpaceOnUse"
       id="clipPath586">
      <path
         d="M 14,14 H 598 V 778 H 14 Z"
         transform="translate(-374.32701,-580.33901)"
         id="path586" />
    </clipPath>
    <clipPath
       clipPathUnits="userSpaceOnUse"
       id="clipPath588">
      <path
         d="M 14,14 H 598 V 778 H 14 Z"
         transform="translate(-376.36201,-581.29601)"
         id="path588" />
    </clipPath>
  </defs>
  <g
     id="g1"
     style="display:inline"
     transform="translate(-489.21673,-277.26829)">
    <g
       id="g633">
      <path
         id="path307"
         d="M 0,0 C 0,0 -1.316,-0.281 -1.504,-0.47 -1.707,-0.672 1.051,-0.437 1.412,-0.68 1.78,-0.926 2.848,-1.415 3.797,-0.926 4.748,-0.437 6.719,-1.657 5.891,-0.827 5.067,0 8.276,-1.314 6.504,-0.268 4.723,0.779 4.748,0.462 4.383,0.51 4.02,0.56 3.504,0.681 3.994,1.169 4.481,1.657 5.43,3.602 6.451,4.043 c 1.024,0.438 0.95,1.386 1.778,2.214 0.828,0.829 1.781,2.119 2.072,2.924 0.291,0.8 0.998,2.994 0.756,3.624 -0.246,0.634 -0.979,1.218 -1.512,1.194 C 9.008,13.976 8.061,13.439 7.451,11.687 6.842,9.934 5.307,9.351 5.114,7.184 4.918,5.018 4.358,6.452 4.02,4.845 3.676,3.236 2.848,3.7 2.922,4.481 2.994,5.258 3.166,7.887 3.776,9.155 4.383,10.421 4.748,12.492 4.192,13.049 3.627,13.609 2.389,14.245 1.873,12.637 1.364,11.028 0.194,9.714 0.365,8.765 0.537,7.816 -0.777,6.647 0.221,5.139 1.217,3.627 0.051,4.163 0.754,3.166 1.463,2.168 0.608,1.923 0.221,2.824 -0.172,3.725 -1.219,4.871 -1.412,6.257 -1.605,7.645 -1.824,9.181 -1.802,9.815 -1.777,10.444 -2.896,11.028 -2.92,9.764 -2.947,8.497 -2.215,7.207 -2.896,6.745 -3.58,6.282 -4.14,7.475 -4.869,6.866 -5.597,6.257 -5.308,4.821 -4.65,4.651 -3.992,4.481 -3.234,4.261 -2.871,3.236 -2.508,2.214 -1.51,1.584 -1.095,0.901 -0.681,0.221 0,0 0,0 Z"
         style="fill:#ffffff;fill-opacity:1;fill-rule:nonzero;stroke:#000000;stroke-width:0.36;stroke-linecap:butt;stroke-linejoin:miter;stroke-miterlimit:4;stroke-dasharray:none;stroke-opacity:1"
         transform="matrix(1.3333333,0,0,-1.3333333,496.51867,296.17467)"
         clip-path="url(#clipPath308)" />
      <path
         id="path309"
         d="M 0,0 C -0.446,-0.45 1.318,-1.605 1.707,-0.996 2.097,-0.387 0.297,0.294 0,0"
         style="fill:#000000;fill-opacity:1;fill-rule:nonzero;stroke:none"
         transform="matrix(1.3333333,0,0,-1.3333333,508.65733,277.836)"
         clip-path="url(#clipPath310)" />
      <path
         id="path311"
         d="M 0,0 C -0.084,-0.563 1.538,-1.288 1.782,-0.582 2.022,0.123 0.123,0.804 0,0"
         style="fill:#000000;fill-opacity:1;fill-rule:nonzero;stroke:none"
         transform="matrix(1.3333333,0,0,-1.3333333,499.732,278.84133)"
         clip-path="url(#clipPath312)" />
      <path
         id="path313"
         d="M 0,0 C -0.036,-0.319 0.728,-0.414 0.75,-0.098 0.777,0.22 0.047,0.46 0,0"
         style="fill:#000000;fill-opacity:1;fill-rule:nonzero;stroke:none"
         transform="matrix(1.3333333,0,0,-1.3333333,492.88667,282.70267)"
         clip-path="url(#clipPath314)" />
      <path
         id="path315"
         d="M 0,0 C 0.365,-0.168 0.705,1.317 0.387,1.487 0.131,1.624 -0.506,0.238 0,0"
         style="fill:#000000;fill-opacity:1;fill-rule:nonzero;stroke:none"
         transform="matrix(1.3333333,0,0,-1.3333333,489.86533,289.164)"
         clip-path="url(#clipPath316)" />
      <path
         id="path449"
         d="M 0,0 C 0.143,-0.141 0.202,-0.315 0.127,-0.387 0.058,-0.455 -0.118,-0.401 -0.258,-0.253 -0.402,-0.112 -0.46,0.059 -0.386,0.132 -0.317,0.202 -0.141,0.144 0,0"
         style="fill:#231f20;fill-opacity:1;fill-rule:nonzero;stroke:none"
         transform="matrix(1.3333333,0,0,-1.3333333,498.152,295.13867)"
         clip-path="url(#clipPath450)" />
      <path
         id="path451"
         d="M 0,0 C 0.144,-0.143 0.196,-0.321 0.127,-0.388 0.056,-0.463 -0.114,-0.404 -0.26,-0.26 -0.401,-0.116 -0.46,0.056 -0.391,0.13 -0.323,0.2 -0.143,0.146 0,0"
         style="fill:#231f20;fill-opacity:1;fill-rule:nonzero;stroke:none"
         transform="matrix(1.3333333,0,0,-1.3333333,496.45467,293.908)"
         clip-path="url(#clipPath452)" />
      <path
         id="path453"
         d="M 0,0 C 0.144,-0.14 0.205,-0.318 0.127,-0.386 0.062,-0.458 -0.114,-0.404 -0.257,-0.256 -0.401,-0.116 -0.46,0.062 -0.384,0.129 -0.316,0.202 -0.14,0.147 0,0"
         style="fill:#231f20;fill-opacity:1;fill-rule:nonzero;stroke:none"
         transform="matrix(1.3333333,0,0,-1.3333333,496.23333,292.60533)"
         clip-path="url(#clipPath454)" />
      <path
         id="path455"
         d="M 0,0 C 0.146,-0.143 0.208,-0.314 0.133,-0.382 0.064,-0.455 -0.112,-0.401 -0.255,-0.257 -0.395,-0.115 -0.457,0.061 -0.382,0.132 -0.311,0.203 -0.141,0.146 0,0"
         style="fill:#231f20;fill-opacity:1;fill-rule:nonzero;stroke:none"
         transform="matrix(1.3333333,0,0,-1.3333333,496.892,295.13867)"
         clip-path="url(#clipPath456)" />
      <path
         id="path457"
         d="M 0,0 C 0.141,-0.144 0.196,-0.319 0.128,-0.39 0.053,-0.462 -0.124,-0.405 -0.268,-0.261 -0.41,-0.116 -0.463,0.056 -0.395,0.127 -0.319,0.2 -0.144,0.139 0,0"
         style="fill:#231f20;fill-opacity:1;fill-rule:nonzero;stroke:none"
         transform="matrix(1.3333333,0,0,-1.3333333,494.14933,292.184)"
         clip-path="url(#clipPath458)" />
      <path
         id="path459"
         d="M 0,0 C 0.144,-0.14 0.205,-0.313 0.13,-0.387 0.059,-0.458 -0.114,-0.397 -0.258,-0.256 -0.401,-0.113 -0.46,0.057 -0.388,0.13 -0.316,0.199 -0.143,0.145 0,0"
         style="fill:#231f20;fill-opacity:1;fill-rule:nonzero;stroke:none"
         transform="matrix(1.3333333,0,0,-1.3333333,495.18533,293.172)"
         clip-path="url(#clipPath460)" />
      <path
         id="path461"
         d="M 0,0 C 0.148,-0.141 0.209,-0.318 0.134,-0.39 0.066,-0.458 -0.107,-0.403 -0.251,-0.26 -0.394,-0.114 -0.453,0.061 -0.384,0.127 -0.309,0.202 -0.139,0.148 0,0"
         style="fill:#231f20;fill-opacity:1;fill-rule:nonzero;stroke:none"
         transform="matrix(1.3333333,0,0,-1.3333333,497.72933,293.75067)"
         clip-path="url(#clipPath462)" />
      <path
         id="path463"
         d="m 0,0 c 0.017,-0.206 -0.042,-0.377 -0.141,-0.389 -0.103,-0.007 -0.202,0.143 -0.224,0.345 -0.02,0.202 0.036,0.375 0.136,0.385 C -0.127,0.352 -0.026,0.197 0,0"
         style="fill:#231f20;fill-opacity:1;fill-rule:nonzero;stroke:none"
         transform="matrix(1.3333333,0,0,-1.3333333,493.924,287.672)"
         clip-path="url(#clipPath464)" />
      <path
         id="path465"
         d="m 0,0 c 0.026,-0.199 -0.036,-0.37 -0.137,-0.382 -0.098,-0.011 -0.202,0.144 -0.222,0.341 -0.026,0.204 0.043,0.377 0.144,0.383 C -0.114,0.356 -0.02,0.202 0,0"
         style="fill:#231f20;fill-opacity:1;fill-rule:nonzero;stroke:none"
         transform="matrix(1.3333333,0,0,-1.3333333,500.11467,294.844)"
         clip-path="url(#clipPath466)" />
      <path
         id="path467"
         d="m 0,0 c 0.022,-0.206 -0.043,-0.375 -0.144,-0.39 -0.097,-0.007 -0.202,0.152 -0.221,0.349 -0.024,0.202 0.042,0.37 0.139,0.385 C -0.124,0.354 -0.024,0.2 0,0"
         style="fill:#231f20;fill-opacity:1;fill-rule:nonzero;stroke:none"
         transform="matrix(1.3333333,0,0,-1.3333333,493.712,284.056)"
         clip-path="url(#clipPath468)" />
      <path
         id="path469"
         d="M 0,0 C 0.082,-0.189 0.065,-0.37 -0.023,-0.411 -0.12,-0.453 -0.258,-0.333 -0.336,-0.145 -0.417,0.041 -0.405,0.226 -0.314,0.261 -0.222,0.3 -0.085,0.181 0,0"
         style="fill:#231f20;fill-opacity:1;fill-rule:nonzero;stroke:none"
         transform="matrix(1.3333333,0,0,-1.3333333,493.71067,289.66)"
         clip-path="url(#clipPath470)" />
      <path
         id="path471"
         d="M 0,0 C 0.075,-0.187 0.072,-0.367 -0.026,-0.406 -0.114,-0.445 -0.258,-0.33 -0.339,-0.141 -0.417,0.04 -0.407,0.224 -0.309,0.263 -0.219,0.305 -0.078,0.187 0,0"
         style="fill:#231f20;fill-opacity:1;fill-rule:nonzero;stroke:none"
         transform="matrix(1.3333333,0,0,-1.3333333,494.46667,289.51733)"
         clip-path="url(#clipPath472)" />
      <path
         id="path473"
         d="m 0,0 c 0.078,-0.184 0.066,-0.367 -0.029,-0.404 -0.095,-0.041 -0.232,0.077 -0.31,0.265 -0.078,0.183 -0.072,0.365 0.023,0.407 C -0.219,0.305 -0.081,0.19 0,0"
         style="fill:#231f20;fill-opacity:1;fill-rule:nonzero;stroke:none"
         transform="matrix(1.3333333,0,0,-1.3333333,495.52533,291.55467)"
         clip-path="url(#clipPath474)" />
      <path
         id="path475"
         d="M 0,0 C 0.074,-0.187 0.068,-0.372 -0.027,-0.411 -0.121,-0.449 -0.262,-0.331 -0.34,-0.145 -0.418,0.04 -0.409,0.222 -0.317,0.264 -0.223,0.305 -0.079,0.184 0,0"
         style="fill:#231f20;fill-opacity:1;fill-rule:nonzero;stroke:none"
         transform="matrix(1.3333333,0,0,-1.3333333,494.608,291.28933)"
         clip-path="url(#clipPath476)" />
      <path
         id="path477"
         d="m 0,0 c 0.082,-0.183 0.063,-0.367 -0.025,-0.407 -0.095,-0.041 -0.232,0.079 -0.314,0.265 -0.078,0.186 -0.068,0.37 0.027,0.407 C -0.221,0.309 -0.078,0.187 0,0"
         style="fill:#231f20;fill-opacity:1;fill-rule:nonzero;stroke:none"
         transform="matrix(1.3333333,0,0,-1.3333333,493.12933,288.22)"
         clip-path="url(#clipPath478)" />
      <path
         id="path479"
         d="m 0,0 c 0.14,-0.14 0.202,-0.319 0.13,-0.387 -0.074,-0.076 -0.247,-0.01 -0.388,0.129 -0.146,0.144 -0.199,0.321 -0.131,0.39 C -0.313,0.205 -0.144,0.144 0,0"
         style="fill:#231f20;fill-opacity:1;fill-rule:nonzero;stroke:none"
         transform="matrix(1.3333333,0,0,-1.3333333,491.42133,287.76533)"
         clip-path="url(#clipPath480)" />
      <path
         id="path481"
         d="M 0,0 C 0.143,-0.14 0.199,-0.312 0.131,-0.387 0.058,-0.456 -0.117,-0.397 -0.261,-0.258 -0.402,-0.112 -0.46,0.059 -0.389,0.131 -0.317,0.206 -0.144,0.144 0,0"
         style="fill:#231f20;fill-opacity:1;fill-rule:nonzero;stroke:none"
         transform="matrix(1.3333333,0,0,-1.3333333,492.26933,289.08933)"
         clip-path="url(#clipPath482)" />
      <path
         id="path483"
         d="M 0,0 C 0.141,-0.141 0.206,-0.316 0.134,-0.386 0.063,-0.46 -0.11,-0.401 -0.254,-0.257 -0.401,-0.117 -0.456,0.054 -0.382,0.126 -0.313,0.2 -0.144,0.146 0,0"
         style="fill:#231f20;fill-opacity:1;fill-rule:nonzero;stroke:none"
         transform="matrix(1.3333333,0,0,-1.3333333,493.252,290.60533)"
         clip-path="url(#clipPath484)" />
      <path
         id="path485"
         d="m 0,0 c 0.147,-0.15 0.202,-0.321 0.134,-0.396 -0.072,-0.068 -0.248,-0.013 -0.392,0.13 -0.137,0.144 -0.196,0.32 -0.128,0.392 C -0.31,0.198 -0.14,0.14 0,0"
         style="fill:#231f20;fill-opacity:1;fill-rule:nonzero;stroke:none"
         transform="matrix(1.3333333,0,0,-1.3333333,491.02267,289.044)"
         clip-path="url(#clipPath486)" />
      <path
         id="path487"
         d="m 0,0 c 0,-0.202 -0.078,-0.36 -0.179,-0.36 -0.101,0 -0.183,0.158 -0.183,0.36 0,0.206 0.082,0.367 0.183,0.367 C -0.078,0.367 0,0.206 0,0"
         style="fill:#231f20;fill-opacity:1;fill-rule:nonzero;stroke:none"
         transform="matrix(1.3333333,0,0,-1.3333333,499.94933,293.12533)"
         clip-path="url(#clipPath488)" />
      <path
         id="path489"
         d="m 0,0 c 0,-0.2 -0.079,-0.36 -0.18,-0.36 -0.101,0 -0.183,0.16 -0.183,0.36 0,0.207 0.082,0.37 0.183,0.37 C -0.079,0.37 0,0.207 0,0"
         style="fill:#231f20;fill-opacity:1;fill-rule:nonzero;stroke:none"
         transform="matrix(1.3333333,0,0,-1.3333333,493.948,286.11333)"
         clip-path="url(#clipPath490)" />
      <path
         id="path491"
         d="m 0,0 c -0.069,-0.187 -0.206,-0.312 -0.304,-0.279 -0.091,0.039 -0.11,0.223 -0.036,0.409 0.069,0.187 0.203,0.309 0.297,0.277 C 0.052,0.373 0.075,0.188 0,0"
         style="fill:#231f20;fill-opacity:1;fill-rule:nonzero;stroke:none"
         transform="matrix(1.3333333,0,0,-1.3333333,499.876,280.36133)"
         clip-path="url(#clipPath492)" />
      <path
         id="path493"
         d="m 0,0 c -0.069,-0.185 -0.205,-0.312 -0.303,-0.273 -0.095,0.039 -0.108,0.215 -0.043,0.409 0.075,0.185 0.206,0.31 0.304,0.274 C 0.055,0.375 0.072,0.192 0,0"
         style="fill:#231f20;fill-opacity:1;fill-rule:nonzero;stroke:none"
         transform="matrix(1.3333333,0,0,-1.3333333,510.27333,280.24)"
         clip-path="url(#clipPath494)" />
      <path
         id="path495"
         d="m 0,0 c -0.069,-0.19 -0.206,-0.312 -0.3,-0.277 -0.095,0.035 -0.115,0.219 -0.039,0.408 0.068,0.188 0.202,0.307 0.297,0.276 C 0.052,0.374 0.075,0.182 0,0"
         style="fill:#231f20;fill-opacity:1;fill-rule:nonzero;stroke:none"
         transform="matrix(1.3333333,0,0,-1.3333333,508.39067,279.60933)"
         clip-path="url(#clipPath496)" />
      <path
         id="path497"
         d="m 0,0 c -0.072,-0.194 -0.205,-0.315 -0.3,-0.281 -0.095,0.043 -0.117,0.221 -0.043,0.411 0.069,0.187 0.206,0.311 0.304,0.277 C 0.055,0.366 0.068,0.186 0,0"
         style="fill:#231f20;fill-opacity:1;fill-rule:nonzero;stroke:none"
         transform="matrix(1.3333333,0,0,-1.3333333,507.604,280.95467)"
         clip-path="url(#clipPath498)" />
      <path
         id="path499"
         d="m 0,0 c -0.069,-0.184 -0.205,-0.311 -0.3,-0.277 -0.095,0.04 -0.114,0.22 -0.043,0.41 0.072,0.182 0.206,0.312 0.301,0.277 C 0.051,0.37 0.075,0.191 0,0"
         style="fill:#231f20;fill-opacity:1;fill-rule:nonzero;stroke:none"
         transform="matrix(1.3333333,0,0,-1.3333333,509.048,280.54267)"
         clip-path="url(#clipPath500)" />
      <path
         id="path501"
         d="m 0,0 c -0.068,-0.195 -0.209,-0.321 -0.307,-0.284 -0.094,0.036 -0.107,0.219 -0.039,0.407 0.073,0.193 0.205,0.311 0.304,0.277 C 0.053,0.368 0.072,0.182 0,0"
         style="fill:#231f20;fill-opacity:1;fill-rule:nonzero;stroke:none"
         transform="matrix(1.3333333,0,0,-1.3333333,510.20133,281.63067)"
         clip-path="url(#clipPath502)" />
      <path
         id="path503"
         d="m 0,0 c -0.072,-0.194 -0.208,-0.32 -0.303,-0.284 -0.098,0.036 -0.111,0.22 -0.036,0.407 C -0.274,0.316 -0.14,0.435 -0.042,0.4 0.052,0.368 0.072,0.183 0,0"
         style="fill:#231f20;fill-opacity:1;fill-rule:nonzero;stroke:none"
         transform="matrix(1.3333333,0,0,-1.3333333,507.71333,282.30933)"
         clip-path="url(#clipPath504)" />
      <path
         id="path505"
         d="m 0,0 c -0.071,-0.19 -0.208,-0.312 -0.3,-0.273 -0.091,0.034 -0.114,0.217 -0.039,0.401 0.068,0.194 0.202,0.32 0.297,0.277 C 0.053,0.37 0.075,0.192 0,0"
         style="fill:#231f20;fill-opacity:1;fill-rule:nonzero;stroke:none"
         transform="matrix(1.3333333,0,0,-1.3333333,509.316,282.632)"
         clip-path="url(#clipPath506)" />
      <path
         id="path507"
         d="m 0,0 c -0.075,-0.192 -0.206,-0.311 -0.303,-0.277 -0.098,0.034 -0.112,0.22 -0.042,0.407 0.074,0.187 0.208,0.314 0.302,0.281 C 0.052,0.37 0.069,0.19 0,0"
         style="fill:#231f20;fill-opacity:1;fill-rule:nonzero;stroke:none"
         transform="matrix(1.3333333,0,0,-1.3333333,505.90267,285.068)"
         clip-path="url(#clipPath508)" />
      <path
         id="path509"
         d="m 0,0 c -0.071,-0.192 -0.205,-0.318 -0.3,-0.279 -0.097,0.04 -0.11,0.218 -0.042,0.405 0.072,0.192 0.205,0.317 0.3,0.275 C 0.056,0.37 0.075,0.188 0,0"
         style="fill:#231f20;fill-opacity:1;fill-rule:nonzero;stroke:none"
         transform="matrix(1.3333333,0,0,-1.3333333,506.35333,283.452)"
         clip-path="url(#clipPath510)" />
      <path
         id="path511"
         d="m 0,0 c -0.068,-0.184 -0.205,-0.31 -0.302,-0.277 -0.095,0.039 -0.109,0.222 -0.037,0.41 0.069,0.192 0.2,0.309 0.297,0.277 C 0.056,0.372 0.073,0.191 0,0"
         style="fill:#231f20;fill-opacity:1;fill-rule:nonzero;stroke:none"
         transform="matrix(1.3333333,0,0,-1.3333333,502.352,291.376)"
         clip-path="url(#clipPath512)" />
      <path
         id="path513"
         d="m 0,0 c -0.071,-0.188 -0.202,-0.31 -0.297,-0.278 -0.097,0.039 -0.114,0.221 -0.042,0.41 0.072,0.188 0.205,0.31 0.3,0.277 C 0.056,0.37 0.073,0.186 0,0"
         style="fill:#231f20;fill-opacity:1;fill-rule:nonzero;stroke:none"
         transform="matrix(1.3333333,0,0,-1.3333333,508.296,285.764)"
         clip-path="url(#clipPath514)" />
      <path
         id="path515"
         d="m 0,0 c -0.069,-0.182 -0.206,-0.311 -0.3,-0.275 -0.098,0.041 -0.111,0.225 -0.036,0.409 0.069,0.189 0.206,0.311 0.297,0.277 C 0.055,0.374 0.075,0.19 0,0"
         style="fill:#231f20;fill-opacity:1;fill-rule:nonzero;stroke:none"
         transform="matrix(1.3333333,0,0,-1.3333333,503.008,289.73467)"
         clip-path="url(#clipPath516)" />
      <path
         id="path517"
         d="m 0,0 c -0.071,-0.18 -0.209,-0.307 -0.3,-0.273 -0.098,0.042 -0.111,0.22 -0.042,0.411 0.071,0.191 0.205,0.313 0.303,0.274 C 0.056,0.377 0.068,0.195 0,0"
         style="fill:#231f20;fill-opacity:1;fill-rule:nonzero;stroke:none"
         transform="matrix(1.3333333,0,0,-1.3333333,505.48533,287.88267)"
         clip-path="url(#clipPath518)" />
      <path
         id="path519"
         d="M 0,0 C -0.134,-0.157 -0.303,-0.227 -0.378,-0.159 -0.456,-0.095 -0.41,0.082 -0.283,0.236 -0.149,0.388 0.02,0.462 0.095,0.398 0.17,0.33 0.128,0.152 0,0"
         style="fill:#231f20;fill-opacity:1;fill-rule:nonzero;stroke:none"
         transform="matrix(1.3333333,0,0,-1.3333333,507.02667,287.15333)"
         clip-path="url(#clipPath520)" />
      <path
         id="path521"
         d="M 0,0 C -0.129,-0.15 -0.299,-0.227 -0.375,-0.16 -0.456,-0.097 -0.41,0.086 -0.277,0.241 -0.146,0.39 0.017,0.463 0.095,0.397 0.17,0.334 0.128,0.158 0,0"
         style="fill:#231f20;fill-opacity:1;fill-rule:nonzero;stroke:none"
         transform="matrix(1.3333333,0,0,-1.3333333,503.616,290.97333)"
         clip-path="url(#clipPath522)" />
      <path
         id="path523"
         d="m 0,0 c -0.127,-0.153 -0.297,-0.226 -0.375,-0.16 -0.072,0.065 -0.029,0.241 0.098,0.396 0.13,0.154 0.299,0.227 0.381,0.163 C 0.176,0.333 0.134,0.155 0,0"
         style="fill:#231f20;fill-opacity:1;fill-rule:nonzero;stroke:none"
         transform="matrix(1.3333333,0,0,-1.3333333,505.37067,289.63733)"
         clip-path="url(#clipPath524)" />
      <path
         id="path525"
         d="M 0,0 C -0.037,-0.196 -0.147,-0.34 -0.251,-0.32 -0.349,-0.3 -0.395,-0.124 -0.359,0.075 -0.317,0.274 -0.205,0.414 -0.105,0.4 -0.007,0.378 0.042,0.202 0,0"
         style="fill:#231f20;fill-opacity:1;fill-rule:nonzero;stroke:none"
         transform="matrix(1.3333333,0,0,-1.3333333,504.66667,285.75867)"
         clip-path="url(#clipPath526)" />
      <path
         id="path527"
         d="m 0,0 c -0.043,-0.196 -0.15,-0.345 -0.255,-0.319 -0.098,0.02 -0.146,0.197 -0.104,0.394 0.039,0.198 0.147,0.342 0.248,0.322 C -0.01,0.378 0.035,0.197 0,0"
         style="fill:#231f20;fill-opacity:1;fill-rule:nonzero;stroke:none"
         transform="matrix(1.3333333,0,0,-1.3333333,501.08667,293.86667)"
         clip-path="url(#clipPath528)" />
      <path
         id="path529"
         d="m 0,0 c -0.037,-0.196 -0.154,-0.34 -0.251,-0.32 -0.099,0.016 -0.148,0.192 -0.109,0.393 0.039,0.199 0.153,0.343 0.255,0.323 C -0.004,0.375 0.042,0.197 0,0"
         style="fill:#231f20;fill-opacity:1;fill-rule:nonzero;stroke:none"
         transform="matrix(1.3333333,0,0,-1.3333333,502.06,292.86533)"
         clip-path="url(#clipPath530)" />
      <path
         id="path531"
         d="m 0,0 c -0.068,-0.191 -0.208,-0.317 -0.299,-0.278 -0.098,0.034 -0.115,0.219 -0.039,0.404 0.068,0.19 0.202,0.317 0.294,0.277 C 0.053,0.37 0.076,0.185 0,0"
         style="fill:#231f20;fill-opacity:1;fill-rule:nonzero;stroke:none"
         transform="matrix(1.3333333,0,0,-1.3333333,505.78533,286.51333)"
         clip-path="url(#clipPath532)" />
      <path
         id="path533"
         d="m 0,0 c -0.075,-0.19 -0.209,-0.311 -0.304,-0.277 -0.091,0.034 -0.11,0.221 -0.035,0.404 0.064,0.192 0.205,0.312 0.3,0.277 C 0.052,0.372 0.071,0.188 0,0"
         style="fill:#231f20;fill-opacity:1;fill-rule:nonzero;stroke:none"
         transform="matrix(1.3333333,0,0,-1.3333333,509.43467,284.20533)"
         clip-path="url(#clipPath534)" />
      <path
         id="path535"
         d="m 0,0 c -0.073,-0.183 -0.206,-0.309 -0.304,-0.275 -0.088,0.039 -0.11,0.219 -0.036,0.412 0.069,0.184 0.206,0.309 0.304,0.277 C 0.051,0.375 0.071,0.19 0,0"
         style="fill:#231f20;fill-opacity:1;fill-rule:nonzero;stroke:none"
         transform="matrix(1.3333333,0,0,-1.3333333,504.26933,289.21333)"
         clip-path="url(#clipPath536)" />
      <path
         id="path537"
         d="m 0,0 c -0.068,-0.187 -0.205,-0.317 -0.3,-0.276 -0.094,0.034 -0.114,0.213 -0.042,0.407 0.075,0.186 0.206,0.312 0.3,0.274 C 0.053,0.371 0.075,0.185 0,0"
         style="fill:#231f20;fill-opacity:1;fill-rule:nonzero;stroke:none"
         transform="matrix(1.3333333,0,0,-1.3333333,499.79733,283.23467)"
         clip-path="url(#clipPath538)" />
      <path
         id="path539"
         d="m 0,0 c -0.071,-0.185 -0.205,-0.312 -0.302,-0.274 -0.095,0.034 -0.109,0.218 -0.043,0.41 0.075,0.187 0.212,0.311 0.303,0.272 C 0.056,0.375 0.069,0.192 0,0"
         style="fill:#231f20;fill-opacity:1;fill-rule:nonzero;stroke:none"
         transform="matrix(1.3333333,0,0,-1.3333333,508.23067,283.70533)"
         clip-path="url(#clipPath540)" />
      <path
         id="path541"
         d="m 0,0 c -0.075,-0.188 -0.209,-0.309 -0.304,-0.276 -0.091,0.037 -0.11,0.222 -0.035,0.409 0.064,0.184 0.205,0.31 0.3,0.277 C 0.052,0.371 0.071,0.189 0,0"
         style="fill:#231f20;fill-opacity:1;fill-rule:nonzero;stroke:none"
         transform="matrix(1.3333333,0,0,-1.3333333,507.1,285.188)"
         clip-path="url(#clipPath542)" />
      <path
         id="path543"
         d="m 0,0 c -0.069,-0.189 -0.199,-0.31 -0.297,-0.274 -0.095,0.029 -0.114,0.219 -0.042,0.402 0.068,0.193 0.205,0.32 0.303,0.281 C 0.052,0.368 0.075,0.193 0,0"
         style="fill:#231f20;fill-opacity:1;fill-rule:nonzero;stroke:none"
         transform="matrix(1.3333333,0,0,-1.3333333,499.21333,284.73867)"
         clip-path="url(#clipPath544)" />
      <path
         id="path545"
         d="m 0,0 c -0.071,-0.189 -0.209,-0.316 -0.303,-0.277 -0.098,0.032 -0.111,0.217 -0.043,0.406 0.073,0.191 0.207,0.313 0.3,0.273 C 0.053,0.37 0.072,0.191 0,0"
         style="fill:#231f20;fill-opacity:1;fill-rule:nonzero;stroke:none"
         transform="matrix(1.3333333,0,0,-1.3333333,498.07733,285.42667)"
         clip-path="url(#clipPath546)" />
      <path
         id="path547"
         d="m 0,0 c -0.071,-0.191 -0.205,-0.314 -0.3,-0.277 -0.094,0.036 -0.111,0.218 -0.043,0.404 0.076,0.191 0.206,0.314 0.304,0.279 C 0.056,0.368 0.069,0.187 0,0"
         style="fill:#231f20;fill-opacity:1;fill-rule:nonzero;stroke:none"
         transform="matrix(1.3333333,0,0,-1.3333333,501.02,295.49867)"
         clip-path="url(#clipPath548)" />
      <path
         id="path549"
         d="m 0,0 c -0.068,-0.192 -0.199,-0.319 -0.297,-0.277 -0.095,0.034 -0.114,0.211 -0.043,0.404 0.072,0.19 0.206,0.314 0.304,0.275 C 0.056,0.371 0.071,0.187 0,0"
         style="fill:#231f20;fill-opacity:1;fill-rule:nonzero;stroke:none"
         transform="matrix(1.3333333,0,0,-1.3333333,498.14933,283.744)"
         clip-path="url(#clipPath550)" />
      <path
         id="path551"
         d="m 0,0 c -0.068,-0.188 -0.205,-0.313 -0.297,-0.277 -0.095,0.035 -0.114,0.218 -0.049,0.407 0.075,0.185 0.212,0.315 0.304,0.278 C 0.056,0.37 0.072,0.189 0,0"
         style="fill:#231f20;fill-opacity:1;fill-rule:nonzero;stroke:none"
         transform="matrix(1.3333333,0,0,-1.3333333,501.14533,282.60667)"
         clip-path="url(#clipPath552)" />
      <path
         id="path553"
         d="m 0,0 c -0.075,-0.192 -0.205,-0.312 -0.303,-0.278 -0.095,0.037 -0.111,0.215 -0.043,0.407 0.075,0.189 0.206,0.314 0.304,0.273 C 0.053,0.372 0.068,0.189 0,0"
         style="fill:#231f20;fill-opacity:1;fill-rule:nonzero;stroke:none"
         transform="matrix(1.3333333,0,0,-1.3333333,500.70533,284.17467)"
         clip-path="url(#clipPath554)" />
      <path
         id="path555"
         d="m 0,0 c -0.019,-0.2 -0.114,-0.36 -0.221,-0.346 -0.098,0.01 -0.161,0.184 -0.141,0.383 0.016,0.197 0.121,0.357 0.219,0.345 C -0.042,0.373 0.023,0.202 0,0"
         style="fill:#231f20;fill-opacity:1;fill-rule:nonzero;stroke:none"
         transform="matrix(1.3333333,0,0,-1.3333333,497.57733,287.11733)"
         clip-path="url(#clipPath556)" />
      <path
         id="path557"
         d="m 0,0 c -0.022,-0.197 -0.117,-0.353 -0.219,-0.343 -0.1,0.012 -0.163,0.185 -0.142,0.384 0.022,0.202 0.123,0.355 0.218,0.346 C -0.042,0.378 0.027,0.209 0,0"
         style="fill:#231f20;fill-opacity:1;fill-rule:nonzero;stroke:none"
         transform="matrix(1.3333333,0,0,-1.3333333,499.024,288.35867)"
         clip-path="url(#clipPath558)" />
      <path
         id="path559"
         d="m 0,0 c -0.016,-0.199 -0.114,-0.354 -0.215,-0.344 -0.101,0.009 -0.167,0.182 -0.147,0.381 0.023,0.203 0.121,0.36 0.222,0.343 C -0.042,0.375 0.023,0.199 0,0"
         style="fill:#231f20;fill-opacity:1;fill-rule:nonzero;stroke:none"
         transform="matrix(1.3333333,0,0,-1.3333333,498.91333,286.65733)"
         clip-path="url(#clipPath560)" />
      <path
         id="path561"
         d="m 0,0 c -0.02,-0.202 -0.118,-0.353 -0.215,-0.346 -0.102,0.012 -0.167,0.185 -0.144,0.383 0.016,0.203 0.114,0.357 0.218,0.347 C -0.042,0.375 0.022,0.205 0,0"
         style="fill:#231f20;fill-opacity:1;fill-rule:nonzero;stroke:none"
         transform="matrix(1.3333333,0,0,-1.3333333,500.05867,285.78533)"
         clip-path="url(#clipPath562)" />
      <path
         id="path563"
         d="m 0,0 c -0.02,-0.202 -0.123,-0.358 -0.218,-0.345 -0.098,0.007 -0.163,0.178 -0.14,0.381 0.019,0.2 0.117,0.356 0.218,0.343 C -0.042,0.37 0.023,0.197 0,0"
         style="fill:#231f20;fill-opacity:1;fill-rule:nonzero;stroke:none"
         transform="matrix(1.3333333,0,0,-1.3333333,500.69867,292.42133)"
         clip-path="url(#clipPath564)" />
      <path
         id="path565"
         d="m 0,0 c -0.022,-0.2 -0.12,-0.358 -0.222,-0.347 -0.101,0.013 -0.163,0.184 -0.146,0.386 0.025,0.197 0.124,0.353 0.225,0.341 C -0.042,0.372 0.02,0.197 0,0"
         style="fill:#231f20;fill-opacity:1;fill-rule:nonzero;stroke:none"
         transform="matrix(1.3333333,0,0,-1.3333333,499.97067,287.52667)"
         clip-path="url(#clipPath566)" />
      <path
         id="path567"
         d="m 0,0 c -0.022,-0.201 -0.117,-0.359 -0.214,-0.346 -0.109,0.01 -0.17,0.181 -0.151,0.381 0.023,0.198 0.121,0.36 0.222,0.345 C -0.042,0.373 0.02,0.2 0,0"
         style="fill:#231f20;fill-opacity:1;fill-rule:nonzero;stroke:none"
         transform="matrix(1.3333333,0,0,-1.3333333,499.72933,291.616)"
         clip-path="url(#clipPath568)" />
      <path
         id="path569"
         d="m 0,0 c -0.017,-0.201 -0.118,-0.358 -0.219,-0.344 -0.098,0.006 -0.163,0.178 -0.14,0.38 0.02,0.2 0.117,0.356 0.218,0.345 C -0.043,0.37 0.029,0.2 0,0"
         style="fill:#231f20;fill-opacity:1;fill-rule:nonzero;stroke:none"
         transform="matrix(1.3333333,0,0,-1.3333333,499.83733,289.50667)"
         clip-path="url(#clipPath570)" />
      <path
         id="path571"
         d="m 0,0 c -0.023,-0.202 -0.124,-0.36 -0.216,-0.348 -0.101,0.01 -0.166,0.183 -0.147,0.384 0.02,0.2 0.118,0.355 0.222,0.343 C -0.043,0.372 0.019,0.204 0,0"
         style="fill:#231f20;fill-opacity:1;fill-rule:nonzero;stroke:none"
         transform="matrix(1.3333333,0,0,-1.3333333,504.32933,287.616)"
         clip-path="url(#clipPath572)" />
      <path
         id="path573"
         d="M 0,0 C 0.062,-0.198 0.029,-0.38 -0.065,-0.412 -0.159,-0.436 -0.29,-0.306 -0.352,-0.114 -0.407,0.081 -0.381,0.263 -0.287,0.292 -0.186,0.317 -0.059,0.192 0,0"
         style="fill:#231f20;fill-opacity:1;fill-rule:nonzero;stroke:none"
         transform="matrix(1.3333333,0,0,-1.3333333,498.60133,290)"
         clip-path="url(#clipPath574)" />
      <path
         id="path575"
         d="M 0,0 C 0.062,-0.193 0.029,-0.372 -0.065,-0.406 -0.163,-0.438 -0.291,-0.3 -0.35,-0.111 -0.411,0.085 -0.382,0.264 -0.287,0.295 -0.192,0.322 -0.058,0.192 0,0"
         style="fill:#231f20;fill-opacity:1;fill-rule:nonzero;stroke:none"
         transform="matrix(1.3333333,0,0,-1.3333333,497.85867,288.62933)"
         clip-path="url(#clipPath576)" />
      <path
         id="path577"
         d="M 0,0 C 0.058,-0.196 0.029,-0.373 -0.066,-0.401 -0.16,-0.43 -0.29,-0.305 -0.353,-0.112 -0.408,0.084 -0.382,0.265 -0.287,0.297 -0.193,0.326 -0.066,0.194 0,0"
         style="fill:#231f20;fill-opacity:1;fill-rule:nonzero;stroke:none"
         transform="matrix(1.3333333,0,0,-1.3333333,498.65333,291.79733)"
         clip-path="url(#clipPath578)" />
      <path
         id="path579"
         d="M 0,0 C 0.059,-0.196 0.026,-0.371 -0.068,-0.402 -0.163,-0.434 -0.29,-0.303 -0.355,-0.113 -0.411,0.082 -0.382,0.262 -0.284,0.292 -0.189,0.326 -0.062,0.192 0,0"
         style="fill:#231f20;fill-opacity:1;fill-rule:nonzero;stroke:none"
         transform="matrix(1.3333333,0,0,-1.3333333,499.36267,295.21333)"
         clip-path="url(#clipPath580)" />
      <path
         id="path581"
         d="m 0,0 c 0.068,-0.196 0.035,-0.372 -0.062,-0.406 -0.101,-0.028 -0.229,0.097 -0.284,0.295 -0.065,0.192 -0.033,0.373 0.062,0.404 C -0.183,0.319 -0.053,0.194 0,0"
         style="fill:#231f20;fill-opacity:1;fill-rule:nonzero;stroke:none"
         transform="matrix(1.3333333,0,0,-1.3333333,499.03067,293.54667)"
         clip-path="url(#clipPath582)" />
      <path
         id="path583"
         d="m 0,0 c -0.069,-0.191 -0.199,-0.311 -0.294,-0.277 -0.098,0.034 -0.117,0.212 -0.042,0.404 0.068,0.193 0.205,0.315 0.3,0.28 C 0.055,0.371 0.075,0.188 0,0"
         style="fill:#231f20;fill-opacity:1;fill-rule:nonzero;stroke:none"
         transform="matrix(1.3333333,0,0,-1.3333333,500.488,281.48533)"
         clip-path="url(#clipPath584)" />
      <path
         id="path585"
         d="m 0,0 c -0.069,-0.192 -0.206,-0.311 -0.301,-0.277 -0.094,0.037 -0.11,0.215 -0.042,0.407 0.075,0.189 0.205,0.314 0.3,0.273 C 0.054,0.372 0.074,0.188 0,0"
         style="fill:#231f20;fill-opacity:1;fill-rule:nonzero;stroke:none"
         transform="matrix(1.3333333,0,0,-1.3333333,499.10267,282.21467)"
         clip-path="url(#clipPath586)" />
      <path
         id="path587"
         d="m 0,0 c 0,-0.2 -0.078,-0.365 -0.177,-0.365 -0.107,0 -0.185,0.165 -0.185,0.365 0,0.202 0.078,0.366 0.185,0.366 C -0.078,0.366 0,0.202 0,0"
         style="fill:#231f20;fill-opacity:1;fill-rule:nonzero;stroke:none"
         transform="matrix(1.3333333,0,0,-1.3333333,501.816,280.93867)"
         clip-path="url(#clipPath588)" />
    </g>
  </g>
</svg>
