<?xml version="1.0" encoding="UTF-8" standalone="no"?>
<!-- Created with Inkscape (http://www.inkscape.org/) -->

<svg
   version="1.1"
   id="svg1"
   width="15.420523"
   height="23.75975"
   viewBox="0 0 15.420523 23.75975"
   xmlns="http://www.w3.org/2000/svg"
   xmlns:svg="http://www.w3.org/2000/svg">
  <defs
     id="defs1">
    <clipPath
       clipPathUnits="userSpaceOnUse"
       id="clipPath320">
      <path
         d="M 14,14 H 598 V 778 H 14 Z"
         transform="translate(-374.65301,-518.29601)"
         id="path320" />
    </clipPath>
  </defs>
  <g
     id="g1"
     style="display:inline"
     transform="translate(-491.31851,-350.024)">
    <g
       id="g635">
      <path
         id="path319"
         d="m 0,0 c 0.3,-0.479 1.377,-0.659 1.855,-0.6 0.479,0.062 1.196,-0.418 1.196,-0.418 0,0 -1.077,-0.778 -1.614,-1.376 -0.54,-0.598 -0.96,-2.031 -0.96,-2.392 0,-0.36 2.394,-1.974 2.931,-1.616 0.54,0.36 -1.912,1.794 -1.912,1.794 0,0 0.658,0.958 1.196,1.556 0.54,0.598 2.273,0.897 2.393,1.854 0.12,0.959 -3.53,2.813 -3.53,2.813 0,0 0.419,0.776 0.538,1.854 0.122,1.077 -0.538,2.213 -0.538,2.213 0,0 1.278,-0.478 1.636,-0.359 0.361,0.12 2.393,3.112 1.973,3.351 C 4.747,8.912 3.107,6.535 2.809,6.535 c -0.299,0 -1.612,1.003 -1.612,1.003 0,0 0,1.016 0,1.614 0,0.597 -0.841,1.768 -1.615,1.854 H -0.477 C -1.25,10.92 -2.094,9.749 -2.094,9.152 c 0,-0.598 0,-1.614 0,-1.614 0,0 -1.311,-1.003 -1.609,-1.003 -0.3,0 -1.676,2.019 -2.096,1.78 -0.418,-0.241 1.377,-2.872 1.733,-2.992 0.363,-0.119 1.615,0.359 1.615,0.359 0,0 -0.659,-1.136 -0.539,-2.213 0.121,-1.078 0.539,-1.854 0.539,-1.854 0,0 -3.651,-1.854 -3.53,-2.813 0.122,-0.957 1.853,-1.256 2.393,-1.854 0.539,-0.598 1.195,-1.556 1.195,-1.556 0,0 -2.453,-1.434 -1.913,-1.794 0.54,-0.358 2.933,1.256 2.933,1.616 0,0.361 -0.422,1.794 -0.959,2.392 -0.537,0.598 -1.615,1.376 -1.615,1.376 0,0 0.717,0.48 1.195,0.418 0.48,-0.059 1.557,0.121 1.855,0.6 z"
         style="fill:#ffffff;fill-opacity:1;fill-rule:nonzero;stroke:#000000;stroke-width:0.36;stroke-linecap:butt;stroke-linejoin:miter;stroke-miterlimit:4;stroke-dasharray:none;stroke-opacity:1"
         transform="matrix(1.3333333,0,0,-1.3333333,499.53733,364.93867)"
         clip-path="url(#clipPath320)" />
    </g>
  </g>
</svg>
