<?xml version="1.0" encoding="UTF-8" standalone="no"?>
<!-- Created with Inkscape (http://www.inkscape.org/) -->

<svg
   version="1.1"
   id="svg1"
   width="26.872156"
   height="13.446506"
   viewBox="0 0 26.872156 13.446506"
   xmlns="http://www.w3.org/2000/svg"
   xmlns:svg="http://www.w3.org/2000/svg">
  <defs
     id="defs1">
    <clipPath
       clipPathUnits="userSpaceOnUse"
       id="clipPath322">
      <path
         d="M 14,14 H 598 V 778 H 14 Z"
         transform="translate(-368.73001,-492.42501)"
         id="path322" />
    </clipPath>
    <clipPath
       clipPathUnits="userSpaceOnUse"
       id="clipPath324">
      <path
         d="M 14,14 H 598 V 778 H 14 Z"
         transform="translate(-364.93901,-489.55101)"
         id="path324" />
    </clipPath>
    <clipPath
       clipPathUnits="userSpaceOnUse"
       id="clipPath326">
      <path
         d="M 14,14 H 598 V 778 H 14 Z"
         transform="translate(-377.67301,-489.67301)"
         id="path326" />
    </clipPath>
    <clipPath
       clipPathUnits="userSpaceOnUse"
       id="clipPath328">
      <path
         d="M 14,14 H 598 V 778 H 14 Z"
         transform="translate(-377.17301,-494.84601)"
         id="path328" />
    </clipPath>
  </defs>
  <g
     id="g1"
     style="display:inline"
     transform="translate(-486.39504,-392.90345)">
    <g
       id="g636">
      <path
         id="path321"
         d="m 0,0 c 2.156,1.257 4.953,2.469 7.365,2.469 4.573,0 8.535,-3.195 8.535,-3.195 0,0 -3.761,-2.102 -8.289,-2.102 -2.597,0 -5.379,1.237 -7.546,2.786 z"
         style="fill:#ffffff;fill-opacity:1;fill-rule:nonzero;stroke:#000000;stroke-width:0.36;stroke-linecap:butt;stroke-linejoin:miter;stroke-miterlimit:4;stroke-dasharray:none;stroke-opacity:1"
         transform="matrix(1.3333333,0,0,-1.3333333,491.64,399.43333)"
         clip-path="url(#clipPath322)" />
      <path
         id="path323"
         d="M 0,0 C 0.445,0.579 1.877,1.755 3.74,2.859 L 3.791,2.874 C 2.207,4.017 0.961,5.323 0.363,6.428"
         style="fill:none;stroke:#000000;stroke-width:0.36;stroke-linecap:butt;stroke-linejoin:miter;stroke-miterlimit:4;stroke-dasharray:none;stroke-opacity:1"
         transform="matrix(1.3333333,0,0,-1.3333333,486.58533,403.26533)"
         clip-path="url(#clipPath324)" />
      <path
         id="path325"
         d="m 0,0 -2.425,-2.305 0.906,2.222 z"
         style="fill:#000000;fill-opacity:1;fill-rule:nonzero;stroke:#000000;stroke-width:0.36;stroke-linecap:butt;stroke-linejoin:miter;stroke-miterlimit:4;stroke-dasharray:none;stroke-opacity:1"
         transform="matrix(1.3333333,0,0,-1.3333333,503.564,403.10267)"
         clip-path="url(#clipPath326)" />
      <path
         id="path327"
         d="M 0,0 -0.105,2.387 1.391,-0.227 Z"
         style="fill:#000000;fill-opacity:1;fill-rule:nonzero;stroke:#000000;stroke-width:0.36;stroke-linecap:butt;stroke-linejoin:miter;stroke-miterlimit:4;stroke-dasharray:none;stroke-opacity:1"
         transform="matrix(1.3333333,0,0,-1.3333333,502.89733,396.20533)"
         clip-path="url(#clipPath328)" />
    </g>
  </g>
</svg>
