<?xml version="1.0" encoding="UTF-8" standalone="no"?>
<!-- Created with Inkscape (http://www.inkscape.org/) -->

<svg
   version="1.1"
   id="svg1"
   width="27.275431"
   height="15.167687"
   viewBox="0 0 27.275431 15.167687"
   xmlns="http://www.w3.org/2000/svg"
   xmlns:svg="http://www.w3.org/2000/svg">
  <defs
     id="defs1">
    <clipPath
       clipPathUnits="userSpaceOnUse"
       id="clipPath330">
      <path
         d="M 14,14 H 598 V 778 H 14 Z"
         transform="translate(-368.90801,-469.83801)"
         id="path330" />
    </clipPath>
    <clipPath
       clipPathUnits="userSpaceOnUse"
       id="clipPath332">
      <path
         d="M 14,14 H 598 V 778 H 14 Z"
         transform="translate(-368.16001,-468.14701)"
         id="path332" />
    </clipPath>
    <clipPath
       clipPathUnits="userSpaceOnUse"
       id="clipPath334">
      <path
         d="M 14,14 H 598 V 778 H 14 Z"
         transform="translate(-369.07901,-465.39101)"
         id="path334" />
    </clipPath>
  </defs>
  <g
     id="g1"
     style="display:inline"
     transform="translate(-486.59552,-429.30875)">
    <g
       id="g637">
      <path
         id="path329"
         d="m 0,0 c -1.226,-0.021 -2.327,-0.392 -3.112,-0.956 -0.784,-0.563 -0.834,-0.857 -0.392,-1.2 0.44,-0.343 -0.196,-0.637 1.299,-1.396 1.494,-0.76 2.499,-0.76 2.621,-1.103 0.123,-0.343 2.033,-1.911 2.107,-2.598 0.073,-0.685 1.051,-1.819 1.03,-2.449 -0.025,-0.711 -1.128,-0.343 -1.348,-0.882 -0.132,-0.322 1.037,-0.196 1.935,-0.196 0.49,0 1.347,1.421 1.421,2.009 0.074,0.588 1.3,0.15 1.985,-0.392 0.401,-0.318 0.679,-0.49 0.679,-0.49 0,0 -2.173,-0.344 -2.126,-0.833 0.05,-0.489 1.863,-0.711 2.574,-0.343 0.71,0.367 2.474,1.274 2.841,1.837 0.369,0.564 0.369,1.201 0.859,1.201 0.489,0 1.98,0.37 2.351,1.691 0.441,1.568 1.788,2.645 1.568,2.964 -0.316,0.457 -1.494,-0.465 -1.911,-1.396 -0.421,-0.94 -0.784,-2.132 -1.348,-2.132 -0.563,0 -0.808,0.025 -0.808,0.025 0,0 0.27,2.645 -1.592,3.748 -2.109,1.248 -3.235,1.617 -5.146,1.2 -1.91,-0.416 -2.474,0 -2.915,0.344 C 2.132,-1.005 1.396,0.025 0,0 Z"
         style="fill:#ffffff;fill-opacity:1;fill-rule:nonzero;stroke:#000000;stroke-width:0.36;stroke-linecap:butt;stroke-linejoin:miter;stroke-miterlimit:4;stroke-dasharray:none;stroke-opacity:1"
         transform="matrix(1.3333333,0,0,-1.3333333,491.87733,429.54933)"
         clip-path="url(#clipPath330)" />
      <path
         id="path331"
         d="m 0,0 c 0,-0.209 -0.17,-0.379 -0.379,-0.379 -0.209,0 -0.38,0.17 -0.38,0.379 0,0.211 0.171,0.38 0.38,0.38 C -0.17,0.38 0,0.211 0,0"
         style="fill:#000000;fill-opacity:1;fill-rule:nonzero;stroke:none"
         transform="matrix(1.3333333,0,0,-1.3333333,490.88,431.804)"
         clip-path="url(#clipPath332)" />
      <path
         id="path333"
         d="m 0,0 c 0.506,-0.19 2.022,0.846 1.935,1.924 m 0.331,-4.47 C 2.192,-1.493 1.985,1.189 3.184,1.728 m 2.213,-6.009 c 0.195,0.839 0.189,2.309 -0.448,2.8 m 2.715,-3.454 c -0.668,0.469 0.348,3.11 2.038,3.256"
         style="fill:none;stroke:#000000;stroke-width:0.36;stroke-linecap:butt;stroke-linejoin:miter;stroke-miterlimit:4;stroke-dasharray:none;stroke-opacity:1"
         transform="matrix(1.3333333,0,0,-1.3333333,492.10533,435.47867)"
         clip-path="url(#clipPath334)" />
    </g>
  </g>
</svg>
