<?xml version="1.0" encoding="UTF-8" standalone="no"?>
<!-- Created with Inkscape (http://www.inkscape.org/) -->

<svg
   version="1.1"
   id="svg1"
   width="6.8829803"
   height="21.238667"
   viewBox="0 0 6.8829803 21.238667"
   xmlns="http://www.w3.org/2000/svg"
   xmlns:svg="http://www.w3.org/2000/svg">
  <defs
     id="defs1">
    <clipPath
       clipPathUnits="userSpaceOnUse"
       id="clipPath80">
      <path
         d="M 14,14 H 598 V 778 H 14 Z"
         transform="translate(-201.92001,-568.81901)"
         id="path80" />
    </clipPath>
  </defs>
  <g
     id="g1"
     style="display:inline"
     transform="translate(-264.91036,-276.576)">
    <g
       id="g619">
      <path
         id="path79"
         d="m 0,0 c 0.471,0 0.856,1.008 0.856,2.24 0,1.231 -0.735,2.975 -1.634,3.874 -0.9,0.899 -0.7,2.571 0.444,3.714 1.144,1.144 2.079,2.903 2.079,3.911 0,1.006 -0.386,1.83 -0.857,1.83 -0.471,0 -0.857,-0.824 -0.857,-1.83 0,-1.008 -0.936,-2.767 -2.08,-3.911 C -3.192,8.685 -3.392,7.013 -2.493,6.114 -1.594,5.215 -0.858,3.471 -0.858,2.24 -0.858,1.008 -0.472,0 0,0 Z"
         style="fill:#ffffff;fill-opacity:1;fill-rule:nonzero;stroke:#000000;stroke-width:0.36;stroke-linecap:butt;stroke-linejoin:miter;stroke-miterlimit:4;stroke-dasharray:none;stroke-opacity:1"
         transform="matrix(1.3333333,0,0,-1.3333333,269.22667,297.57467)"
         clip-path="url(#clipPath80)" />
    </g>
  </g>
</svg>
