<?xml version="1.0" encoding="UTF-8" standalone="no"?>
<!-- Created with Inkscape (http://www.inkscape.org/) -->

<svg
   version="1.1"
   id="svg1"
   width="25.745914"
   height="22.504093"
   viewBox="0 0 25.745914 22.504093"
   xmlns="http://www.w3.org/2000/svg"
   xmlns:svg="http://www.w3.org/2000/svg">
  <defs
     id="defs1">
    <clipPath
       clipPathUnits="userSpaceOnUse"
       id="clipPath336">
      <path
         d="M 14,14 H 598 V 778 H 14 Z"
         transform="translate(-375.08701,-442.50701)"
         id="path336" />
    </clipPath>
    <clipPath
       clipPathUnits="userSpaceOnUse"
       id="clipPath338">
      <path
         d="M 14,14 H 598 V 778 H 14 Z"
         transform="translate(-370.65701,-440.93001)"
         id="path338" />
    </clipPath>
    <clipPath
       clipPathUnits="userSpaceOnUse"
       id="clipPath340">
      <path
         d="M 14,14 H 598 V 778 H 14 Z"
         transform="translate(-383.21201,-445.07701)"
         id="path340" />
    </clipPath>
    <clipPath
       clipPathUnits="userSpaceOnUse"
       id="clipPath342">
      <path
         d="M 14,14 H 598 V 778 H 14 Z"
         transform="translate(-374.61401,-437.15401)"
         id="path342" />
    </clipPath>
  </defs>
  <g
     id="g1"
     style="display:inline"
     transform="translate(-486.19982,-462.30709)">
    <g
       id="g638">
      <path
         id="path335"
         d="M 0,0 C -0.227,0.068 -0.632,0.132 -0.993,0.021 -1.355,-0.095 -1.489,-0.275 -1.512,-0.477"
         style="fill:#ffffff;fill-opacity:1;fill-rule:nonzero;stroke:#000000;stroke-width:0.36;stroke-linecap:butt;stroke-linejoin:miter;stroke-miterlimit:4;stroke-dasharray:none;stroke-opacity:1"
         transform="matrix(1.3333333,0,0,-1.3333333,500.116,465.99067)"
         clip-path="url(#clipPath336)" />
      <path
         id="path337"
         d="M 0,0 C -0.315,0.089 -1.055,0.197 -1.414,0.039 -1.774,-0.12 -2.048,-0.726 -2.048,-1.088"
         style="fill:#ffffff;fill-opacity:1;fill-rule:nonzero;stroke:#000000;stroke-width:0.36;stroke-linecap:butt;stroke-linejoin:miter;stroke-miterlimit:4;stroke-dasharray:none;stroke-opacity:1"
         transform="matrix(1.3333333,0,0,-1.3333333,494.20933,468.09333)"
         clip-path="url(#clipPath338)" />
      <path
         id="path339"
         d="m 0,0 c -0.417,0.091 -1.354,-0.498 -1.76,-0.498 -0.405,0 -0.38,0.318 -0.857,0 -0.475,-0.314 -0.022,0.631 -0.925,0.047 -0.904,-0.588 -2.122,-1.108 -3.185,-1.605 -1.061,-0.493 -3.723,-1.17 -4.918,-1.692 -1.195,-0.519 -3.297,-1.399 -4.674,-2.864 -1.375,-1.469 -2.64,-3.343 -1.781,-5.712 0.858,-2.37 2.844,-3.997 5.665,-4.154 2.821,-0.158 4.898,0.406 4.898,0.746 0,0.337 -0.881,0.745 -2.821,0.745 -1.939,0 -5.236,0.812 -5.642,1.714 -0.407,0.907 1.736,4.63 2.776,4.719 1.036,0.09 2.052,-0.214 2.841,0.179 0.092,0.044 0.251,0.204 0.251,0.204 l 0.02,-1.149 0.656,-0.589 1.129,-0.046 0.565,-0.314 -0.319,0.518 0.838,-0.067 -0.564,0.269 0.79,0.046 -0.7,0.183 0.765,0.2 -1.646,0.068 v 1.129 c 0,0 1.22,0.295 1.67,0.768 0.451,0.473 1.782,1.693 2.371,1.828 0.191,0.044 0.533,-0.029 0.632,-0.269 0.221,-0.55 0.173,-1.555 0.518,-1.692 0.496,-0.206 1.468,-0.183 1.468,-0.183 l -0.431,0.362 0.815,-0.113 -0.497,0.271 0.743,-0.049 -0.609,0.206 0.519,0.156 -1.31,0.026 -0.045,0.721 c 0,0 -0.043,1.128 -0.381,1.491 -0.34,0.358 1.217,0.718 1.083,1.33 -0.136,0.609 0.589,0.181 0.835,0.927 0.247,0.743 1.625,0.789 1.601,1.147 -0.021,0.363 0.272,0.408 0.158,0.658 C 0.431,-0.09 0.205,-0.046 0,0 Z"
         style="fill:#ffffff;fill-opacity:1;fill-rule:nonzero;stroke:#000000;stroke-width:0.36;stroke-linecap:butt;stroke-linejoin:miter;stroke-miterlimit:4;stroke-dasharray:none;stroke-opacity:1"
         transform="matrix(1.3333333,0,0,-1.3333333,510.94933,462.564)"
         clip-path="url(#clipPath340)" />
      <path
         id="path341"
         d="m 0,0 -0.023,0.835 c 0,0 -0.789,1.241 -1.942,1.129 C -3.114,1.849 -3.699,1.399 -3.86,0.923 M 5.418,3.579 C 5.032,4.122 4.627,4.765 4.181,4.76 3.781,4.753 3.201,4.442 3.181,4.02 M 9.029,7.188 8.53,7.088 8.126,6.702 H 7.628 L 7.156,6.161 5.889,6.207 5.441,5.597 M -6.399,-6.106 C -7.451,-5.681 -9.842,-4 -9.783,-2.858"
         style="fill:none;stroke:#000000;stroke-width:0.36;stroke-linecap:butt;stroke-linejoin:miter;stroke-miterlimit:4;stroke-dasharray:none;stroke-opacity:1"
         transform="matrix(1.3333333,0,0,-1.3333333,499.48533,473.128)"
         clip-path="url(#clipPath342)" />
    </g>
  </g>
</svg>
