<?xml version="1.0" encoding="UTF-8" standalone="no"?>
<!-- Created with Inkscape (http://www.inkscape.org/) -->

<svg
   version="1.1"
   id="svg1"
   width="15.983224"
   height="22.763809"
   viewBox="0 0 15.983224 22.763809"
   xmlns="http://www.w3.org/2000/svg"
   xmlns:svg="http://www.w3.org/2000/svg">
  <defs
     id="defs1">
    <clipPath
       clipPathUnits="userSpaceOnUse"
       id="clipPath354">
      <path
         d="M 14,14 H 598 V 778 H 14 Z"
         transform="translate(-377.23501,-362.50401)"
         id="path354" />
    </clipPath>
  </defs>
  <g
     id="g1"
     style="display:inline"
     transform="translate(-488.71685,-572.3755)">
    <g
       id="g641">
      <path
         id="path353"
         d="m 0,0 c 0,0 -2.373,-2.479 -2.744,-3.322 -0.367,-0.844 -0.631,-3.481 -1.367,-4.166 -0.743,-0.686 -3.063,-1.635 -3.692,-2.215 -0.635,-0.58 -2.389,-2.514 -2.691,-3.375 -0.261,-0.735 1.734,3.058 4.219,3.111 1.265,0.027 1.845,-0.633 1.949,-1.266 0.107,-0.632 0.416,-2.873 -0.211,-5.273 -0.156,-0.605 0.812,0.531 1.002,1.16 0.371,1.213 0.255,3.674 0.424,4.008 0.156,0.316 1.109,-0.158 1.265,-0.369 0.156,-0.211 2.069,-2.695 2.426,-3.533 0.079,-0.184 0.156,1.054 0,1.634 -0.16,0.58 -1.478,2.426 -2.109,3.639 -0.635,1.213 -0.952,2.109 -0.737,3.111 0.209,1.002 1.684,3.85 2.266,4.43 0.58,0.58 1.055,0.949 1.107,1.266 C 1.156,-0.844 0.371,-0.158 0,0 Z"
         style="fill:#000000;fill-opacity:1;fill-rule:nonzero;stroke:#000000;stroke-width:0.36;stroke-linecap:butt;stroke-linejoin:miter;stroke-miterlimit:4;stroke-dasharray:none;stroke-opacity:1"
         transform="matrix(1.3333333,0,0,-1.3333333,502.98,572.66133)"
         clip-path="url(#clipPath354)" />
    </g>
  </g>
</svg>
