<?xml version="1.0" encoding="UTF-8" standalone="no"?>
<!-- Created with Inkscape (http://www.inkscape.org/) -->

<svg
   version="1.1"
   id="svg1"
   width="26.92244"
   height="21.595148"
   viewBox="0 0 26.92244 21.595148"
   xmlns="http://www.w3.org/2000/svg"
   xmlns:svg="http://www.w3.org/2000/svg">
  <defs
     id="defs1">
    <clipPath
       clipPathUnits="userSpaceOnUse"
       id="clipPath238">
      <path
         d="M 14,14 H 598 V 778 H 14 Z"
         transform="translate(-374.34401,-289.474)"
         id="path238" />
    </clipPath>
  </defs>
  <g
     id="g1"
     style="display:inline"
     transform="translate(-486.2108,-648.67952)">
    <g
       id="g643">
      <path
         id="path237"
         d="m 0,0 h -0.344 c 0,0 -2.071,7.138 -4.021,8.249 -1.949,1.11 -4.319,1.68 -4.8,1.379 -0.479,-0.299 -0.42,1.021 -0.029,2.282 0.39,1.259 1.14,2.279 1.38,1.768 0.239,-0.509 2.22,-1.949 2.729,-2.789 0.51,-0.841 1.38,-2.82 1.681,-2.76 0.3,0.06 -2.52,6.3 -3.451,6.66 -0.93,0.36 1.23,1.171 2.521,0.839 1.289,-0.329 3.24,-0.839 2.55,-1.319 -0.69,-0.48 -1.32,-3.84 -1.081,-5.099 0.24,-1.261 0.811,-3.721 1.17,-3.691 0.36,0.029 0.781,3.72 0.271,4.59 -0.263,0.449 -0.736,1.217 -1.231,1.875 -0.059,0.076 0.14,0.788 0.245,1.102 0.2,0.597 0.37,1.03 0.626,1.223 0.388,0.294 -0.038,0.591 -1.291,0.975 -0.097,0.028 -0.316,0.097 -0.316,0.097 0,0 0.779,0.297 1.217,0.398 1.169,0.27 4.38,-0.54 3.51,-0.959 -0.87,-0.421 -1.861,-2.522 -1.77,-4.291 0.09,-1.77 -0.45,-4.44 -0.571,-5.25 -0.12,-0.81 0.196,-2.775 0.601,-2.775 0.364,0 1.755,2.325 0.899,5.206 -0.587,1.98 -0.92,2.201 -0.92,2.201 v 0.065 c 0.002,0.192 0,0.377 -0.009,0.553 -0.091,1.769 0.9,3.87 1.77,4.291 0,0 0.327,0 1.373,-0.491 C 3.755,13.837 3.82,13.336 3.638,12.781 3.456,12.227 2.689,13.016 2.347,12.098 2.005,11.181 1.159,6.269 1.728,6.155 c 0.328,-0.066 3.609,7.843 2.758,8.454 -1.17,0.84 0.09,2.399 3.96,-0.914 1.25,-1.072 2.1,-2.386 1.829,-3.706 C 10.016,8.719 9.841,9.764 8.535,10.17 7.231,10.575 5.026,10.439 3.495,7.559 1.966,4.678 -0.615,2.25 0,0 Z"
         style="fill:#ffffff;fill-opacity:1;fill-rule:nonzero;stroke:#000000;stroke-width:0.36;stroke-linecap:butt;stroke-linejoin:miter;stroke-miterlimit:4;stroke-dasharray:none;stroke-opacity:1"
         transform="matrix(1.3333333,0,0,-1.3333333,499.12533,670.03467)"
         clip-path="url(#clipPath238)" />
    </g>
  </g>
</svg>
