<?xml version="1.0" encoding="UTF-8" standalone="no"?>
<!-- Created with Inkscape (http://www.inkscape.org/) -->

<svg
   version="1.1"
   id="svg1"
   width="18.576958"
   height="21.137333"
   viewBox="0 0 18.576958 21.137333"
   xmlns="http://www.w3.org/2000/svg"
   xmlns:svg="http://www.w3.org/2000/svg">
  <defs
     id="defs1">
    <clipPath
       clipPathUnits="userSpaceOnUse"
       id="clipPath82">
      <path
         d="M 14,14 H 598 V 778 H 14 Z"
         transform="translate(-201.03801,-555.52601)"
         id="path82" />
    </clipPath>
    <clipPath
       clipPathUnits="userSpaceOnUse"
       id="clipPath84">
      <path
         d="M 14,14 H 598 V 778 H 14 Z"
         transform="translate(-199.25601,-550.58801)"
         id="path84" />
    </clipPath>
    <clipPath
       clipPathUnits="userSpaceOnUse"
       id="clipPath86">
      <path
         d="M 14,14 H 598 V 778 H 14 Z"
         transform="translate(-202.37601,-545.49202)"
         id="path86" />
    </clipPath>
    <clipPath
       clipPathUnits="userSpaceOnUse"
       id="clipPath88">
      <path
         d="M 14,14 H 598 V 778 H 14 Z"
         transform="translate(-198.966,-547.35202)"
         id="path88" />
    </clipPath>
    <clipPath
       clipPathUnits="userSpaceOnUse"
       id="clipPath90">
      <path
         d="M 14,14 H 598 V 778 H 14 Z"
         transform="translate(-198.762,-549.21502)"
         id="path90" />
    </clipPath>
    <clipPath
       clipPathUnits="userSpaceOnUse"
       id="clipPath92">
      <path
         d="M 14,14 H 598 V 778 H 14 Z"
         transform="translate(-203.10901,-547.35202)"
         id="path92" />
    </clipPath>
    <clipPath
       clipPathUnits="userSpaceOnUse"
       id="clipPath94">
      <path
         d="M 14,14 H 598 V 778 H 14 Z"
         transform="translate(-203.31301,-549.21502)"
         id="path94" />
    </clipPath>
    <clipPath
       clipPathUnits="userSpaceOnUse"
       id="clipPath96">
      <path
         d="M 14,14 H 598 V 778 H 14 Z"
         transform="translate(-199.699,-545.49202)"
         id="path96" />
    </clipPath>
    <clipPath
       clipPathUnits="userSpaceOnUse"
       id="clipPath98">
      <path
         d="M 14,14 H 598 V 778 H 14 Z"
         transform="translate(-200.36101,-553.63201)"
         id="path98" />
    </clipPath>
    <clipPath
       clipPathUnits="userSpaceOnUse"
       id="clipPath100">
      <path
         d="M 14,14 H 598 V 778 H 14 Z"
         transform="translate(-202.315,-553.63201)"
         id="path100" />
    </clipPath>
  </defs>
  <g
     id="g1"
     style="display:inline"
     transform="translate(-258.7615,-315.05867)">
    <g
       id="g616">
      <path
         id="path81"
         d="M 0,0 C 0.965,0 2.485,-4.078 1.903,-4.76 1.32,-5.443 2.635,-5.326 2.219,-7.505 1.803,-9.686 1.07,-10.151 1.254,-10.501 c 0.183,-0.35 0.927,-3.889 0.266,-4.543 -0.397,-0.393 -0.533,-0.449 -0.533,-0.449 h -1.976 c 0,0 -0.135,0.056 -0.532,0.449 -0.661,0.654 0.083,4.193 0.266,4.543 0.183,0.35 -0.549,0.815 -0.966,2.996 -0.416,2.179 0.899,2.062 0.317,2.745 C -2.487,-4.078 -0.967,0 -0.002,0 Z"
         style="fill:#ffffff;fill-opacity:1;fill-rule:nonzero;stroke:#000000;stroke-width:0.36;stroke-linecap:butt;stroke-linejoin:miter;stroke-miterlimit:4;stroke-dasharray:none;stroke-opacity:1"
         transform="matrix(1.3333333,0,0,-1.3333333,268.05067,315.29867)"
         clip-path="url(#clipPath82)" />
      <path
         id="path83"
         d="m 0,0 1.779,-1.431 1.784,1.429 m -3.115,-5.794 1.331,0.273 1.336,-0.275"
         style="fill:none;stroke:#000000;stroke-width:0.36;stroke-linecap:butt;stroke-linejoin:miter;stroke-miterlimit:4;stroke-dasharray:none;stroke-opacity:1"
         transform="matrix(1.3333333,0,0,-1.3333333,265.67467,321.88267)"
         clip-path="url(#clipPath84)" />
      <path
         id="path85"
         d="M 0,0 0.107,0.213 2.299,0.744 3.503,-0.195 4.347,-1.47 3.128,-0.213 2.111,0.313 -0.082,-0.193 Z"
         style="fill:#ffffff;fill-opacity:1;fill-rule:nonzero;stroke:#000000;stroke-width:0.36;stroke-linecap:butt;stroke-linejoin:miter;stroke-miterlimit:4;stroke-dasharray:none;stroke-opacity:1"
         transform="matrix(1.3333333,0,0,-1.3333333,269.83467,328.67733)"
         clip-path="url(#clipPath86)" />
      <path
         id="path87"
         d="M 0,0 -0.048,0.191 -2.011,1.136 -3.193,0.733 -4.748,2.439 -3.38,0.508 -2.161,0.874 0.053,-0.181 Z"
         style="fill:#ffffff;fill-opacity:1;fill-rule:nonzero;stroke:#000000;stroke-width:0.36;stroke-linecap:butt;stroke-linejoin:miter;stroke-miterlimit:4;stroke-dasharray:none;stroke-opacity:1"
         transform="matrix(1.3333333,0,0,-1.3333333,265.288,326.19733)"
         clip-path="url(#clipPath88)" />
      <path
         id="path89"
         d="m 0,0 0.059,0.274 -0.424,0.115 -1.763,1.032 -1.256,0.356 -0.75,2.138 0.487,-2.269 1.406,-0.544 1.876,-1.144 0.34,-0.215 z"
         style="fill:#ffffff;fill-opacity:1;fill-rule:nonzero;stroke:#000000;stroke-width:0.36;stroke-linecap:butt;stroke-linejoin:miter;stroke-miterlimit:4;stroke-dasharray:none;stroke-opacity:1"
         transform="matrix(1.3333333,0,0,-1.3333333,265.016,323.71333)"
         clip-path="url(#clipPath90)" />
      <path
         id="path91"
         d="M 0,0 0.047,0.191 2.011,1.136 3.192,0.733 4.748,2.439 3.379,0.508 2.161,0.874 -0.053,-0.181 Z"
         style="fill:#ffffff;fill-opacity:1;fill-rule:nonzero;stroke:#000000;stroke-width:0.36;stroke-linecap:butt;stroke-linejoin:miter;stroke-miterlimit:4;stroke-dasharray:none;stroke-opacity:1"
         transform="matrix(1.3333333,0,0,-1.3333333,270.812,326.19733)"
         clip-path="url(#clipPath92)" />
      <path
         id="path93"
         d="M 0,0 -0.06,0.274 0.365,0.389 2.128,1.421 3.384,1.777 4.134,3.915 3.647,1.646 2.24,1.102 0.365,-0.042 0.024,-0.257 Z"
         style="fill:#ffffff;fill-opacity:1;fill-rule:nonzero;stroke:#000000;stroke-width:0.36;stroke-linecap:butt;stroke-linejoin:miter;stroke-miterlimit:4;stroke-dasharray:none;stroke-opacity:1"
         transform="matrix(1.3333333,0,0,-1.3333333,271.084,323.71333)"
         clip-path="url(#clipPath94)" />
      <path
         id="path95"
         d="m 0,0 -0.107,0.213 -2.192,0.531 -1.204,-0.939 -0.844,-1.275 1.219,1.257 1.016,0.526 2.194,-0.506 z"
         style="fill:#ffffff;fill-opacity:1;fill-rule:nonzero;stroke:#000000;stroke-width:0.36;stroke-linecap:butt;stroke-linejoin:miter;stroke-miterlimit:4;stroke-dasharray:none;stroke-opacity:1"
         transform="matrix(1.3333333,0,0,-1.3333333,266.26533,328.67733)"
         clip-path="url(#clipPath96)" />
      <path
         id="path97"
         d="m 0,0 c 0,-0.17 -0.126,-0.308 -0.28,-0.308 -0.155,0 -0.28,0.138 -0.28,0.308 0,0.171 0.125,0.309 0.28,0.309 C -0.126,0.309 0,0.171 0,0"
         style="fill:#000000;fill-opacity:1;fill-rule:nonzero;stroke:none"
         transform="matrix(1.3333333,0,0,-1.3333333,267.148,317.824)"
         clip-path="url(#clipPath98)" />
      <path
         id="path99"
         d="m 0,0 c 0,-0.17 -0.125,-0.308 -0.281,-0.308 -0.154,0 -0.28,0.138 -0.28,0.308 0,0.171 0.126,0.309 0.28,0.309 C -0.125,0.309 0,0.171 0,0"
         style="fill:#000000;fill-opacity:1;fill-rule:nonzero;stroke:none"
         transform="matrix(1.3333333,0,0,-1.3333333,269.75333,317.824)"
         clip-path="url(#clipPath100)" />
    </g>
  </g>
</svg>
