<?xml version="1.0" encoding="UTF-8" standalone="no"?>
<!-- Created with Inkscape (http://www.inkscape.org/) -->

<svg
   version="1.1"
   id="svg1"
   width="20.714666"
   height="22.029341"
   viewBox="0 0 20.714666 22.029341"
   xmlns="http://www.w3.org/2000/svg"
   xmlns:svg="http://www.w3.org/2000/svg">
  <defs
     id="defs1">
    <clipPath
       clipPathUnits="userSpaceOnUse"
       id="clipPath272">
      <path
         d="M 14,14 H 598 V 778 H 14 Z"
         transform="translate(-366.78401,-159.31701)"
         id="path272" />
    </clipPath>
    <clipPath
       clipPathUnits="userSpaceOnUse"
       id="clipPath274">
      <path
         d="M 14,14 H 598 V 778 H 14 Z"
         transform="translate(-381.95601,-159.34701)"
         id="path274" />
    </clipPath>
    <clipPath
       clipPathUnits="userSpaceOnUse"
       id="clipPath276">
      <path
         d="M 14,14 H 598 V 778 H 14 Z"
         transform="translate(-373.68001,-149.224)"
         id="path276" />
    </clipPath>
  </defs>
  <g
     id="g1"
     style="display:inline"
     transform="translate(-488.8,-835.24533)">
    <g
       id="g648">
      <path
         id="path271"
         d="m 0,0 c 0,3.352 3.387,6.069 7.588,6.069 4.199,0 7.58,-2.717 7.58,-6.069 z"
         style="fill:#ffffff;fill-opacity:1;fill-rule:nonzero;stroke:#000000;stroke-width:0.36;stroke-linecap:butt;stroke-linejoin:miter;stroke-miterlimit:4;stroke-dasharray:none;stroke-opacity:1"
         transform="matrix(1.3333333,0,0,-1.3333333,489.04533,843.57733)"
         clip-path="url(#clipPath272)" />
      <path
         id="path273"
         d="m 0,0 c 0,-0.477 -3.398,-0.864 -7.588,-0.864 -4.191,0 -7.588,0.387 -7.588,0.864 0,0.476 3.397,0.863 7.588,0.863 C -3.398,0.863 0,0.476 0,0"
         style="fill:#ffffff;fill-opacity:1;fill-rule:nonzero;stroke:#000000;stroke-width:0.36;stroke-linecap:butt;stroke-linejoin:miter;stroke-miterlimit:4;stroke-dasharray:none;stroke-opacity:1"
         transform="matrix(1.3333333,0,0,-1.3333333,509.27467,843.53733)"
         clip-path="url(#clipPath274)" />
      <path
         id="path275"
         d="m 0,0 c -0.032,0.886 1.411,2.922 2.133,4.988 0.723,2.066 0.263,5.973 0.263,5.973 l -1.673,0.031 -1.51,-0.031 c 0,0 0.459,-3.907 -0.263,-5.973 C -1.771,2.922 -3.215,0.886 -3.182,0 Z"
         style="fill:#ffffff;fill-opacity:1;fill-rule:nonzero;stroke:#000000;stroke-width:0.36;stroke-linecap:butt;stroke-linejoin:miter;stroke-miterlimit:4;stroke-dasharray:none;stroke-opacity:1"
         transform="matrix(1.3333333,0,0,-1.3333333,498.24,857.03467)"
         clip-path="url(#clipPath276)" />
    </g>
  </g>
</svg>
