<?xml version="1.0" encoding="UTF-8" standalone="no"?>
<!-- Created with Inkscape (http://www.inkscape.org/) -->

<svg
   version="1.1"
   id="svg1"
   width="22.616482"
   height="10.798349"
   viewBox="0 0 22.616482 10.798349"
   xmlns="http://www.w3.org/2000/svg"
   xmlns:svg="http://www.w3.org/2000/svg">
  <defs
     id="defs1">
    <clipPath
       clipPathUnits="userSpaceOnUse"
       id="clipPath280">
      <path
         d="M 14,14 H 598 V 778 H 14 Z"
         transform="translate(-382.39901,-103.993)"
         id="path280" />
    </clipPath>
    <clipPath
       clipPathUnits="userSpaceOnUse"
       id="clipPath282">
      <path
         d="M 14,14 H 598 V 778 H 14 Z"
         transform="translate(-382.36401,-104.013)"
         id="path282" />
    </clipPath>
  </defs>
  <g
     id="g1"
     style="display:inline"
     transform="translate(-487.5812,-913.59099)">
    <g
       id="g650">
      <path
         id="path279"
         d="M 0,0 C 0.434,1.594 -1.215,2.836 -2.807,2.606 L -2.928,2.535 c -0.468,-0.338 -2.217,-2.533 -2.843,-2.631 -0.743,-0.113 -7.288,0.227 -7.913,-0.113 -0.627,-0.34 -2.806,-1.822 -2.847,-2.617 -0.057,-1.082 1.082,-2.279 2.39,-2.279 0.87,0 1.993,1.537 2.504,1.652 2.131,0.459 5.157,-0.691 7.401,0.059 0.439,0.146 3.634,2.605 4.148,3.257 0.026,0.03 0.043,0.057 0.053,0.079 z"
         style="fill:#ffffff;fill-opacity:1;fill-rule:nonzero;stroke:#000000;stroke-width:0.36;stroke-linecap:butt;stroke-linejoin:miter;stroke-miterlimit:4;stroke-dasharray:none;stroke-opacity:1"
         transform="matrix(1.3333333,0,0,-1.3333333,509.86533,917.34267)"
         clip-path="url(#clipPath280)" />
      <path
         id="path281"
         d="M 0,0 C -1.539,-0.192 -2.926,1.131 -2.76,2.551"
         style="fill:none;stroke:#000000;stroke-width:0.36;stroke-linecap:butt;stroke-linejoin:miter;stroke-miterlimit:4;stroke-dasharray:none;stroke-opacity:1"
         transform="matrix(1.3333333,0,0,-1.3333333,509.81867,917.316)"
         clip-path="url(#clipPath282)" />
    </g>
  </g>
</svg>
