<?xml version="1.0" encoding="UTF-8" standalone="no"?>
<!-- Created with Inkscape (http://www.inkscape.org/) -->

<svg
   version="1.1"
   id="svg1"
   width="12.513799"
   height="22.023392"
   viewBox="0 0 12.513799 22.023392"
   xmlns="http://www.w3.org/2000/svg"
   xmlns:svg="http://www.w3.org/2000/svg">
  <defs
     id="defs1">
    <clipPath
       clipPathUnits="userSpaceOnUse"
       id="clipPath284">
      <path
         d="M 14,14 H 598 V 778 H 14 Z"
         transform="translate(-372.02101,-72.915002)"
         id="path284" />
    </clipPath>
    <clipPath
       clipPathUnits="userSpaceOnUse"
       id="clipPath286">
      <path
         d="M 14,14 H 598 V 778 H 14 Z"
         transform="translate(-377.87701,-74.448999)"
         id="path286" />
    </clipPath>
    <clipPath
       clipPathUnits="userSpaceOnUse"
       id="clipPath288">
      <path
         d="M 14,14 H 598 V 778 H 14 Z"
         transform="translate(-376.46701,-77.454999)"
         id="path288" />
    </clipPath>
    <clipPath
       clipPathUnits="userSpaceOnUse"
       id="clipPath290">
      <path
         d="M 14,14 H 598 V 778 H 14 Z"
         transform="translate(-373.07801,-68.979002)"
         id="path290" />
    </clipPath>
  </defs>
  <g
     id="g1"
     style="display:inline"
     transform="translate(-493.03023,-945.22519)">
    <g
       id="g651">
      <path
         id="path283"
         d="m 0,0 c -1.249,-0.097 -2.559,-1.667 -1.887,-2.914 0.672,-1.249 1.408,-1.594 2.944,-1.022 1.535,0.577 3.839,2.4 4.318,3.36 0.481,0.96 0.481,2.11 0.481,2.11 0,0 -1.344,-0.861 -2.687,-1.15 C 1.822,0.099 0,0 0,0 Z"
         style="fill:#ffffff;fill-opacity:1;fill-rule:nonzero;stroke:#000000;stroke-width:0.36;stroke-linecap:butt;stroke-linejoin:miter;stroke-miterlimit:4;stroke-dasharray:none;stroke-opacity:1"
         transform="matrix(1.3333333,0,0,-1.3333333,496.028,958.78)"
         clip-path="url(#clipPath284)" />
      <path
         id="path285"
         d="m 0,0 c 1.407,0.8 1.247,1.747 0.208,2.07 -2.175,0.667 -1.649,0.926 -1.649,0.926 0,0 -1.537,-0.289 -2.303,-1.056 -0.767,-0.769 -1.439,-1.343 -2.783,-1.054 -1.344,0.285 -1.136,-1.218 -0.464,-1.606 0.671,-0.381 1.135,-0.814 1.135,-0.814 0,0 1.822,0.099 3.169,0.384 C -1.344,-0.861 0,0 0,0 Z"
         style="fill:#ffffff;fill-opacity:1;fill-rule:nonzero;stroke:#000000;stroke-width:0.36;stroke-linecap:butt;stroke-linejoin:miter;stroke-miterlimit:4;stroke-dasharray:none;stroke-opacity:1"
         transform="matrix(1.3333333,0,0,-1.3333333,503.836,956.73467)"
         clip-path="url(#clipPath286)" />
      <path
         id="path287"
         d="M 0,0 C 1.932,0.79 0.726,2.673 0.226,3.527 -0.31,4.444 -2.631,5.673 -2.296,5.41 -0.255,3.811 -1.118,2.164 -0.543,1.782 0.032,1.399 -2.91,2.293 -3.966,1.623 -5.023,0.95 -6.241,-0.26 -5.762,-2.12 l 0.211,0.031 c 0.122,0.012 0.266,0.004 0.434,-0.031 1.344,-0.289 2.016,0.285 2.783,1.054 0.766,0.767 2.303,1.056 2.303,1.056 z"
         style="fill:#ffffff;fill-opacity:1;fill-rule:nonzero;stroke:#000000;stroke-width:0.36;stroke-linecap:butt;stroke-linejoin:miter;stroke-miterlimit:4;stroke-dasharray:none;stroke-opacity:1"
         transform="matrix(1.3333333,0,0,-1.3333333,501.956,952.72667)"
         clip-path="url(#clipPath288)" />
      <path
         id="path289"
         d="M 0,0 C 1.535,0.577 3.839,2.4 4.318,3.36 4.429,3.581 4.512,3.809 4.579,4.035 L 4.686,4.451 C 6.126,4.291 5.734,4.42 5.892,2.978 6.054,1.541 3.493,-0.941 2.135,-1.34 0.775,-1.739 -0.273,-2.848 -1.554,-1.808 -2.834,-0.764 0,0 0,0 Z"
         style="fill:#ffffff;fill-opacity:1;fill-rule:nonzero;stroke:#000000;stroke-width:0.36;stroke-linecap:butt;stroke-linejoin:miter;stroke-miterlimit:4;stroke-dasharray:none;stroke-opacity:1"
         transform="matrix(1.3333333,0,0,-1.3333333,497.43733,964.028)"
         clip-path="url(#clipPath290)" />
    </g>
  </g>
</svg>
