<?xml version="1.0" encoding="UTF-8" standalone="no"?>
<!-- Created with Inkscape (http://www.inkscape.org/) -->

<svg
   version="1.1"
   id="svg1"
   width="21.734659"
   height="20.480007"
   viewBox="0 0 21.734659 20.480007"
   xmlns="http://www.w3.org/2000/svg"
   xmlns:svg="http://www.w3.org/2000/svg">
  <defs
     id="defs1">
    <clipPath
       clipPathUnits="userSpaceOnUse"
       id="clipPath366">
      <path
         d="M 14,14 H 598 V 778 H 14 Z"
         transform="translate(-550.97201,-540.93502)"
         id="path366" />
    </clipPath>
    <clipPath
       clipPathUnits="userSpaceOnUse"
       id="clipPath368">
      <path
         d="M 14,14 H 598 V 778 H 14 Z"
         transform="translate(-546.86401,-548.06602)"
         id="path368" />
    </clipPath>
    <clipPath
       clipPathUnits="userSpaceOnUse"
       id="clipPath370">
      <path
         d="M 14,14 H 598 V 778 H 14 Z"
         transform="translate(-542.86102,-540.90401)"
         id="path370" />
    </clipPath>
  </defs>
  <g
     id="g1"
     style="display:inline"
     transform="translate(-718.35467,-314.55466)">
    <g
       id="g667"
       style="display:inline">
      <path
         id="path365"
         d="M 0,0 C 2.164,0 3.915,1.752 3.915,3.919 3.915,6.083 2.164,7.836 0,7.836 -2.166,7.836 -3.921,6.083 -3.921,3.919 -3.921,1.752 -2.166,0 0,0 Z"
         style="fill:#ffffff;fill-opacity:1;fill-rule:nonzero;stroke:#000000;stroke-width:0.36;stroke-linecap:butt;stroke-linejoin:miter;stroke-miterlimit:4;stroke-dasharray:none;stroke-opacity:1"
         transform="matrix(1.3333333,0,0,-1.3333333,734.62933,334.75333)"
         clip-path="url(#clipPath366)" />
      <path
         id="path367"
         d="M 0,0 C 2.159,0 3.911,1.758 3.911,3.92 3.911,6.082 2.159,7.838 0,7.838 -2.17,7.838 -3.922,6.082 -3.922,3.92 -3.922,1.758 -2.17,0 0,0 Z"
         style="fill:#ffffff;fill-opacity:1;fill-rule:nonzero;stroke:#000000;stroke-width:0.36;stroke-linecap:butt;stroke-linejoin:miter;stroke-miterlimit:4;stroke-dasharray:none;stroke-opacity:1"
         transform="matrix(1.3333333,0,0,-1.3333333,729.152,325.24533)"
         clip-path="url(#clipPath368)" />
      <path
         id="path369"
         d="M 0,0 C 2.166,0 3.921,1.754 3.921,3.916 3.921,6.08 2.166,7.836 0,7.836 -2.163,7.836 -3.915,6.08 -3.915,3.916 -3.915,1.754 -2.163,0 0,0 Z"
         style="fill:#ffffff;fill-opacity:1;fill-rule:nonzero;stroke:#000000;stroke-width:0.36;stroke-linecap:butt;stroke-linejoin:miter;stroke-miterlimit:4;stroke-dasharray:none;stroke-opacity:1"
         transform="matrix(1.3333333,0,0,-1.3333333,723.81467,334.79467)"
         clip-path="url(#clipPath370)" />
    </g>
  </g>
</svg>
