<?xml version="1.0" encoding="UTF-8" standalone="no"?>
<!-- Created with Inkscape (http://www.inkscape.org/) -->

<svg
   version="1.1"
   id="svg1"
   width="21.487997"
   height="8.368"
   viewBox="0 0 21.487997 8.368"
   xmlns="http://www.w3.org/2000/svg"
   xmlns:svg="http://www.w3.org/2000/svg">
  <defs
     id="defs1">
    <clipPath
       clipPathUnits="userSpaceOnUse"
       id="clipPath402">
      <path
         d="M 14,14 H 598 V 778 H 14 Z"
         transform="translate(-546.47501,-379.94401)"
         id="path402" />
    </clipPath>
    <clipPath
       clipPathUnits="userSpaceOnUse"
       id="clipPath404">
      <path
         d="M 14,14 H 598 V 778 H 14 Z"
         transform="translate(-551.37901,-378.96001)"
         id="path404" />
    </clipPath>
    <clipPath
       clipPathUnits="userSpaceOnUse"
       id="clipPath406">
      <path
         d="M 14,14 H 598 V 778 H 14 Z"
         transform="translate(-541.54402,-378.96001)"
         id="path406" />
    </clipPath>
  </defs>
  <g
     id="g1"
     style="display:inline"
     transform="translate(-717.88,-542.592)">
    <g
       id="g662">
      <path
         id="path401"
         d="M 0,0 C 1.093,0 1.978,0.885 1.978,1.975 1.978,3.065 1.093,3.948 0,3.948 -1.088,3.948 -1.97,3.065 -1.97,1.975 -1.97,0.885 -1.088,0 0,0 Z"
         style="fill:#ffffff;fill-opacity:1;fill-rule:nonzero;stroke:#000000;stroke-width:0.36;stroke-linecap:butt;stroke-linejoin:miter;stroke-miterlimit:4;stroke-dasharray:none;stroke-opacity:1"
         transform="matrix(1.3333333,0,0,-1.3333333,728.63333,549.408)"
         clip-path="url(#clipPath402)" />
      <path
         id="path403"
         d="M 0,0 C 1.641,0 2.967,1.324 2.967,2.959 2.967,4.592 1.641,5.916 0,5.916 -1.63,5.916 -2.955,4.592 -2.955,2.959 -2.955,1.324 -1.63,0 0,0 Z"
         style="fill:#ffffff;fill-opacity:1;fill-rule:nonzero;stroke:#000000;stroke-width:0.36;stroke-linecap:butt;stroke-linejoin:miter;stroke-miterlimit:4;stroke-dasharray:none;stroke-opacity:1"
         transform="matrix(1.3333333,0,0,-1.3333333,735.172,550.72)"
         clip-path="url(#clipPath404)" />
      <path
         id="path405"
         d="M 0,0 C 1.641,0 2.968,1.324 2.968,2.959 2.968,4.592 1.641,5.916 0,5.916 -1.63,5.916 -2.954,4.592 -2.954,2.959 -2.954,1.324 -1.63,0 0,0 Z"
         style="fill:#ffffff;fill-opacity:1;fill-rule:nonzero;stroke:#000000;stroke-width:0.36;stroke-linecap:butt;stroke-linejoin:miter;stroke-miterlimit:4;stroke-dasharray:none;stroke-opacity:1"
         transform="matrix(1.3333333,0,0,-1.3333333,722.05867,550.72)"
         clip-path="url(#clipPath406)" />
    </g>
  </g>
</svg>
