<?xml version="1.0" encoding="UTF-8" standalone="no"?>
<!-- Created with Inkscape (http://www.inkscape.org/) -->

<svg
   version="1.1"
   id="svg1"
   width="26.527121"
   height="21.177015"
   viewBox="0 0 26.527121 21.177015"
   xmlns="http://www.w3.org/2000/svg"
   xmlns:svg="http://www.w3.org/2000/svg">
  <defs
     id="defs1">
    <clipPath
       clipPathUnits="userSpaceOnUse"
       id="clipPath124">
      <path
         d="M 14,14 H 598 V 778 H 14 Z"
         transform="translate(-197.90001,-493.65901)"
         id="path124" />
    </clipPath>
    <clipPath
       clipPathUnits="userSpaceOnUse"
       id="clipPath126">
      <path
         d="M 14,14 H 598 V 778 H 14 Z"
         transform="translate(-205.77601,-493.66701)"
         id="path126" />
    </clipPath>
    <clipPath
       clipPathUnits="userSpaceOnUse"
       id="clipPath128">
      <path
         d="M 14,14 H 598 V 778 H 14 Z"
         transform="translate(-197.96901,-499.20601)"
         id="path128" />
    </clipPath>
    <clipPath
       clipPathUnits="userSpaceOnUse"
       id="clipPath130">
      <path
         d="M 14,14 H 598 V 778 H 14 Z"
         transform="translate(-201.84001,-488.96001)"
         id="path130" />
    </clipPath>
    <clipPath
       clipPathUnits="userSpaceOnUse"
       id="clipPath132">
      <path
         d="M 14,14 H 598 V 778 H 14 Z"
         transform="translate(-198.525,-491.24501)"
         id="path132" />
    </clipPath>
    <clipPath
       clipPathUnits="userSpaceOnUse"
       id="clipPath134">
      <path
         d="M 14,14 H 598 V 778 H 14 Z"
         transform="translate(-199.00401,-490.35201)"
         id="path134" />
    </clipPath>
    <clipPath
       clipPathUnits="userSpaceOnUse"
       id="clipPath136">
      <path
         d="M 14,14 H 598 V 778 H 14 Z"
         transform="translate(-199.411,-489.80301)"
         id="path136" />
    </clipPath>
    <clipPath
       clipPathUnits="userSpaceOnUse"
       id="clipPath138">
      <path
         d="M 14,14 H 598 V 778 H 14 Z"
         transform="translate(-205.71001,-499.20601)"
         id="path138" />
    </clipPath>
    <clipPath
       clipPathUnits="userSpaceOnUse"
       id="clipPath140">
      <path
         d="M 14,14 H 598 V 778 H 14 Z"
         transform="translate(-205.15501,-491.24501)"
         id="path140" />
    </clipPath>
    <clipPath
       clipPathUnits="userSpaceOnUse"
       id="clipPath142">
      <path
         d="M 14,14 H 598 V 778 H 14 Z"
         transform="translate(-204.67401,-490.35201)"
         id="path142" />
    </clipPath>
    <clipPath
       clipPathUnits="userSpaceOnUse"
       id="clipPath144">
      <path
         d="M 14,14 H 598 V 778 H 14 Z"
         transform="translate(-204.26901,-489.80301)"
         id="path144" />
    </clipPath>
    <clipPath
       clipPathUnits="userSpaceOnUse"
       id="clipPath146">
      <path
         d="M 14,14 H 598 V 778 H 14 Z"
         transform="translate(-204.26901,-489.80301)"
         id="path146" />
    </clipPath>
  </defs>
  <g
     id="g1"
     style="display:inline"
     transform="translate(-255.85644,-388.10871)">
    <g
       id="g621">
      <path
         id="path123"
         d="M 0,0 C -0.335,-0.43 -0.424,-0.707 -0.424,-0.707 L -1.69,1.548 -1.365,3.029 0.069,5.547 2.447,7.109 0.946,5.067 2.968,6.48 1.274,4.054 0.131,2.662 0.031,1.548 0.537,0.564 C 0.537,0.564 0.237,0.304 0,0 Z"
         style="fill:#ffffff;fill-opacity:1;fill-rule:nonzero;stroke:#000000;stroke-width:0.36;stroke-linecap:butt;stroke-linejoin:miter;stroke-miterlimit:4;stroke-dasharray:none;stroke-opacity:1"
         transform="matrix(1.3333333,0,0,-1.3333333,263.86667,397.788)"
         clip-path="url(#clipPath124)" />
      <path
         id="path125"
         d="M 0,0 C 0.345,-0.444 0.427,-0.715 0.427,-0.715 L 1.694,1.54 1.369,3.021 -0.065,5.539 -2.444,7.101 -0.942,5.059 -2.964,6.472 -1.271,4.046 -0.127,2.654 -0.027,1.54 -0.533,0.556 c 0,0 0.312,-0.27 0.533,-0.556 z"
         style="fill:#ffffff;fill-opacity:1;fill-rule:nonzero;stroke:#000000;stroke-width:0.36;stroke-linecap:butt;stroke-linejoin:miter;stroke-miterlimit:4;stroke-dasharray:none;stroke-opacity:1"
         transform="matrix(1.3333333,0,0,-1.3333333,274.368,397.77733)"
         clip-path="url(#clipPath126)" />
      <path
         id="path127"
         d="M 0,0 0.873,-0.479 1.2,-1.494"
         style="fill:none;stroke:#000000;stroke-width:0.36;stroke-linecap:butt;stroke-linejoin:miter;stroke-miterlimit:4;stroke-dasharray:none;stroke-opacity:1"
         transform="matrix(1.3333333,0,0,-1.3333333,263.95867,390.392)"
         clip-path="url(#clipPath128)" />
      <path
         id="path129"
         d="M 0,0 C 0.543,0 1.613,0.024 2.382,0.794 3.152,1.564 3.284,2.817 4.33,3.42 4.918,3.759 3.124,6.569 0,6.569 -3.125,6.569 -4.919,3.759 -4.33,3.42 -3.283,2.817 -3.152,1.564 -2.382,0.794 -1.612,0.024 -0.544,0 0,0 Z"
         style="fill:#ffffff;fill-opacity:1;fill-rule:nonzero;stroke:#000000;stroke-width:0.36;stroke-linecap:butt;stroke-linejoin:miter;stroke-miterlimit:4;stroke-dasharray:none;stroke-opacity:1"
         transform="matrix(1.3333333,0,0,-1.3333333,269.12,404.05333)"
         clip-path="url(#clipPath130)" />
      <path
         id="path131"
         d="M 0,0 C 0,0 -0.144,0.265 -0.306,0.486 -0.467,0.703 -0.627,0.845 -0.627,0.845 L -2.438,1.502 -3.961,3.05 -4.065,6.988 -4.407,3.024 -2.596,0.951 Z"
         style="fill:#ffffff;fill-opacity:1;fill-rule:nonzero;stroke:#000000;stroke-width:0.36;stroke-linecap:butt;stroke-linejoin:miter;stroke-miterlimit:4;stroke-dasharray:none;stroke-opacity:1"
         transform="matrix(1.3333333,0,0,-1.3333333,264.7,401.00667)"
         clip-path="url(#clipPath132)" />
      <path
         id="path133"
         d="m 0,0 -0.319,0.588 -3.096,1.05 -1.837,0.183 -1.575,-1.18 -0.105,-1.733 0.446,1.417 1.365,0.997 1.576,-0.183 z"
         style="fill:#ffffff;fill-opacity:1;fill-rule:nonzero;stroke:#000000;stroke-width:0.36;stroke-linecap:butt;stroke-linejoin:miter;stroke-miterlimit:4;stroke-dasharray:none;stroke-opacity:1"
         transform="matrix(1.3333333,0,0,-1.3333333,265.33867,402.19733)"
         clip-path="url(#clipPath134)" />
      <path
         id="path135"
         d="m 0,0 c 0,0 -0.147,0.157 -0.227,0.274 -0.094,0.135 -0.18,0.275 -0.18,0.275 l -2.575,0.194 -1.653,-0.525 -1.339,-1.103 -0.473,-2.1 0.867,1.76 1.286,0.839 1.575,0.551 z"
         style="fill:#ffffff;fill-opacity:1;fill-rule:nonzero;stroke:#000000;stroke-width:0.36;stroke-linecap:butt;stroke-linejoin:miter;stroke-miterlimit:4;stroke-dasharray:none;stroke-opacity:1"
         transform="matrix(1.3333333,0,0,-1.3333333,265.88133,402.92933)"
         clip-path="url(#clipPath136)" />
      <path
         id="path137"
         d="M 0,0 -0.873,-0.479 -1.2,-1.494"
         style="fill:none;stroke:#000000;stroke-width:0.36;stroke-linecap:butt;stroke-linejoin:miter;stroke-miterlimit:4;stroke-dasharray:none;stroke-opacity:1"
         transform="matrix(1.3333333,0,0,-1.3333333,274.28,390.392)"
         clip-path="url(#clipPath138)" />
      <path
         id="path139"
         d="M 0,0 C 0,0 0.142,0.265 0.306,0.486 0.467,0.703 0.627,0.845 0.627,0.845 L 2.437,1.502 3.96,3.05 4.065,6.988 4.406,3.024 2.596,0.951 Z"
         style="fill:#ffffff;fill-opacity:1;fill-rule:nonzero;stroke:#000000;stroke-width:0.36;stroke-linecap:butt;stroke-linejoin:miter;stroke-miterlimit:4;stroke-dasharray:none;stroke-opacity:1"
         transform="matrix(1.3333333,0,0,-1.3333333,273.54,401.00667)"
         clip-path="url(#clipPath140)" />
      <path
         id="path141"
         d="M 0,0 0.321,0.588 3.416,1.638 5.254,1.821 6.829,0.641 6.934,-1.092 6.488,0.325 5.122,1.322 3.547,1.139 Z"
         style="fill:#ffffff;fill-opacity:1;fill-rule:nonzero;stroke:#000000;stroke-width:0.36;stroke-linecap:butt;stroke-linejoin:miter;stroke-miterlimit:4;stroke-dasharray:none;stroke-opacity:1"
         transform="matrix(1.3333333,0,0,-1.3333333,272.89867,402.19733)"
         clip-path="url(#clipPath142)" />
      <path
         id="path143"
         d="M 0,0 C 0,0 0.147,0.157 0.227,0.274 0.32,0.409 0.405,0.549 0.405,0.549 l 2.577,0.194 1.653,-0.525 1.339,-1.103 0.472,-2.1 -0.866,1.76 -1.286,0.839 -1.575,0.551 z"
         style="fill:#ffffff;fill-opacity:1;fill-rule:nonzero;stroke:#000000;stroke-width:0.36;stroke-linecap:butt;stroke-linejoin:miter;stroke-miterlimit:4;stroke-dasharray:none;stroke-opacity:1"
         transform="matrix(1.3333333,0,0,-1.3333333,272.35867,402.92933)"
         clip-path="url(#clipPath144)" />
      <path
         id="path145"
         d="M 0,0 0.435,-0.412 2.403,-1.278 3.742,-2.486 4.32,-3.51 2.876,-4.402 3.165,-2.801 1.879,-2.223 0.198,-1.121 -2.427,-0.99 h -0.005 l -2.625,-0.131 -1.68,-1.102 -1.286,-0.578 0.289,-1.601 -1.445,0.892 0.579,1.024 1.338,1.208 1.969,0.866 0.435,0.412 0.17,-0.163 c 0.756,-0.659 1.744,-0.68 2.259,-0.68 0.515,0 1.504,0.022 2.262,0.681 z"
         style="fill:#ffffff;fill-opacity:1;fill-rule:nonzero;stroke:#000000;stroke-width:0.36;stroke-linecap:butt;stroke-linejoin:miter;stroke-miterlimit:4;stroke-dasharray:none;stroke-opacity:1"
         transform="matrix(1.3333333,0,0,-1.3333333,272.35867,402.92933)"
         clip-path="url(#clipPath146)" />
    </g>
  </g>
</svg>
