<?xml version="1.0" encoding="UTF-8" standalone="no"?>
<!-- Created with Inkscape (http://www.inkscape.org/) -->

<svg
   version="1.1"
   id="svg1"
   width="21.400129"
   height="16.960381"
   viewBox="0 0 21.400129 16.960381"
   xmlns="http://www.w3.org/2000/svg"
   xmlns:svg="http://www.w3.org/2000/svg">
  <defs
     id="defs1">
    <clipPath
       clipPathUnits="userSpaceOnUse"
       id="clipPath434">
      <path
         d="M 14,14 H 598 V 778 H 14 Z"
         transform="translate(-546.83902,-218.89501)"
         id="path434" />
    </clipPath>
    <clipPath
       clipPathUnits="userSpaceOnUse"
       id="clipPath436">
      <path
         d="M 14,14 H 598 V 778 H 14 Z"
         transform="translate(-546.83902,-216.469)"
         id="path436" />
    </clipPath>
    <clipPath
       clipPathUnits="userSpaceOnUse"
       id="clipPath438">
      <path
         d="M 14,14 H 598 V 778 H 14 Z"
         transform="translate(-548.85301,-214.465)"
         id="path438" />
    </clipPath>
    <clipPath
       clipPathUnits="userSpaceOnUse"
       id="clipPath440">
      <path
         d="M 14,14 H 598 V 778 H 14 Z"
         transform="translate(-547.65001,-212.80701)"
         id="path440" />
    </clipPath>
    <clipPath
       clipPathUnits="userSpaceOnUse"
       id="clipPath442">
      <path
         d="M 14,14 H 598 V 778 H 14 Z"
         transform="translate(-545.30002,-213.23401)"
         id="path442" />
    </clipPath>
  </defs>
  <g
     id="g1"
     style="display:inline"
     transform="translate(-718.41398,-763.20848)">
    <g
       id="g656">
      <path
         id="path433"
         d="m 0,0 -0.436,-1.622 -3.604,-3.601 -3.969,-0.432 3.969,-0.433 3.604,-3.608 0.434,-1.625 0.431,1.629 3.606,3.604 3.967,0.433 -3.967,0.434 -3.606,3.599 z"
         style="fill:#ffffff;fill-opacity:1;fill-rule:nonzero;stroke:#000000;stroke-width:0.36;stroke-linecap:butt;stroke-linejoin:miter;stroke-miterlimit:4;stroke-dasharray:none;stroke-opacity:1"
         transform="matrix(1.3333333,0,0,-1.3333333,729.11867,764.14)"
         clip-path="url(#clipPath434)" />
      <path
         id="path435"
         d="m 0,0 -1.326,-1.313 0.561,-1.482 H 0.786 L 1.339,-1.326 0,0"
         style="fill:#000000;fill-opacity:1;fill-rule:nonzero;stroke:none"
         transform="matrix(1.3333333,0,0,-1.3333333,729.11867,767.37467)"
         clip-path="url(#clipPath436)" />
      <path
         id="path437"
         d="M 0,0 -0.454,-1.229 0.101,-2.354 1.224,-1.229 0,0"
         style="fill:#000000;fill-opacity:1;fill-rule:nonzero;stroke:none"
         transform="matrix(1.3333333,0,0,-1.3333333,731.804,770.04667)"
         clip-path="url(#clipPath438)" />
      <path
         id="path439"
         d="M 0,0 H -1.605 L -2.264,-1.362 -0.813,-2.813 0.649,-1.342 0,0"
         style="fill:#000000;fill-opacity:1;fill-rule:nonzero;stroke:none"
         transform="matrix(1.3333333,0,0,-1.3333333,730.2,772.25733)"
         clip-path="url(#clipPath440)" />
      <path
         id="path441"
         d="M 0,0 -0.462,1.248 -1.703,0 -0.563,-1.138 0,0"
         style="fill:#000000;fill-opacity:1;fill-rule:nonzero;stroke:none"
         transform="matrix(1.3333333,0,0,-1.3333333,727.06667,771.688)"
         clip-path="url(#clipPath442)" />
    </g>
  </g>
</svg>
