<?xml version="1.0" encoding="UTF-8" standalone="no"?>
<!-- Created with Inkscape (http://www.inkscape.org/) -->

<svg
   version="1.1"
   id="svg1"
   width="17.627777"
   height="23.876148"
   viewBox="0 0 17.627777 23.876148"
   xmlns="http://www.w3.org/2000/svg"
   xmlns:svg="http://www.w3.org/2000/svg">
  <defs
     id="defs1">
    <clipPath
       clipPathUnits="userSpaceOnUse"
       id="clipPath148">
      <path
         d="M 14,14 H 598 V 778 H 14 Z"
         transform="translate(-201.28,-459.31001)"
         id="path148" />
    </clipPath>
    <clipPath
       clipPathUnits="userSpaceOnUse"
       id="clipPath150">
      <path
         d="M 14,14 H 598 V 778 H 14 Z"
         transform="translate(-198.091,-463.48801)"
         id="path150" />
    </clipPath>
    <clipPath
       clipPathUnits="userSpaceOnUse"
       id="clipPath152">
      <path
         d="M 14,14 H 598 V 778 H 14 Z"
         transform="translate(-198.447,-467.22701)"
         id="path152" />
    </clipPath>
    <clipPath
       clipPathUnits="userSpaceOnUse"
       id="clipPath154">
      <path
         d="M 14,14 H 598 V 778 H 14 Z"
         transform="translate(-199.311,-469.62501)"
         id="path154" />
    </clipPath>
    <clipPath
       clipPathUnits="userSpaceOnUse"
       id="clipPath156">
      <path
         d="M 14,14 H 598 V 778 H 14 Z"
         transform="translate(-200.66601,-472.18401)"
         id="path156" />
    </clipPath>
    <clipPath
       clipPathUnits="userSpaceOnUse"
       id="clipPath158">
      <path
         d="M 14,14 H 598 V 778 H 14 Z"
         transform="translate(-200.84701,-472.26701)"
         id="path158" />
    </clipPath>
    <clipPath
       clipPathUnits="userSpaceOnUse"
       id="clipPath160">
      <path
         d="M 14,14 H 598 V 778 H 14 Z"
         transform="translate(-204.406,-463.48801)"
         id="path160" />
    </clipPath>
    <clipPath
       clipPathUnits="userSpaceOnUse"
       id="clipPath162">
      <path
         d="M 14,14 H 598 V 778 H 14 Z"
         transform="translate(-204.05001,-467.22701)"
         id="path162" />
    </clipPath>
    <clipPath
       clipPathUnits="userSpaceOnUse"
       id="clipPath164">
      <path
         d="M 14,14 H 598 V 778 H 14 Z"
         transform="translate(-203.18301,-469.62501)"
         id="path164" />
    </clipPath>
    <clipPath
       clipPathUnits="userSpaceOnUse"
       id="clipPath166">
      <path
         d="M 14,14 H 598 V 778 H 14 Z"
         transform="translate(-201.832,-472.18401)"
         id="path166" />
    </clipPath>
    <clipPath
       clipPathUnits="userSpaceOnUse"
       id="clipPath168">
      <path
         d="M 14,14 H 598 V 778 H 14 Z"
         transform="translate(-201.65001,-472.26701)"
         id="path168" />
    </clipPath>
    <clipPath
       clipPathUnits="userSpaceOnUse"
       id="clipPath170">
      <path
         d="M 14,14 H 598 V 778 H 14 Z"
         transform="translate(-200.72401,-471.98301)"
         id="path170" />
    </clipPath>
    <clipPath
       clipPathUnits="userSpaceOnUse"
       id="clipPath172">
      <path
         d="M 14,14 H 598 V 778 H 14 Z"
         transform="translate(-201.77701,-471.98301)"
         id="path172" />
    </clipPath>
    <clipPath
       clipPathUnits="userSpaceOnUse"
       id="clipPath174">
      <path
         d="M 14,14 H 598 V 778 H 14 Z"
         transform="translate(-200.43801,-470.96401)"
         id="path174" />
    </clipPath>
  </defs>
  <g
     id="g1"
     style="display:inline"
     transform="translate(-259.51745,-423.17913)">
    <g
       id="g622">
      <path
         id="path147"
         d="M 0,0 C 0,0 0.917,0.37 1.598,0.657 2.282,0.946 3.122,1.39 3.148,5.015 3.174,8.634 2.308,8.082 2.334,8.607 2.36,9.129 2.123,9.733 1.759,10.705 1.39,11.676 0.34,11.625 0.865,11.808 1.838,12.147 0.578,13.014 -0.028,13.066 H -0.034 C -0.638,13.014 -1.897,12.147 -0.925,11.808 -0.401,11.625 -1.452,11.676 -1.818,10.705 -2.186,9.733 -2.419,9.129 -2.397,8.607 -2.367,8.082 -3.234,8.634 -3.21,5.015 -3.182,1.39 -2.341,0.946 -1.661,0.657 -0.979,0.37 -0.06,0 -0.06,0 Z"
         style="fill:#ffffff;fill-opacity:1;fill-rule:nonzero;stroke:#000000;stroke-width:0.36;stroke-linecap:butt;stroke-linejoin:miter;stroke-miterlimit:4;stroke-dasharray:none;stroke-opacity:1"
         transform="matrix(1.3333333,0,0,-1.3333333,268.37333,443.58667)"
         clip-path="url(#clipPath148)" />
      <path
         id="path149"
         d="m 0,0 -0.014,0.443 c 0,0 -1.396,-0.916 -1.324,-1.899 C -1.268,-2.438 0.16,-3.658 0.137,-3.94 0.115,-4.221 0.115,-5.605 0.115,-5.605 l -0.727,-1.051 1.148,1.218 0.023,1.803 c 0,0 -1.71,2.06 -1.499,2.271 0.21,0.212 0.966,0.975 0.966,0.975 z"
         style="fill:#ffffff;fill-opacity:1;fill-rule:nonzero;stroke:#000000;stroke-width:0.36;stroke-linecap:butt;stroke-linejoin:miter;stroke-miterlimit:4;stroke-dasharray:none;stroke-opacity:1"
         transform="matrix(1.3333333,0,0,-1.3333333,264.12133,438.016)"
         clip-path="url(#clipPath150)" />
      <path
         id="path151"
         d="M 0,0 0.11,0.182 0.212,0.31 c 0,0 -0.689,0.162 -0.9,-0.026 -0.21,-0.185 -1.476,-1.99 -1.476,-1.99 l -1.524,-1.382 1.759,1.147 c 0,0 1.062,1.608 1.241,1.712 0.226,0.13 0.583,-0.021 0.583,-0.021 z"
         style="fill:#ffffff;fill-opacity:1;fill-rule:nonzero;stroke:#000000;stroke-width:0.36;stroke-linecap:butt;stroke-linejoin:miter;stroke-miterlimit:4;stroke-dasharray:none;stroke-opacity:1"
         transform="matrix(1.3333333,0,0,-1.3333333,264.596,433.03067)"
         clip-path="url(#clipPath152)" />
      <path
         id="path153"
         d="M 0,0 -0.638,0.161 -0.872,1.708 -2.231,2.62 -1.128,1.613 c 0,0 0.068,-1.384 0.279,-1.593 0.211,-0.213 0.645,-0.59 0.645,-0.59 z"
         style="fill:#ffffff;fill-opacity:1;fill-rule:nonzero;stroke:#000000;stroke-width:0.36;stroke-linecap:butt;stroke-linejoin:miter;stroke-miterlimit:4;stroke-dasharray:none;stroke-opacity:1"
         transform="matrix(1.3333333,0,0,-1.3333333,265.748,429.83333)"
         clip-path="url(#clipPath154)" />
      <path
         id="path155"
         d="m 0,0 c 0,0 -0.962,1.209 -1.83,1.489 -0.866,0.28 -1.591,0.796 -1.591,0.796 0,0 0.866,-0.749 1.405,-0.935 0.539,-0.19 1.884,-1.428 1.884,-1.428 z"
         style="fill:#ffffff;fill-opacity:1;fill-rule:nonzero;stroke:#000000;stroke-width:0.36;stroke-linecap:butt;stroke-linejoin:miter;stroke-miterlimit:4;stroke-dasharray:none;stroke-opacity:1"
         transform="matrix(1.3333333,0,0,-1.3333333,267.55467,426.42133)"
         clip-path="url(#clipPath156)" />
      <path
         id="path157"
         d="M 0,0 C 0,0 -0.278,0.555 0.203,0.581"
         style="fill:none;stroke:#000000;stroke-width:0.36;stroke-linecap:butt;stroke-linejoin:miter;stroke-miterlimit:4;stroke-dasharray:none;stroke-opacity:1"
         transform="matrix(1.3333333,0,0,-1.3333333,267.796,426.31067)"
         clip-path="url(#clipPath158)" />
      <path
         id="path159"
         d="m 0,0 0.017,0.443 c 0,0 1.393,-0.916 1.322,-1.899 -0.071,-0.982 -1.499,-2.202 -1.476,-2.484 0.025,-0.281 0.025,-1.665 0.025,-1.665 l 0.725,-1.051 -1.148,1.218 -0.024,1.803 c 0,0 1.71,2.06 1.501,2.271 -0.212,0.212 -0.967,0.975 -0.967,0.975 z"
         style="fill:#ffffff;fill-opacity:1;fill-rule:nonzero;stroke:#000000;stroke-width:0.36;stroke-linecap:butt;stroke-linejoin:miter;stroke-miterlimit:4;stroke-dasharray:none;stroke-opacity:1"
         transform="matrix(1.3333333,0,0,-1.3333333,272.54133,438.016)"
         clip-path="url(#clipPath160)" />
      <path
         id="path161"
         d="M 0,0 -0.108,0.182 -0.209,0.31 c 0,0 0.688,0.162 0.895,-0.026 0.215,-0.185 1.478,-1.99 1.478,-1.99 l 1.524,-1.382 -1.759,1.147 c 0,0 -1.059,1.608 -1.243,1.712 C 0.462,-0.099 0.105,-0.25 0.105,-0.25 Z"
         style="fill:#ffffff;fill-opacity:1;fill-rule:nonzero;stroke:#000000;stroke-width:0.36;stroke-linecap:butt;stroke-linejoin:miter;stroke-miterlimit:4;stroke-dasharray:none;stroke-opacity:1"
         transform="matrix(1.3333333,0,0,-1.3333333,272.06667,433.03067)"
         clip-path="url(#clipPath162)" />
      <path
         id="path163"
         d="m 0,0 0.641,0.161 0.234,1.547 1.36,0.912 -1.1,-1.007 c 0,0 -0.072,-1.384 -0.283,-1.593 C 0.641,-0.193 0.207,-0.57 0.207,-0.57 Z"
         style="fill:#ffffff;fill-opacity:1;fill-rule:nonzero;stroke:#000000;stroke-width:0.36;stroke-linecap:butt;stroke-linejoin:miter;stroke-miterlimit:4;stroke-dasharray:none;stroke-opacity:1"
         transform="matrix(1.3333333,0,0,-1.3333333,270.91067,429.83333)"
         clip-path="url(#clipPath164)" />
      <path
         id="path165"
         d="m 0,0 c 0,0 0.961,1.209 1.831,1.489 0.866,0.28 1.59,0.796 1.59,0.796 0,0 -0.867,-0.749 -1.406,-0.935 C 1.48,1.16 0.13,-0.078 0.13,-0.078 Z"
         style="fill:#ffffff;fill-opacity:1;fill-rule:nonzero;stroke:#000000;stroke-width:0.36;stroke-linecap:butt;stroke-linejoin:miter;stroke-miterlimit:4;stroke-dasharray:none;stroke-opacity:1"
         transform="matrix(1.3333333,0,0,-1.3333333,269.10933,426.42133)"
         clip-path="url(#clipPath166)" />
      <path
         id="path167"
         d="M 0,0 C 0,0 0.28,0.555 -0.203,0.581"
         style="fill:none;stroke:#000000;stroke-width:0.36;stroke-linecap:butt;stroke-linejoin:miter;stroke-miterlimit:4;stroke-dasharray:none;stroke-opacity:1"
         transform="matrix(1.3333333,0,0,-1.3333333,268.86667,426.31067)"
         clip-path="url(#clipPath168)" />
      <path
         id="path169"
         d="m 0,0 c -0.104,0.107 -0.339,0.042 -0.523,-0.144 -0.186,-0.183 -0.25,-0.421 -0.146,-0.523 0.107,-0.105 0.341,-0.041 0.525,0.142 C 0.041,-0.339 0.106,-0.105 0,0"
         style="fill:#000000;fill-opacity:1;fill-rule:nonzero;stroke:none"
         transform="matrix(1.3333333,0,0,-1.3333333,267.632,426.68933)"
         clip-path="url(#clipPath170)" />
      <path
         id="path171"
         d="M 0,0 C -0.104,-0.105 -0.039,-0.339 0.147,-0.525 0.331,-0.708 0.565,-0.772 0.671,-0.667 0.775,-0.565 0.711,-0.33 0.526,-0.144 0.341,0.042 0.107,0.107 0,0"
         style="fill:#000000;fill-opacity:1;fill-rule:nonzero;stroke:none"
         transform="matrix(1.3333333,0,0,-1.3333333,269.036,426.68933)"
         clip-path="url(#clipPath172)" />
      <path
         id="path173"
         d="M 0,0 C 0,0 0.457,0.243 0.808,0.239 1.22,0.229 1.625,0 1.625,0 m -3.18,-2.924 h 1.414 l 0.316,-0.313 h 1.314 l 0.354,0.355 h 1.33 m -4.571,-7.767 2.195,1.097 2.223,-1.099 m -2.226,1.099 v 6.315"
         style="fill:none;stroke:#000000;stroke-width:0.36;stroke-linecap:butt;stroke-linejoin:miter;stroke-miterlimit:4;stroke-dasharray:none;stroke-opacity:1"
         transform="matrix(1.3333333,0,0,-1.3333333,267.25067,428.048)"
         clip-path="url(#clipPath174)" />
    </g>
  </g>
</svg>
