<?xml version="1.0" encoding="UTF-8" standalone="no"?>
<!-- Created with Inkscape (http://www.inkscape.org/) -->

<svg
   version="1.1"
   id="svg1"
   width="36.594925"
   height="28.89723"
   viewBox="0 0 15.158359 8.0965119"
   xmlns="http://www.w3.org/2000/svg"
   xmlns:svg="http://www.w3.org/2000/svg">
  <defs
     id="defs1" />
  <g
     id="g1"
     style="display:inline;fill:none;fill-opacity:1;stroke:#000000;stroke-width:0.529066;stroke-dasharray:none;stroke-opacity:1"
     transform="matrix(0,-0.64758235,0.68452408,0,-166.65829,178.0512)">
    <g
       id="g618"
       style="fill:none;fill-opacity:1;stroke:#000000;stroke-width:0.529066;stroke-dasharray:none;stroke-opacity:1">
      <path
         style="fill:none;fill-opacity:1;fill-rule:nonzero;stroke:#000000;stroke-width:0.470281;stroke-linecap:butt;stroke-linejoin:bevel;stroke-dasharray:none;stroke-dashoffset:0;stroke-opacity:1;paint-order:normal"
         d="m 276.18719,250.15121 c -0.0643,0.42025 -0.23818,1.01398 -0.65784,1.45033 -0.41966,0.43635 -1.08504,0.71532 -1.63702,0.79043 -0.55198,0.0751 -0.99053,-0.0536 -1.48958,-0.33263 -0.49906,-0.27898 -1.05859,-0.70817 -1.88278,-1.10161 -0.8242,-0.39343 -1.91301,-0.75109 -2.85818,-0.83692 -0.94518,-0.0858 -1.74666,0.10014 -2.44987,0.4757 -0.70321,0.37555 -1.30811,0.94065 -1.71642,1.60591 -0.40831,0.66526 -0.62002,1.43064 -0.72967,2.20678 -0.10964,0.77614 -0.1172,1.56298 0.0189,2.28547 0.13611,0.72248 0.41587,1.38057 0.82797,1.96357 0.4121,0.58299 0.9565,1.09086 1.59544,1.49145 0.63894,0.40059 1.37238,0.69387 2.15876,0.82621 0.78639,0.13234 1.62568,0.10374 2.32889,-0.0858 0.70321,-0.18956 1.2703,-0.54006 1.72776,-0.9478 0.45747,-0.40774 0.80528,-0.8727 1.31568,-1.06584 0.51039,-0.19313 1.18334,-0.11445 1.77313,0.186 0.58979,0.30044 1.09639,0.82262 1.36859,1.34481 0.27221,0.52219 0.31001,1.04437 0.10207,1.64525 -0.20794,0.60088 -0.66161,1.28043 -1.4291,1.96357 -0.76748,0.68315 -1.84873,1.36985 -2.77122,1.81693 -0.92249,0.44708 -1.68616,0.65452 -2.61621,0.69386 -0.93006,0.0394 -2.02643,-0.0894 -3.06612,-0.29328 -1.0397,-0.20387 -2.02265,-0.48284 -2.8166,-0.84766 -0.79394,-0.36482 -1.39884,-0.81547 -2.03021,-1.49862 -0.63138,-0.68315 -1.28921,-1.59875 -1.74667,-2.49649 -0.45746,-0.89774 -0.71454,-1.77758 -0.93382,-2.77547 -0.21928,-0.99789 -0.40075,-2.11378 -0.3705,-3.29408 0.0302,-1.1803 0.2722,-2.42494 0.586,-3.46218 0.3138,-1.03723 0.69942,-1.86699 1.19091,-2.66101 0.49149,-0.79402 1.08883,-1.55225 1.79582,-2.17817 0.70699,-0.62591 1.5236,-1.11948 2.43097,-1.47715 0.90737,-0.35766 1.90544,-0.57941 3.03965,-0.65452 1.13422,-0.0751 2.4045,-0.004 3.47065,0.2611 1.06616,0.26468 1.92813,0.72248 2.66915,1.25541 0.74102,0.53292 1.36103,1.14093 1.80337,1.62557 0.44234,0.48464 0.70698,0.84587 0.86199,1.14988 0.15501,0.30401 0.20038,0.55077 0.13611,0.97102 z"
         id="path10"
         transform="translate(2.8128147,-1.1588292)" />
    </g>
  </g>
</svg>