<?xml version="1.0" encoding="UTF-8" standalone="no"?>
<!-- Created with Inkscape (http://www.inkscape.org/) -->

<svg
   width="98.851418mm"
   height="10.333223mm"
   viewBox="0 0 98.851418 10.333223"
   version="1.1"
   id="svg1"
   xmlns="http://www.w3.org/2000/svg"
   xmlns:svg="http://www.w3.org/2000/svg">
  <defs
     id="defs1" />
  <g
     id="layer1"
     transform="translate(-7.4674117,-12.659518)">
    <path
       style="fill:none;stroke:#000000;stroke-width:2.50993px;stroke-linecap:round;stroke-linejoin:round;stroke-miterlimit:4;stroke-dasharray:none;stroke-opacity:1"
       d="M 8.7223766,13.914483 H 105.06387"
       id="path1" />
    <path
       style="fill:#000000;fill-opacity:1;fill-rule:nonzero;stroke:none;stroke-width:1.25496"
       d="m 17.570065,20.322668 c 0,1.602043 -0.655385,2.670073 -1.63846,2.670073 -0.983075,0 -1.63846,-1.06803 -1.63846,-2.670073 0,-1.602049 0.655385,-2.67008 1.63846,-2.67008 0.983075,0 1.63846,1.068031 1.63846,2.67008 z"
       id="path2" />
    <path
       style="fill:#000000;fill-opacity:1;fill-rule:nonzero;stroke:none;stroke-width:1.25496"
       d="m 29.694684,20.322668 c 0,1.602043 -0.655389,2.670073 -1.638453,2.670073 -0.655388,0 -1.63849,-1.06803 -1.63849,-2.670073 0,-1.602049 0.983102,-2.67008 1.63849,-2.67008 0.983064,0 1.638453,1.068031 1.638453,2.67008 z"
       id="path3" />
    <path
       style="fill:#000000;fill-opacity:1;fill-rule:nonzero;stroke:none;stroke-width:1.25496"
       d="m 42.474665,20.322668 c 0,1.602043 -0.655389,2.670073 -1.638453,2.670073 -0.655388,0 -1.638452,-1.06803 -1.638452,-2.670073 0,-1.602049 0.983064,-2.67008 1.638452,-2.67008 0.983064,0 1.638453,1.068031 1.638453,2.67008 z"
       id="path4" />
    <path
       style="fill:#000000;fill-opacity:1;fill-rule:nonzero;stroke:none;stroke-width:1.25496"
       d="m 52.960805,20.322668 c 0,1.602043 -0.983064,2.670073 -1.638452,2.670073 -0.983064,0 -1.638453,-1.06803 -1.638453,-2.670073 0,-1.602049 0.655389,-2.67008 1.638453,-2.67008 0.655388,0 1.638452,1.068031 1.638452,2.67008 z"
       id="path5" />
    <path
       style="fill:#000000;fill-opacity:1;fill-rule:nonzero;stroke:none;stroke-width:1.25496"
       d="m 65.413111,20.322668 c 0,1.602043 -0.983064,2.670073 -1.638452,2.670073 -0.983064,0 -1.638453,-1.06803 -1.638453,-2.670073 0,-1.602049 0.655389,-2.67008 1.638453,-2.67008 0.655388,0 1.638452,1.068031 1.638452,2.67008 z"
       id="path6" />
    <path
       style="fill:#000000;fill-opacity:1;fill-rule:nonzero;stroke:none;stroke-width:1.25496"
       d="m 78.520805,20.322668 c 0,1.602043 -0.983064,2.670073 -1.638452,2.670073 -0.983101,0 -1.638453,-1.06803 -1.638453,-2.670073 0,-1.602049 0.655352,-2.67008 1.638453,-2.67008 0.655388,0 1.638452,1.068031 1.638452,2.67008 z"
       id="path7" />
    <path
       style="fill:#000000;fill-opacity:1;fill-rule:nonzero;stroke:none;stroke-width:1.25496"
       d="m 88.023882,20.322668 c 0,1.602043 -0.983064,2.670073 -1.638453,2.670073 -0.983101,0 -1.63849,-1.06803 -1.63849,-2.670073 0,-1.602049 0.655389,-2.67008 1.63849,-2.67008 0.655389,0 1.638453,1.068031 1.638453,2.67008 z"
       id="path8" />
    <path
       style="fill:#000000;fill-opacity:1;fill-rule:nonzero;stroke:none;stroke-width:1.25496"
       d="m 101.45925,20.322668 c 0,1.602043 -0.65538,2.670073 -1.31077,2.670073 -0.983073,0 -1.638453,-1.06803 -1.638453,-2.670073 0,-1.602049 0.65538,-2.67008 1.638453,-2.67008 0.65539,0 1.31077,1.068031 1.31077,2.67008 z"
       id="path9" />
  </g>
</svg>
