<?xml version="1.0" encoding="UTF-8" standalone="no"?>
<!-- Created with Inkscape (http://www.inkscape.org/) -->

<svg
   width="75.692551mm"
   height="43.768028mm"
   viewBox="0 0 75.692551 43.768028"
   version="1.1"
   id="svg1"
   xmlns="http://www.w3.org/2000/svg"
   xmlns:svg="http://www.w3.org/2000/svg">
  <defs
     id="defs1" />
  <g
     id="layer1"
     transform="translate(-27.366948,-12.427977)">
    <path
       style="fill:none;fill-opacity:1;stroke:#000000;stroke-width:1.027;stroke-dasharray:none;stroke-opacity:1"
       d="M 51.580906,36.579288 C 59.561218,30.55124 67.541531,24.523193 74.186136,21.7318 c 6.644606,-2.791392 11.95329,-2.346148 15.737968,-0.428099 3.784678,1.918049 6.04515,5.308757 6.576017,7.706291 0.530868,2.397534 -0.667867,3.801765 -4.96635,7.346725 -4.298483,3.54496 -11.696393,9.230392 -19.094451,14.915937"
       id="path29"
       transform="matrix(1.1849784,0,0,1.3215829,-12.029516,-12.790689)" />
    <path
       style="fill:none;fill-opacity:1;stroke:#000000;stroke-width:1.027;stroke-dasharray:none;stroke-opacity:1"
       d="m 52.30016,16.440129 c -0.513752,0 -1.027506,0 -5.377373,2.842829 -4.349866,2.84283 -12.535517,8.52826 -16.49142,14.111109 -3.955903,5.582849 -3.681907,11.062783 -2.054989,14.624827 1.626917,3.562043 4.606631,5.206023 7.98032,6.336289 3.37369,1.130265 7.141143,1.746757 13.1864,-1.318709 6.045256,-3.065467 14.367904,-9.812634 22.69072,-16.559937"
       id="path30"
       transform="matrix(1.0760368,0,0,1.0982299,-1.4120553,-5.0631218)" />
  </g>
</svg>
