<?xml version="1.0" encoding="UTF-8" standalone="no"?>
<!-- Created with Inkscape (http://www.inkscape.org/) -->

<svg
   version="1.1"
   id="svg1"
   width="21.926666"
   height="10.218871"
   viewBox="0 0 21.926666 10.218871"
   xmlns="http://www.w3.org/2000/svg"
   xmlns:svg="http://www.w3.org/2000/svg">
  <defs
     id="defs1">
    <clipPath
       clipPathUnits="userSpaceOnUse"
       id="clipPath184">
      <path
         d="M 14,14 H 598 V 778 H 14 Z"
         transform="translate(-209.36601,-412.16901)"
         id="path184" />
    </clipPath>
  </defs>
  <g
     id="g1"
     style="display:inline"
     transform="translate(-257.49334,-504.75866)">
    <g
       id="g624">
      <path
         id="path183"
         d="m 0,0 c 0,0.164 -1.484,-1.316 -4.78,-1.316 -1.647,0 -3.254,1.646 -3.254,2.578 0,-0.932 -1.607,-2.578 -3.255,-2.578 -3.296,0 -4.777,1.48 -4.777,1.316 0,-2.472 1.262,-4.285 3.129,-5.437 1.87,-1.154 3.503,-0.998 4.913,0.219 1.411,-1.217 3.046,-1.373 4.913,-0.219 1.868,1.152 3.13,2.965 3.13,5.437 z"
         style="fill:#ffffff;fill-opacity:1;fill-rule:nonzero;stroke:#000000;stroke-width:0.36;stroke-linecap:butt;stroke-linejoin:miter;stroke-miterlimit:4;stroke-dasharray:none;stroke-opacity:1"
         transform="matrix(1.3333333,0,0,-1.3333333,279.15467,506.44133)"
         clip-path="url(#clipPath184)" />
    </g>
  </g>
</svg>
