<?xml version="1.0" encoding="UTF-8" standalone="no"?>
<!-- Created with Inkscape (http://www.inkscape.org/) -->

<svg
   version="1.1"
   id="svg1"
   width="33.303997"
   height="22.273247"
   viewBox="0 0 13.79519 6.2405845"
   xml:space="preserve"
   xmlns="http://www.w3.org/2000/svg"
   xmlns:svg="http://www.w3.org/2000/svg"><defs
     id="defs1" /><g
     id="g1"
     style="display:inline;fill:none;fill-opacity:1;stroke:#000000;stroke-width:0.529066;stroke-dasharray:none;stroke-opacity:1"
     transform="matrix(0,-0.64758235,0.68452408,0,-166.82637,179.02567)"><g
       id="g618"
       style="fill:none;fill-opacity:1;stroke:#000000;stroke-width:0.529066;stroke-dasharray:none;stroke-opacity:1"><path
         style="fill:none;fill-opacity:1;fill-rule:nonzero;stroke:#000000;stroke-width:0.470281;stroke-linecap:butt;stroke-linejoin:bevel;stroke-dasharray:none;stroke-dashoffset:0;stroke-opacity:1;paint-order:normal"
         d="m 265.8244,250.62869 c -0.24197,-0.0358 -0.7259,-0.1073 -1.23251,-0.0501 -0.50661,0.0572 -1.0359,0.24321 -1.4669,0.52934 -0.43099,0.28614 -0.76369,0.67241 -1.02833,1.30906 -0.26465,0.63664 -0.46124,1.52363 -0.4688,2.61094 -0.008,1.08731 0.17391,2.37487 0.51417,3.67678 0.34027,1.30191 0.8393,2.61808 1.36104,3.77692 0.52174,1.15884 1.06614,2.16028 1.7013,3.01153 0.63516,0.85124 1.36103,1.55225 2.2306,1.91706 0.86956,0.36481 1.88276,0.39341 2.64646,0.47924 0.7637,0.0858 1.27786,0.2289 1.87521,-0.0286 0.59735,-0.25752 1.27786,-0.91561 1.61812,-1.80262 0.34026,-0.88702 0.34026,-2.00291 -0.0303,-3.31913 -0.37052,-1.31621 -1.11151,-2.83267 -1.78448,-4.09881 -0.67296,-1.26614 -1.27785,-2.28188 -1.76179,-3.10452 -0.48393,-0.82263 -0.84686,-1.4521 -1.24006,-2.01721 -0.39319,-0.56512 -0.81662,-1.06584 -1.2703,-1.53081 -0.45368,-0.46496 -0.9376,-0.89415 -1.17956,-1.10874 -0.24196,-0.2146 -0.24196,-0.21456 -0.48392,-0.25033 z"
         id="path11"
         transform="matrix(1.1245355,0,0,1.1245355,-27.426447,-37.784332)" /><path
         style="fill:#000000;fill-opacity:1;fill-rule:nonzero;stroke:#000000;stroke-width:0.470281;stroke-linecap:butt;stroke-linejoin:bevel;stroke-dasharray:none;stroke-dashoffset:0;stroke-opacity:1;paint-order:normal"
         d="m 267.35348,253.48125 c -0.0508,-0.0329 -0.1524,-0.0986 -0.28874,-0.12647 -0.13634,-0.0278 -0.30743,-0.0177 -0.40099,0.0354 -0.0936,0.0531 -0.1096,0.14922 0.005,0.26049 0.11496,0.11128 0.3609,0.23773 0.53734,0.35913 0.17644,0.1214 0.28337,0.23773 0.37159,0.40718 0.0882,0.16945 0.15773,0.392 0.25932,0.56145 0.10159,0.16945 0.23525,0.28578 0.36357,0.33383 0.12831,0.0481 0.2513,0.0278 0.30477,-0.091 0.0535,-0.11887 0.0374,-0.33637 -0.0855,-0.56399 -0.12297,-0.22761 -0.35288,-0.46534 -0.54001,-0.65755 -0.18713,-0.19221 -0.33149,-0.33889 -0.40367,-0.41224 -0.0722,-0.0733 -0.0722,-0.0733 -0.123,-0.10617 z"
         id="path12"
         transform="matrix(1.1245355,0,0,1.1245355,-27.426447,-37.784332)" /><path
         style="fill:#000000;fill-opacity:1;fill-rule:nonzero;stroke:#000000;stroke-width:0.23514;stroke-linecap:butt;stroke-linejoin:bevel;stroke-dasharray:none;stroke-dashoffset:0;stroke-opacity:1;paint-order:normal"
         d="m 264.82632,257.95901 c 0.0416,-0.002 0.12473,-0.005 0.19088,-0.0429 0.0661,-0.0375 0.11533,-0.10911 0.0851,-0.23071 -0.0302,-0.12161 -0.13989,-0.29329 -0.27977,-0.41489 -0.13988,-0.1216 -0.31002,-0.19314 -0.45557,-0.20923 -0.14555,-0.0161 -0.26654,0.0232 -0.34783,0.1681 -0.0813,0.14486 -0.12286,0.39522 -0.0756,0.65989 0.0473,0.26467 0.18337,0.54365 0.32136,0.78328 0.138,0.23964 0.27788,0.43993 0.40832,0.58657 0.13043,0.14665 0.2514,0.23963 0.33458,0.22532 0.0832,-0.0143 0.12854,-0.1359 0.13799,-0.28613 0.009,-0.15022 -0.017,-0.32905 -0.068,-0.49714 -0.051,-0.1681 -0.12666,-0.32548 -0.17958,-0.44708 -0.0529,-0.1216 -0.0832,-0.20746 -0.0983,-0.25038 -0.0151,-0.0429 -0.0151,-0.0429 0.0265,-0.0447 z"
         id="path13"
         transform="matrix(1.1245355,0,0,1.1245355,-27.426447,-37.784332)" /><path
         style="fill:#000000;fill-opacity:1;fill-rule:nonzero;stroke:#000000;stroke-width:0.23514;stroke-linecap:butt;stroke-linejoin:bevel;stroke-dasharray:none;stroke-dashoffset:0;stroke-opacity:1;paint-order:normal"
         d="m 263.62782,253.24678 c -0.0227,-0.0572 -0.068,-0.17166 -0.16635,-0.20922 -0.0983,-0.0376 -0.24952,0.002 -0.36105,0.14484 -0.11152,0.14307 -0.18336,0.38986 -0.22306,0.6456 -0.0397,0.25573 -0.0473,0.52039 -0.0511,0.74214 -0.004,0.22175 -0.004,0.40058 0.0151,0.52399 0.0189,0.12341 0.0567,0.19133 0.1134,0.23782 0.0567,0.0465 0.13234,0.0715 0.19472,-0.0143 0.0624,-0.0858 0.11152,-0.28256 0.12286,-0.50074 0.0113,-0.21817 -0.0151,-0.4578 -0.0284,-0.65451 -0.0132,-0.19672 -0.0132,-0.35052 0.0246,-0.47391 0.0378,-0.12339 0.11342,-0.21639 0.18337,-0.2754 0.0699,-0.059 0.13421,-0.0841 0.16634,-0.0966 0.0321,-0.0125 0.0322,-0.0125 0.009,-0.0697 z"
         id="path14"
         transform="matrix(1.1245355,0,0,1.1245355,-27.426447,-37.784332)" /><path
         style="fill:#000000;fill-opacity:1;fill-rule:nonzero;stroke:#000000;stroke-width:0.23514;stroke-linecap:butt;stroke-linejoin:bevel;stroke-dasharray:none;stroke-dashoffset:0;stroke-opacity:1;paint-order:normal"
         d="m 265.11174,255.26937 c -0.0624,-0.13054 -0.138,-0.23784 -0.2363,-0.27361 -0.0983,-0.0358 -0.21926,0 -0.26274,0.12697 -0.0435,0.12697 -0.009,0.34515 0.0775,0.49537 0.087,0.15022 0.22683,0.23247 0.33268,0.23606 0.10585,0.004 0.1777,-0.0715 0.18905,-0.18599 0.0113,-0.11445 -0.0378,-0.26825 -0.10019,-0.3988 z"
         id="path15"
         transform="matrix(1.1245355,0,0,1.1245355,-27.426447,-37.784332)" /><path
         style="fill:#000000;fill-opacity:1;fill-rule:nonzero;stroke:#000000;stroke-width:0.23514;stroke-linecap:butt;stroke-linejoin:bevel;stroke-dasharray:none;stroke-dashoffset:0;stroke-opacity:1;paint-order:normal"
         d="m 265.7053,253.00536 c -0.0321,-0.0197 -0.0964,-0.059 -0.15123,-0.0161 -0.0548,0.0429 -0.10018,0.16809 -0.0888,0.31115 0.0113,0.14306 0.0794,0.30403 0.15122,0.40596 0.0718,0.10193 0.14743,0.14485 0.20606,0.14663 0.0586,0.002 0.1002,-0.0376 0.11153,-0.14842 0.0113,-0.11087 -0.008,-0.29328 -0.0454,-0.41847 -0.0378,-0.1252 -0.0945,-0.19313 -0.12286,-0.22711 -0.0284,-0.034 -0.0284,-0.034 -0.0605,-0.0537 z"
         id="path16"
         transform="matrix(1.1245355,0,0,1.1245355,-27.426447,-37.784332)" /><path
         style="fill:#000000;fill-opacity:1;fill-rule:nonzero;stroke:#000000;stroke-width:0.23514;stroke-linecap:butt;stroke-linejoin:bevel;stroke-dasharray:none;stroke-dashoffset:0;stroke-opacity:1;paint-order:normal"
         d="m 264.34065,260.41595 c -0.0481,-0.0329 -0.14439,-0.0987 -0.21122,-0.0329 -0.0668,0.0657 -0.10427,0.26303 -0.0187,0.50834 0.0856,0.24532 0.29407,0.53869 0.4919,0.82953 0.19783,0.29085 0.38495,0.57915 0.53734,0.82194 0.15238,0.2428 0.27,0.44006 0.38496,0.55134 0.11495,0.11129 0.22723,0.13659 0.2994,0.081 0.0722,-0.0556 0.10425,-0.19221 0.0641,-0.39453 -0.0401,-0.20232 -0.15239,-0.4704 -0.30477,-0.74354 -0.15238,-0.27314 -0.34486,-0.55133 -0.50526,-0.78654 -0.1604,-0.2352 -0.28872,-0.42741 -0.39833,-0.55387 -0.10961,-0.12645 -0.2005,-0.18714 -0.24594,-0.21749 -0.0455,-0.0303 -0.0454,-0.0304 -0.0935,-0.0632 z"
         id="path17"
         transform="matrix(1.1245355,0,0,1.1245355,-27.426447,-37.784332)" /><path
         style="fill:#000000;fill-opacity:1;fill-rule:nonzero;stroke:#000000;stroke-width:0.23514;stroke-linecap:butt;stroke-linejoin:bevel;stroke-dasharray:none;stroke-dashoffset:0;stroke-opacity:1;paint-order:normal"
         d="m 266.73593,258.03482 c -0.0508,-0.0544 -0.15239,-0.16312 -0.24062,-0.19852 -0.0882,-0.0354 -0.16307,0.003 -0.18979,0.0999 -0.0267,0.0974 -0.005,0.25416 0.0695,0.43499 0.0749,0.18083 0.20318,0.38568 0.31947,0.53616 0.11629,0.15047 0.22055,0.24658 0.30073,0.30348 0.0802,0.0569 0.13636,0.0746 0.17111,0.0342 0.0348,-0.0405 0.0481,-0.13912 0.0267,-0.25671 -0.0214,-0.1176 -0.0775,-0.25418 -0.15105,-0.40719 -0.0735,-0.15301 -0.16441,-0.32245 -0.20985,-0.40718 -0.0454,-0.0847 -0.0455,-0.0847 -0.0963,-0.13909 z"
         id="path18"
         transform="matrix(1.1245355,0,0,1.1245355,-27.426447,-37.784332)" /><path
         style="fill:#000000;fill-opacity:1;fill-rule:nonzero;stroke:#000000;stroke-width:0.23514;stroke-linecap:butt;stroke-linejoin:bevel;stroke-dasharray:none;stroke-dashoffset:0;stroke-opacity:1;paint-order:normal"
         d="m 267.23718,259.98346 c -0.0548,-0.086 -0.16441,-0.25796 -0.25932,-0.3313 -0.0949,-0.0733 -0.1751,-0.048 -0.2299,0.0367 -0.0548,0.0847 -0.0842,0.22888 -0.0307,0.36292 0.0535,0.13404 0.18981,0.25796 0.29538,0.32624 0.10557,0.0683 0.18048,0.0809 0.2219,0.0202 0.0414,-0.0607 0.0494,-0.19474 0.0534,-0.26176 0.004,-0.067 0.004,-0.067 -0.0508,-0.153 z"
         id="path19"
         transform="matrix(1.1245355,0,0,1.1245355,-27.426447,-37.784332)" /><path
         style="fill:#000000;fill-opacity:1;fill-rule:nonzero;stroke:#000000;stroke-width:0.23514;stroke-linecap:butt;stroke-linejoin:bevel;stroke-dasharray:none;stroke-dashoffset:0;stroke-opacity:1;paint-order:normal"
         d="m 269.95289,260.94192 c 0.0529,-0.002 0.15878,-0.005 0.19091,-0.0608 0.0321,-0.0554 -0.009,-0.16274 -0.10397,-0.28434 -0.0945,-0.1216 -0.24196,-0.25751 -0.37429,-0.3362 -0.13233,-0.0787 -0.24951,-0.10015 -0.3119,-0.002 -0.0624,0.0984 -0.07,0.31652 -0.0246,0.55973 0.0454,0.24322 0.14366,0.51146 0.28733,0.76004 0.14367,0.24858 0.3327,0.47748 0.49339,0.63307 0.16068,0.15559 0.29299,0.23784 0.38185,0.26823 0.0889,0.0304 0.13415,0.009 0.14363,-0.0948 0.009,-0.10374 -0.017,-0.28972 -0.0907,-0.45961 -0.0737,-0.1699 -0.1947,-0.32369 -0.31001,-0.48464 -0.11531,-0.16095 -0.22495,-0.32905 -0.27977,-0.4131 -0.0548,-0.084 -0.0548,-0.084 -0.002,-0.0858 z"
         id="path20"
         transform="matrix(1.1245355,0,0,1.1245355,-27.426447,-37.784332)" /><path
         style="fill:#000000;fill-opacity:1;fill-rule:nonzero;stroke:#000000;stroke-width:0.23514;stroke-linecap:butt;stroke-linejoin:bevel;stroke-dasharray:none;stroke-dashoffset:0;stroke-opacity:1;paint-order:normal"
         d="m 268.71092,263.81573 c -0.0548,-0.025 -0.16445,-0.0751 -0.23439,-0.0429 -0.0699,0.0322 -0.10017,0.14665 -0.0605,0.24857 0.0397,0.10193 0.14934,0.19135 0.26276,0.32548 0.11343,0.13412 0.23062,0.31295 0.36106,0.49178 0.13044,0.17884 0.2741,0.35767 0.40642,0.48285 0.13231,0.12518 0.2533,0.19671 0.38184,0.23963 0.12855,0.0429 0.26465,0.0572 0.36862,0.0161 0.10397,-0.0411 0.1758,-0.1377 0.20793,-0.2629 0.0321,-0.12519 0.0246,-0.27896 -0.008,-0.40772 -0.0321,-0.12875 -0.0888,-0.23248 -0.16445,-0.28076 -0.0756,-0.0483 -0.17014,-0.0411 -0.21361,0.0269 -0.0435,0.068 -0.0359,0.1967 -0.0303,0.28434 0.006,0.0876 0.009,0.13416 -0.0208,0.16097 -0.0303,0.0268 -0.0945,0.034 -0.1777,-0.034 -0.0832,-0.0679 -0.18525,-0.21101 -0.31002,-0.37911 -0.12476,-0.16811 -0.2722,-0.36124 -0.39508,-0.5061 -0.12288,-0.14487 -0.22116,-0.24142 -0.27031,-0.2897 -0.0491,-0.0483 -0.0491,-0.0483 -0.10396,-0.0734 z"
         id="path21"
         transform="matrix(1.1245355,0,0,1.1245355,-27.426447,-37.784332)" /><path
         style="fill:#000000;fill-opacity:1;fill-rule:nonzero;stroke:#000000;stroke-width:0.23514;stroke-linecap:butt;stroke-linejoin:bevel;stroke-dasharray:none;stroke-dashoffset:0;stroke-opacity:1;paint-order:normal"
         d="m 272.99254,266.58048 c -0.0265,-0.0501 -0.0794,-0.15022 -0.17391,-0.19671 -0.0945,-0.0465 -0.23063,-0.0393 -0.36484,-0.0894 -0.13422,-0.0501 -0.26654,-0.15737 -0.37051,-0.25036 -0.10396,-0.093 -0.17958,-0.17168 -0.2741,-0.18599 -0.0945,-0.0143 -0.20793,0.0358 -0.23061,0.1699 -0.0227,0.13413 0.0454,0.35229 0.13042,0.51145 0.0851,0.15916 0.18715,0.25931 0.27599,0.32548 0.0888,0.0662 0.16447,0.0984 0.2571,0.13236 0.0926,0.034 0.20225,0.0697 0.33458,0.009 0.13233,-0.0608 0.28733,-0.21817 0.36484,-0.29685 0.0775,-0.0787 0.0775,-0.0788 0.051,-0.12883 z"
         id="path23"
         transform="matrix(1.1245355,0,0,1.1245355,-27.426447,-37.784332)" /><path
         style="fill:#000000;fill-opacity:1;fill-rule:nonzero;stroke:#000000;stroke-width:0.23514;stroke-linecap:butt;stroke-linejoin:bevel;stroke-dasharray:none;stroke-dashoffset:0;stroke-opacity:1;paint-order:normal"
         d="m 271.70237,261.11805 c -0.0293,-0.0402 -0.0879,-0.1207 -0.13892,-0.12607 -0.051,-0.005 -0.0945,0.0644 -0.0992,0.15828 -0.005,0.0939 0.0293,0.2119 0.0888,0.32279 0.0596,0.11089 0.14461,0.21459 0.19943,0.26018 0.0548,0.0456 0.0793,0.0331 0.0916,-0.0268 0.0123,-0.0599 0.0123,-0.16723 -0.008,-0.26648 -0.0208,-0.0993 -0.0624,-0.19047 -0.0832,-0.23606 -0.0208,-0.0456 -0.0208,-0.0455 -0.0501,-0.0858 z"
         id="path24"
         transform="matrix(1.1245355,0,0,1.1245355,-27.426447,-37.784332)" /><path
         style="fill:#000000;fill-opacity:1;fill-rule:nonzero;stroke:#000000;stroke-width:0.23514;stroke-linecap:butt;stroke-linejoin:bevel;stroke-dasharray:none;stroke-dashoffset:0;stroke-opacity:1;paint-order:normal"
         d="m 271.76381,260.39915 c -0.0302,-0.0241 -0.0907,-0.0724 -0.13894,-0.0662 -0.0482,0.006 -0.0841,0.0671 -0.0841,0.16006 0,0.093 0.0359,0.21817 0.087,0.30938 0.051,0.0912 0.11719,0.14843 0.16255,0.11177 0.0454,-0.0367 0.0699,-0.16721 0.0671,-0.26467 -0.003,-0.0975 -0.0331,-0.16185 -0.0482,-0.19404 -0.0151,-0.0322 -0.0151,-0.0322 -0.0454,-0.0563 z"
         id="path25"
         transform="matrix(1.1245355,0,0,1.1245355,-27.426447,-37.784332)" /><path
         style="fill:#000000;fill-opacity:1;fill-rule:nonzero;stroke:#000000;stroke-width:0.23514;stroke-linecap:butt;stroke-linejoin:bevel;stroke-dasharray:none;stroke-dashoffset:0;stroke-opacity:1;paint-order:normal"
         d="m 267.51056,261.93264 c -0.0302,-0.0948 -0.0907,-0.28434 -0.19848,-0.43277 -0.10775,-0.14843 -0.26275,-0.25573 -0.32514,-0.1681 -0.0624,0.0876 -0.0322,0.37018 0.051,0.59909 0.0832,0.2289 0.21926,0.40415 0.33457,0.56867 0.11531,0.16452 0.20983,0.31833 0.28545,0.32727 0.0756,0.009 0.13232,-0.12697 0.10963,-0.28434 -0.0227,-0.15738 -0.12476,-0.33621 -0.1758,-0.42562 -0.051,-0.0894 -0.051,-0.0894 -0.0813,-0.1842 z"
         id="path26"
         transform="matrix(1.1245355,0,0,1.1245355,-27.426447,-37.784332)" /><path
         style="fill:#000000;fill-opacity:1;fill-rule:nonzero;stroke:#000000;stroke-width:0.23514;stroke-linecap:butt;stroke-linejoin:bevel;stroke-dasharray:none;stroke-dashoffset:0;stroke-opacity:1;paint-order:normal"
         d="m 270.18162,257.98404 c -0.0473,-0.0626 -0.14179,-0.18778 -0.24008,-0.22712 -0.0983,-0.0393 -0.20038,0.007 -0.22496,0.10551 -0.0246,0.0983 0.0284,0.24858 0.10208,0.36303 0.0737,0.11445 0.16824,0.19314 0.2571,0.24143 0.0889,0.0483 0.17201,0.0662 0.19658,-0.009 0.0246,-0.0751 -0.009,-0.24319 -0.0265,-0.32725 -0.017,-0.0841 -0.017,-0.0841 -0.0643,-0.14669 z"
         id="path27"
         transform="matrix(1.1245355,0,0,1.1245355,-27.426447,-37.784332)" /><path
         style="fill:#000000;fill-opacity:1;fill-rule:nonzero;stroke:#000000;stroke-width:0.23514;stroke-linecap:butt;stroke-linejoin:bevel;stroke-dasharray:none;stroke-dashoffset:0;stroke-opacity:1;paint-order:normal"
         d="m 271.29502,258.90145 c -0.0454,-0.0679 -0.13611,-0.20387 -0.21362,-0.20208 -0.0775,0.002 -0.14177,0.14127 -0.12854,0.27718 0.0132,0.1359 0.10397,0.26825 0.18904,0.34871 0.0851,0.0805 0.16446,0.10907 0.19659,0.0411 0.0321,-0.068 0.017,-0.23248 0.009,-0.31475 -0.008,-0.0823 -0.008,-0.0822 -0.0529,-0.15017 z"
         id="path28"
         transform="matrix(1.1245355,0,0,1.1245355,-27.426447,-37.784332)" /><path
         style="fill:#000000;fill-opacity:1;fill-rule:nonzero;stroke:#000000;stroke-width:0.23514;stroke-linecap:butt;stroke-linejoin:bevel;stroke-dasharray:none;stroke-dashoffset:0;stroke-opacity:1;paint-order:normal"
         d="m 267.57466,265.10038 c -0.0301,-0.0108 -0.0902,-0.0322 -0.13565,-0.0215 -0.0455,0.0108 -0.0762,0.0538 -0.0829,0.11509 -0.007,0.0613 0.0107,0.14095 0.0595,0.24149 0.0488,0.10053 0.12898,0.22192 0.22455,0.33699 0.0956,0.11508 0.20651,0.22383 0.32348,0.31235 0.11696,0.0885 0.23993,0.1568 0.34152,0.20042 0.10159,0.0436 0.18177,0.0626 0.23264,0.0683 0.0509,0.006 0.0721,-0.002 0.0695,-0.0506 -0.003,-0.0487 -0.0294,-0.13848 -0.13366,-0.25924 -0.10426,-0.12076 -0.28604,-0.2725 -0.42038,-0.40086 -0.13434,-0.12836 -0.22122,-0.2333 -0.28806,-0.31803 -0.0668,-0.0847 -0.11362,-0.14923 -0.137,-0.18146 -0.0234,-0.0322 -0.0234,-0.0322 -0.0535,-0.0429 z"
         id="path29"
         transform="matrix(1.1245355,0,0,1.1245355,-27.426447,-37.784332)" /><path
         style="fill:#000000;fill-opacity:1;fill-rule:nonzero;stroke:#000000;stroke-width:0.23514;stroke-linecap:butt;stroke-linejoin:bevel;stroke-dasharray:none;stroke-dashoffset:0;stroke-opacity:1;paint-order:normal"
         d="m 270.373,266.69938 c -0.0347,0.0101 -0.10428,0.0304 -0.1745,0.0443 -0.0702,0.0139 -0.14096,0.0215 -0.22717,-0.006 -0.0862,-0.0278 -0.18781,-0.091 -0.29674,-0.13468 -0.10893,-0.0436 -0.22522,-0.0677 -0.29072,-0.0323 -0.0655,0.0354 -0.0802,0.13026 -0.0408,0.25862 0.0394,0.12835 0.13299,0.2902 0.26666,0.37618 0.13367,0.086 0.30743,0.0961 0.45113,0.0771 0.14371,-0.019 0.2573,-0.067 0.32947,-0.13152 0.0722,-0.0645 0.10292,-0.14543 0.0989,-0.2251 -0.004,-0.0797 -0.0428,-0.15804 -0.0622,-0.19724 -0.0194,-0.0392 -0.0194,-0.0392 -0.0541,-0.0291 z"
         id="path30"
         transform="matrix(1.1245355,0,0,1.1245355,-27.426447,-37.784332)" /><path
         style="fill:#000000;fill-opacity:1;fill-rule:nonzero;stroke:#000000;stroke-width:0.23514;stroke-linecap:butt;stroke-linejoin:bevel;stroke-dasharray:none;stroke-dashoffset:0;stroke-opacity:1;paint-order:normal"
         d="m 272.69954,264.57578 c -0.0359,-0.059 -0.10776,-0.17705 -0.16636,-0.29866 -0.0586,-0.12161 -0.10396,-0.24677 -0.16824,-0.23694 -0.0643,0.01 -0.14744,0.15468 -0.13894,0.3201 0.009,0.16542 0.10869,0.3514 0.22496,0.46318 0.11626,0.11177 0.24857,0.14932 0.29867,0.10551 0.0501,-0.0438 0.018,-0.16901 0.002,-0.23159 -0.0161,-0.0626 -0.0161,-0.0626 -0.052,-0.1216 z"
         id="path31"
         transform="matrix(1.1245355,0,0,1.1245355,-27.426447,-37.784332)" /><path
         style="fill:#000000;fill-opacity:1;fill-rule:nonzero;stroke:#000000;stroke-width:0.23514;stroke-linecap:butt;stroke-linejoin:bevel;stroke-dasharray:none;stroke-dashoffset:0;stroke-opacity:1;paint-order:normal"
         d="m 271.16553,263.81485 c -0.0444,-0.0688 -0.13327,-0.20656 -0.2552,-0.28793 -0.12192,-0.0814 -0.27694,-0.1064 -0.38374,-0.0939 -0.10681,0.0125 -0.1654,0.0626 -0.1257,0.13412 0.0397,0.0715 0.17769,0.16453 0.28354,0.24857 0.10585,0.084 0.17959,0.15917 0.21457,0.23963 0.035,0.0805 0.0312,0.16635 0.0633,0.22176 0.0321,0.0554 0.10023,0.0805 0.14749,0.01 0.0473,-0.0707 0.0737,-0.23694 0.087,-0.32011 0.0132,-0.0832 0.0132,-0.0832 -0.0312,-0.152 z"
         id="path32"
         transform="matrix(1.1245355,0,0,1.1245355,-27.426447,-37.784332)" /></g></g></svg>