<?xml version="1.0" encoding="UTF-8" standalone="no"?>
<!-- Created with Inkscape (http://www.inkscape.org/) -->

<svg
   version="1.1"
   id="svg1"
   width="25.736248"
   overflow="visible"
   height="9.3719425"
   viewBox="4 -1 7.873779 0.6"
   xml:space="preserve"
   xmlns="http://www.w3.org/2000/svg"
   xmlns:svg="http://www.w3.org/2000/svg"><defs
     id="defs1" /><g
     id="g1"
     style="display:inline;fill:none;fill-opacity:1;stroke:#000000;stroke-width:0.529066;stroke-dasharray:none;stroke-opacity:1"
     transform="matrix(0,-0.64758235,0.68452408,0,-166.83213,179.03186)"><g
       id="g618"
       style="fill:none;fill-opacity:1;stroke:#000000;stroke-width:0.529066;stroke-dasharray:none;stroke-opacity:1"><path
         style="fill:none;fill-opacity:1;fill-rule:nonzero;stroke:#000000;stroke-width:0.23514;stroke-linecap:butt;stroke-linejoin:bevel;stroke-dasharray:none;stroke-dashoffset:0;stroke-opacity:1;paint-order:normal"
         d="m 273.71867,245.08476 c 0.0749,0.2352 0.22456,0.70561 0.34753,0.97369 0.12297,0.26807 0.21922,0.33384 0.32883,0.90036 0.10961,0.56652 0.23258,1.63376 0.41169,2.50377 0.17912,0.87 0.41436,1.54271 0.47585,2.19269 0.0615,0.64998 -0.0508,1.27717 -0.0535,1.87403 -0.003,0.59687 0.10426,1.16337 0.24327,1.70712 0.13901,0.54375 0.31011,1.06473 0.33149,1.60849 0.0214,0.54375 -0.10693,1.11025 -0.15772,1.654 -0.0508,0.54375 -0.0241,1.06473 0.0936,1.58319 0.11762,0.51847 0.32614,1.03438 0.43575,1.51997 0.10961,0.48558 0.12031,0.9408 0.14169,1.46938 0.0214,0.52858 0.0534,1.13049 0.005,1.66413 -0.0481,0.53363 -0.17645,0.99897 -0.30744,1.4188 -0.131,0.41983 -0.26466,0.79412 -0.3315,1.25441 -0.0668,0.4603 -0.0668,1.00657 -0.0802,1.45421 -0.0134,0.44765 -0.0401,0.79665 -0.17911,0.35406 -0.13902,-0.4426 -0.39031,-1.67676 -0.63091,-2.60746 -0.2406,-0.9307 -0.47051,-1.5579 -0.62823,-2.08395 -0.15773,-0.52605 -0.24327,-0.95092 -0.31278,-1.03943 -0.0695,-0.0885 -0.12297,0.15933 -0.2513,-0.0101 -0.12832,-0.16945 -0.33149,-0.75618 -0.49723,-0.9838 -0.16575,-0.22761 -0.29407,-0.0961 -0.4117,-0.38948 -0.11763,-0.29338 -0.22456,-1.01162 -0.31812,-1.79564 -0.0936,-0.78401 -0.17377,-1.63376 -0.32883,-2.59734 -0.15505,-0.96359 -0.38495,-2.04095 -0.4525,-2.62613 -0.0675,-0.58518 0.0272,-0.67812 -0.0123,-1.52936 -0.0396,-0.85124 -0.21347,-2.46069 -0.21347,-3.24397 0,-0.78328 0.1739,-0.74036 0.29111,-1.09804 0.1172,-0.35767 0.17769,-1.1159 0.30623,-1.26969 0.12855,-0.15379 0.32514,0.29686 0.48015,-0.0143 0.155,-0.31118 0.26842,-1.38415 0.3894,-1.76327 0.12099,-0.37912 0.24953,-0.0644 0.3858,-0.16799 0.13628,-0.10361 0.28028,-0.62555 0.35228,-0.88653 0.072,-0.26097 0.072,-0.26097 0.14687,-0.0258 z"
         id="path32"
         transform="matrix(1.1492773,0,0,0.99626433,-36.960179,-0.16140721)" /><path
         style="fill:none;fill-opacity:1;fill-rule:nonzero;stroke:#000000;stroke-width:0.23517;stroke-linecap:round;stroke-linejoin:bevel;stroke-dasharray:none;stroke-dashoffset:0;stroke-opacity:1;paint-order:normal"
         d="m 272.29646,248.021 c 0.17644,0.58169 0.35288,1.16337 0.49724,1.79564 0.14436,0.63227 0.25664,1.31511 0.48121,1.95497 0.22456,0.63986 0.56139,1.2367 0.81536,1.62365 0.25397,0.38695 0.42506,0.56398 0.46783,0.9914 0.0428,0.42743 -0.0428,1.10519 -0.12832,1.78298"
         id="path33"
         transform="matrix(1.1492773,0,0,0.99626433,-36.960179,-0.16140721)" /><path
         style="fill:none;fill-opacity:1;fill-rule:nonzero;stroke:#000000;stroke-width:0.23514;stroke-linecap:round;stroke-linejoin:bevel;stroke-dasharray:none;stroke-dashoffset:0;stroke-opacity:1;paint-order:normal"
         d="m 273.06638,245.98764 c -0.005,0.76377 -0.0107,1.52755 -0.016,2.29133"
         id="path34"
         transform="matrix(1.1492773,0,0,0.99626433,-36.960179,-0.16140721)" /><path
         style="fill:none;fill-opacity:1;fill-rule:nonzero;stroke:#000000;stroke-width:0.23517;stroke-linecap:round;stroke-linejoin:bevel;stroke-dasharray:none;stroke-dashoffset:0;stroke-opacity:1;paint-order:normal"
         d="m 273.77214,252.86163 c 0.005,-0.92564 0.0107,-1.85128 0.0828,-2.42791 0.0722,-0.57662 0.21119,-0.80424 0.3502,-1.03185"
         id="path35"
         transform="matrix(1.1492773,0,0,0.99626433,-36.960179,-0.16140721)" /><path
         style="fill:none;fill-opacity:1;fill-rule:nonzero;stroke:#000000;stroke-width:0.23517;stroke-linecap:round;stroke-linejoin:bevel;stroke-dasharray:none;stroke-dashoffset:0;stroke-opacity:1;paint-order:normal"
         d="m 271.65486,254.25767 c 0.10159,-0.71826 0.20317,-1.43651 0.53735,-0.80675 0.33417,0.62975 0.9009,2.60744 1.10942,3.86186 0.20852,1.25442 0.0588,1.78551 0.26734,2.55183 0.20853,0.76631 0.77526,1.7678 1.06665,2.59987 0.29139,0.83207 0.30743,1.49467 0.32346,2.15728"
         id="path36"
         transform="matrix(1.1492773,0,0,0.99626433,-36.960179,-0.16140721)" /><path
         style="fill:none;fill-opacity:1;fill-rule:nonzero;stroke:#000000;stroke-width:0.23517;stroke-linecap:round;stroke-linejoin:bevel;stroke-dasharray:none;stroke-dashoffset:0;stroke-opacity:1;paint-order:normal"
         d="m 275.57095,267.31726 c -0.0227,-0.51503 -0.0454,-1.03007 0.004,-1.53081 0.0491,-0.50073 0.17013,-0.98714 0.20415,-1.48787 0.034,-0.50074 -0.0189,-1.01576 -0.12476,-1.46642 -0.10586,-0.45066 -0.26464,-0.83693 -0.42343,-1.22321"
         id="path37"
         transform="matrix(1.1492773,0,0,0.99626433,-36.960179,-0.16140721)" /><path
         style="fill:none;fill-opacity:1;fill-rule:nonzero;stroke:#000000;stroke-width:0.110741;stroke-linecap:round;stroke-linejoin:bevel;stroke-dasharray:none;stroke-dashoffset:0;stroke-opacity:1;paint-order:normal"
         d="m 272.38098,249.80694 c -0.12006,-0.21373 -0.20885,-0.28164 -0.30621,-0.27448 -0.0974,0.007 -0.2032,0.0894 -0.21643,0.30132 -0.0132,0.21192 0.0662,0.55349 0.16918,0.82442 0.10302,0.27093 0.22967,0.47122 0.34404,0.5508 0.11436,0.0796 0.21645,0.0384 0.28639,-0.0599 0.0699,-0.0984 0.10774,-0.25394 0.051,-0.51146 -0.0567,-0.25752 -0.20793,-0.61697 -0.328,-0.83069 z"
         id="path38"
         transform="matrix(1.1492773,0,0,0.99626433,-36.960179,-0.16140721)" /><path
         style="fill:none;fill-opacity:1;fill-rule:nonzero;stroke:#000000;stroke-width:0.110741;stroke-linecap:round;stroke-linejoin:bevel;stroke-dasharray:none;stroke-dashoffset:0;stroke-opacity:1;paint-order:normal"
         d="m 273.61709,253.94027 c -0.0267,-0.11255 -0.0802,-0.33763 -0.16441,-0.53111 -0.0842,-0.19347 -0.19917,-0.35533 -0.33551,-0.45143 -0.13633,-0.0961 -0.29407,-0.12643 -0.40367,-0.0859 -0.10961,0.0405 -0.1711,0.15175 -0.14169,0.29085 0.0294,0.1391 0.14971,0.30601 0.22589,0.48937 0.0762,0.18337 0.10825,0.38316 0.13632,0.55387 0.0281,0.17072 0.0521,0.31232 0.12966,0.37809 0.0775,0.0658 0.20853,0.0557 0.31413,-0.0455 0.10559,-0.10116 0.18579,-0.29337 0.22589,-0.38947 0.0401,-0.0961 0.0401,-0.0962 0.0134,-0.20874 z"
         id="path39"
         transform="matrix(1.1492773,0,0,0.99626433,-36.960179,-0.16140721)" /><path
         style="fill:none;fill-opacity:1;fill-rule:nonzero;stroke:#000000;stroke-width:0.110741;stroke-linecap:round;stroke-linejoin:bevel;stroke-dasharray:none;stroke-dashoffset:0;stroke-opacity:1;paint-order:normal"
         d="m 274.03693,255.79245 c -0.0425,-0.0599 -0.12759,-0.17972 -0.21926,-0.24231 -0.0917,-0.0626 -0.18999,-0.068 -0.26088,-0.0197 -0.0709,0.0483 -0.11436,0.15023 -0.10775,0.3067 0.007,0.15647 0.0633,0.36749 0.10397,0.56779 0.0406,0.20029 0.0652,0.38984 0.13231,0.55615 0.0671,0.16632 0.17674,0.30939 0.3412,0.3693 0.16447,0.0599 0.38373,0.0367 0.41492,-0.0608 0.0312,-0.0975 -0.1257,-0.26914 -0.21738,-0.51772 -0.0917,-0.24858 -0.11815,-0.57404 -0.13139,-0.73678 -0.0132,-0.16274 -0.0132,-0.16277 -0.0557,-0.22268 z"
         id="path40"
         transform="matrix(1.1492773,0,0,0.99626433,-36.960179,-0.16140721)" /><path
         style="fill:none;fill-opacity:1;fill-rule:nonzero;stroke:#000000;stroke-width:0.110741;stroke-linecap:round;stroke-linejoin:bevel;stroke-dasharray:none;stroke-dashoffset:0;stroke-opacity:1;paint-order:normal"
         d="m 273.18913,256.95754 c -0.0907,-0.0733 -0.18147,-0.14664 -0.28072,-0.12697 -0.0992,0.0197 -0.20699,0.13234 -0.23062,0.29508 -0.0236,0.16274 0.0369,0.37554 0.0775,0.61517 0.0406,0.23964 0.0614,0.5061 0.10965,0.66526 0.0482,0.15917 0.12382,0.21102 0.21644,0.16363 0.0926,-0.0474 0.20227,-0.19403 0.31191,-0.34067"
         id="path41"
         transform="matrix(1.1492773,0,0,0.99626433,-36.960179,-0.16140721)" /><path
         style="fill:none;fill-opacity:1;fill-rule:nonzero;stroke:#000000;stroke-width:0.110741;stroke-linecap:round;stroke-linejoin:bevel;stroke-dasharray:none;stroke-dashoffset:0;stroke-opacity:1;paint-order:normal"
         d="m 274.23023,252.88422 c 0.11106,-0.001 0.33317,-0.004 0.45557,-0.11398 0.12241,-0.10998 0.14511,-0.32725 0.15696,-0.56197 0.0118,-0.23472 0.0129,-0.48687 -0.0349,-0.63933 -0.0477,-0.15245 -0.14411,-0.20521 -0.24571,-0.14663 -0.10161,0.0586 -0.20841,0.22845 -0.28308,0.49089 -0.0747,0.26244 -0.1172,0.61741 -0.13846,0.7949 -0.0213,0.17749 -0.0215,0.17745 0.0896,0.17612 z"
         id="path42"
         transform="matrix(1.1492773,0,0,0.99626433,-36.960179,-0.16140721)" /><path
         style="fill:none;fill-opacity:1;fill-rule:nonzero;stroke:#000000;stroke-width:0.110741;stroke-linecap:round;stroke-linejoin:bevel;stroke-dasharray:none;stroke-dashoffset:0;stroke-opacity:1;paint-order:normal"
         d="m 273.50671,249.22665 c 0.0737,-0.0107 0.22116,-0.0322 0.34781,-0.13414 0.12666,-0.10194 0.23252,-0.28435 0.28261,-0.5678 0.0501,-0.28345 0.0444,-0.66793 -0.0444,-0.85659 -0.0888,-0.18866 -0.26087,-0.1815 -0.38185,-0.0778 -0.12098,0.10373 -0.19093,0.30402 -0.22968,0.51774 -0.0388,0.21371 -0.0463,0.44081 -0.0491,0.63126 -0.003,0.19046 -7.8e-4,0.34425 2.2e-4,0.42115 10e-4,0.0769 6.8e-4,0.0769 0.0744,0.0661 z"
         id="path43"
         transform="matrix(1.1492773,0,0,0.99626433,-36.960179,-0.16140721)" /><path
         style="fill:none;fill-opacity:1;fill-rule:nonzero;stroke:#000000;stroke-width:0.110741;stroke-linecap:round;stroke-linejoin:bevel;stroke-dasharray:none;stroke-dashoffset:0;stroke-opacity:1;paint-order:normal"
         d="m 274.08492,261.31375 c -0.10961,0.0152 -0.21921,0.0303 -0.30075,0.0733 -0.0815,0.043 -0.135,0.1138 -0.11629,0.30096 0.0187,0.18715 0.10961,0.49063 0.19115,0.70181 0.0815,0.21119 0.15371,0.33004 0.2366,0.39706 0.0829,0.067 0.17641,0.0822 0.26864,0.0619 0.0922,-0.0202 0.18314,-0.0759 0.27403,-0.13152"
         id="path44"
         transform="matrix(1.1492773,0,0,0.99626433,-36.960179,-0.16140721)" /><path
         style="fill:none;fill-opacity:1;fill-rule:nonzero;stroke:#000000;stroke-width:0.110741;stroke-linecap:round;stroke-linejoin:bevel;stroke-dasharray:none;stroke-dashoffset:0;stroke-opacity:1;paint-order:normal"
         d="m 275.08716,258.71087 c -0.02,-0.30197 -0.12838,-0.4602 -0.2497,-0.41005 -0.12132,0.0501 -0.25559,0.30865 -0.32626,0.6006 -0.0707,0.29195 -0.0777,0.61731 -0.0294,0.84462 0.0483,0.22732 0.15194,0.35658 0.24263,0.36661 0.0907,0.01 0.16844,-0.0992 0.24147,-0.37664 0.073,-0.27746 0.14134,-0.72317 0.12131,-1.02514 z"
         id="path45"
         transform="matrix(1.1492773,0,0,0.99626433,-36.960179,-0.16140721)" /><ellipse
         style="fill:none;fill-opacity:1;fill-rule:nonzero;stroke:#000000;stroke-width:0.118497;stroke-linecap:round;stroke-linejoin:bevel;stroke-dasharray:none;stroke-dashoffset:0;stroke-opacity:1;paint-order:normal"
         id="path46"
         cx="247.1423"
         cy="-277.7496"
         transform="rotate(90)"
         rx="0.15985765"
         ry="0.089342654" /><ellipse
         style="fill:none;fill-opacity:1;fill-rule:nonzero;stroke:#000000;stroke-width:0.118497;stroke-linecap:round;stroke-linejoin:bevel;stroke-dasharray:none;stroke-dashoffset:0;stroke-opacity:1;paint-order:normal"
         id="path47"
         cx="247.77509"
         cy="-277.57092"
         transform="rotate(90)"
         rx="0.17983986"
         ry="0.1218309" /><ellipse
         style="fill:none;fill-opacity:1;fill-rule:nonzero;stroke:#000000;stroke-width:0.118497;stroke-linecap:round;stroke-linejoin:bevel;stroke-dasharray:none;stroke-dashoffset:0;stroke-opacity:1;paint-order:normal"
         id="path48"
         cx="249.17383"
         cy="-276.00336"
         transform="rotate(90)"
         rx="0.21980427"
         ry="0.11370883" /><ellipse
         style="fill:none;fill-opacity:1;fill-rule:nonzero;stroke:#000000;stroke-width:0.118497;stroke-linecap:round;stroke-linejoin:bevel;stroke-dasharray:none;stroke-dashoffset:0;stroke-opacity:1;paint-order:normal"
         id="path49"
         cx="257.99847"
         cy="-278.95187"
         transform="rotate(90)"
         rx="0.31556004"
         ry="0.06891796" /><ellipse
         style="fill:none;fill-opacity:1;fill-rule:nonzero;stroke:#000000;stroke-width:0.118497;stroke-linecap:round;stroke-linejoin:bevel;stroke-dasharray:none;stroke-dashoffset:0;stroke-opacity:1;paint-order:normal"
         id="path50"
         cx="252.80394"
         cy="-277.12418"
         transform="rotate(90)"
         rx="0.43960854"
         ry="0.064976476" /><ellipse
         style="fill:none;fill-opacity:1;fill-rule:nonzero;stroke:#000000;stroke-width:0.118497;stroke-linecap:round;stroke-linejoin:bevel;stroke-dasharray:none;stroke-dashoffset:0;stroke-opacity:1;paint-order:normal"
         id="path51"
         cx="260.62891"
         cy="-277.95258"
         transform="rotate(90)"
         rx="0.1389406"
         ry="0.10912011" /></g></g></svg>